<svg xmlns="http://www.w3.org/2000/svg" xmlns:xlink="http://www.w3.org/1999/xlink" width="160" zoomAndPan="magnify" viewBox="0 0 120 119.999999" height="160" preserveAspectRatio="xMidYMid meet" version="1.0"><defs><clipPath id="4083268a0b"><path d="M 4 0 L 119.25 0 L 119.25 115 L 4 115 Z M 4 0 " clip-rule="nonzero"/></clipPath></defs><g clip-path="url(#4083268a0b)"><path fill="#2f6d88" d="M 119.453125 57.5 C 119.453125 59.382812 119.359375 61.261719 119.175781 63.132812 C 118.992188 65.007812 118.714844 66.867188 118.347656 68.710938 C 117.980469 70.558594 117.527344 72.382812 116.980469 74.183594 C 116.433594 75.984375 115.800781 77.753906 115.078125 79.496094 C 114.359375 81.234375 113.554688 82.933594 112.667969 84.59375 C 111.78125 86.253906 110.816406 87.867188 109.769531 89.429688 C 108.722656 90.996094 107.605469 92.507812 106.410156 93.960938 C 105.21875 95.417969 103.953125 96.808594 102.625 98.140625 C 101.292969 99.472656 99.898438 100.734375 98.445312 101.929688 C 96.988281 103.121094 95.480469 104.242188 93.914062 105.289062 C 92.351562 106.335938 90.738281 107.300781 89.078125 108.1875 C 87.417969 109.078125 85.71875 109.878906 83.980469 110.601562 C 82.242188 111.320312 80.46875 111.953125 78.667969 112.5 C 76.867188 113.046875 75.042969 113.503906 73.199219 113.871094 C 71.351562 114.238281 69.492188 114.515625 67.621094 114.699219 C 65.746094 114.882812 63.867188 114.976562 61.984375 114.976562 C 60.105469 114.976562 58.226562 114.882812 56.351562 114.699219 C 54.480469 114.515625 52.621094 114.238281 50.773438 113.871094 C 48.925781 113.503906 47.105469 113.046875 45.304688 112.503906 C 43.5 111.957031 41.730469 111.324219 39.992188 110.601562 C 38.253906 109.882812 36.554688 109.078125 34.894531 108.191406 C 33.234375 107.304688 31.621094 106.335938 30.054688 105.292969 C 28.492188 104.246094 26.980469 103.125 25.527344 101.933594 C 24.070312 100.738281 22.679688 99.476562 21.347656 98.144531 C 20.015625 96.8125 18.753906 95.421875 17.558594 93.964844 C 16.367188 92.511719 15.246094 91 14.199219 89.433594 C 13.152344 87.871094 12.1875 86.257812 11.300781 84.597656 C 10.414062 82.9375 9.609375 81.238281 8.890625 79.5 C 8.167969 77.761719 7.535156 75.988281 6.988281 74.1875 C 6.441406 72.386719 5.984375 70.5625 5.617188 68.71875 C 5.25 66.871094 4.976562 65.011719 4.792969 63.136719 C 4.605469 61.265625 4.515625 59.386719 4.515625 57.503906 C 4.515625 55.621094 4.609375 53.746094 4.792969 51.871094 C 4.976562 50 5.253906 48.140625 5.621094 46.292969 C 5.988281 44.445312 6.445312 42.625 6.992188 40.820312 C 7.539062 39.019531 8.171875 37.25 8.890625 35.511719 C 9.613281 33.773438 10.414062 32.074219 11.304688 30.414062 C 12.191406 28.753906 13.15625 27.140625 14.203125 25.578125 C 15.25 24.011719 16.367188 22.5 17.5625 21.046875 C 18.757812 19.589844 20.019531 18.199219 21.351562 16.867188 C 22.683594 15.535156 24.074219 14.273438 25.53125 13.082031 C 26.984375 11.886719 28.496094 10.765625 30.0625 9.722656 C 31.625 8.675781 33.238281 7.710938 34.898438 6.824219 C 36.558594 5.933594 38.257812 5.132812 39.996094 4.410156 C 41.738281 3.691406 43.507812 3.058594 45.308594 2.511719 C 47.109375 1.964844 48.933594 1.507812 50.78125 1.140625 C 52.625 0.773438 54.484375 0.5 56.359375 0.316406 C 58.230469 0.132812 60.109375 0.0390625 61.992188 0.0390625 C 63.875 0.03125 65.753906 0.117188 67.628906 0.296875 C 69.503906 0.476562 71.367188 0.746094 73.214844 1.109375 C 75.066406 1.472656 76.890625 1.925781 78.695312 2.46875 C 80.5 3.011719 82.273438 3.640625 84.011719 4.359375 C 85.753906 5.074219 87.457031 5.878906 89.121094 6.761719 C 90.78125 7.648438 92.398438 8.613281 93.964844 9.660156 C 95.53125 10.703125 97.042969 11.824219 98.5 13.019531 C 99.957031 14.214844 101.351562 15.476562 102.683594 16.808594 C 104.015625 18.140625 105.277344 19.535156 106.472656 20.992188 C 107.667969 22.449219 108.789062 23.960938 109.832031 25.527344 C 110.878906 27.09375 111.84375 28.710938 112.730469 30.371094 C 113.613281 32.035156 114.417969 33.738281 115.132812 35.480469 C 115.851562 37.21875 116.480469 38.992188 117.023438 40.796875 C 117.566406 42.601562 118.019531 44.425781 118.382812 46.277344 C 118.746094 48.125 119.015625 49.984375 119.195312 51.863281 C 119.371094 53.738281 119.457031 55.617188 119.453125 57.5 Z M 119.453125 57.5 " fill-opacity="1" fill-rule="nonzero"/></g><path fill="#ffffff" d="M 106.316406 94.085938 C 105.640625 94.90625 104.9375 95.710938 104.214844 96.492188 C 103.492188 97.277344 102.75 98.039062 101.984375 98.78125 C 101.21875 99.523438 100.433594 100.242188 99.625 100.941406 C 98.820312 101.636719 97.996094 102.3125 97.152344 102.964844 C 96.308594 103.617188 95.449219 104.246094 94.570312 104.847656 C 93.695312 105.453125 92.800781 106.03125 91.890625 106.585938 C 90.980469 107.140625 90.054688 107.671875 89.113281 108.171875 C 88.175781 108.675781 87.222656 109.152344 86.253906 109.601562 C 85.289062 110.054688 84.3125 110.476562 83.320312 110.871094 C 82.332031 111.265625 81.332031 111.636719 80.320312 111.976562 C 79.3125 112.316406 78.292969 112.625 77.265625 112.910156 C 76.238281 113.191406 75.203125 113.449219 74.160156 113.671875 C 73.121094 113.898438 72.070312 114.097656 71.019531 114.261719 C 69.96875 114.429688 68.910156 114.570312 67.851562 114.675781 C 66.789062 114.785156 65.726562 114.867188 64.664062 114.914062 C 63.597656 114.964844 62.53125 114.984375 61.46875 114.976562 C 60.402344 114.964844 59.335938 114.925781 58.273438 114.855469 C 57.210938 114.789062 56.148438 114.691406 55.089844 114.5625 C 54.03125 114.433594 52.976562 114.277344 51.929688 114.089844 C 50.878906 113.902344 49.835938 113.6875 48.796875 113.445312 C 47.761719 113.199219 46.730469 112.925781 45.707031 112.625 C 44.6875 112.320312 43.671875 111.992188 42.667969 111.632812 C 41.664062 111.273438 40.671875 110.890625 39.691406 110.476562 C 38.707031 110.0625 37.738281 109.621094 36.78125 109.15625 C 35.820312 108.6875 34.878906 108.195312 33.949219 107.671875 C 33.015625 107.152344 32.101562 106.609375 31.203125 106.035156 C 30.300781 105.464844 29.417969 104.871094 28.550781 104.25 C 27.683594 103.628906 26.835938 102.988281 26.003906 102.320312 C 25.171875 101.652344 24.359375 100.960938 23.566406 100.25 C 22.777344 99.539062 22.003906 98.804688 21.25 98.046875 C 20.5 97.292969 19.769531 96.515625 19.058594 95.722656 C 18.351562 94.925781 17.664062 94.109375 17 93.277344 C 23.125 84.546875 32.613281 78.488281 52.566406 78.261719 C 75.597656 77.984375 92.539062 77.144531 99.535156 84.886719 C 102.082031 87.742188 104.34375 90.808594 106.316406 94.085938 Z M 106.316406 94.085938 " fill-opacity="1" fill-rule="nonzero"/><path fill="#000000" d="M 42.953125 43.007812 C 31.902344 39.011719 33.703125 24.4375 35.273438 24.125 C 36.839844 23.808594 40.207031 26.394531 40.363281 26.472656 C 40.523438 26.550781 39.582031 19.96875 41.699219 16.914062 C 43.816406 13.859375 51.886719 20.046875 58.078125 20.128906 C 64.265625 20.207031 79.234375 20.597656 83.621094 24.515625 C 88.011719 28.433594 85.734375 36.820312 85.734375 36.820312 C 85.734375 36.820312 90.753906 38.152344 89.734375 45.203125 C 88.710938 52.257812 80.800781 58.3125 77.976562 63.394531 C 75.15625 68.476562 58.402344 69.417969 55.800781 62.050781 " fill-opacity="1" fill-rule="nonzero"/><path fill="#f8f7f2" d="M 61.152344 86.757812 C 53.117188 86.757812 51.9375 80.050781 51.90625 78.917969 C 51.90625 78.789062 51.886719 78.5625 51.90625 78.253906 C 51.886719 77.621094 51.886719 76.648438 51.886719 75.515625 C 51.921875 72.457031 51.953125 68.230469 51.90625 66.414062 L 67.242188 60.925781 L 70.027344 59.921875 L 73.121094 58.820312 C 73.121094 58.820312 73.105469 59.417969 73.070312 60.40625 C 73.054688 60.972656 73.039062 61.667969 73.023438 62.464844 C 73.023438 62.554688 73.019531 62.648438 73.007812 62.742188 C 72.992188 63.890625 72.976562 65.203125 72.941406 66.578125 C 72.894531 70.902344 72.878906 75.761719 73.105469 77.511719 C 73.523438 80.910156 69.183594 86.757812 61.152344 86.757812 Z M 61.152344 86.757812 " fill-opacity="1" fill-rule="nonzero"/><path fill="#a6a6a6" d="M 73.132812 62.496094 C 73.097656 62.578125 73.054688 62.660156 73.003906 62.738281 C 67.5625 73.929688 59.386719 78.367188 51.902344 78.253906 C 51.886719 77.621094 51.886719 76.648438 51.886719 75.515625 C 51.917969 72.457031 51.953125 68.230469 51.902344 66.414062 L 67.238281 60.925781 L 73.023438 62.464844 Z M 73.132812 62.496094 " fill-opacity="1" fill-rule="nonzero"/><path fill="#f8f7f2" d="M 42.648438 33.058594 C 51.582031 43.765625 73.644531 41.832031 73.644531 41.832031 C 73.644531 41.832031 74.0625 54.371094 76.257812 54.265625 C 78.449219 54.164062 78.816406 47.214844 84.199219 48.367188 C 89.578125 49.515625 86.234375 59.910156 82.054688 60.484375 C 77.875 61.058594 76.832031 57.507812 76.832031 57.507812 C 76.832031 57.507812 69.125 72.789062 56.902344 72.789062 C 44.675781 72.789062 41.546875 61.070312 41.621094 54.683594 C 41.691406 48.300781 42.648438 33.058594 42.648438 33.058594 Z M 42.648438 33.058594 " fill-opacity="1" fill-rule="nonzero"/></svg>