<svg xmlns="http://www.w3.org/2000/svg" xmlns:xlink="http://www.w3.org/1999/xlink" width="190" zoomAndPan="magnify" viewBox="0 0 142.5 142.499995" height="190" preserveAspectRatio="xMidYMid meet" version="1.0"><defs><clipPath id="7e6f4dcb2f"><path d="M 0 0 L 141.40625 0 L 141.40625 141.40625 L 0 141.40625 Z M 0 0 " clip-rule="nonzero"/></clipPath><clipPath id="cdc8195096"><path d="M 70.703125 0 C 31.65625 0 0 31.65625 0 70.703125 C 0 109.75 31.65625 141.40625 70.703125 141.40625 C 109.75 141.40625 141.40625 109.75 141.40625 70.703125 C 141.40625 31.65625 109.75 0 70.703125 0 Z M 70.703125 0 " clip-rule="nonzero"/></clipPath><clipPath id="05b67ff7a3"><path d="M 0 0 L 141.40625 0 L 141.40625 141.40625 L 0 141.40625 Z M 0 0 " clip-rule="nonzero"/></clipPath><clipPath id="b628f208fb"><path d="M 70.703125 0 C 31.65625 0 0 31.65625 0 70.703125 C 0 109.75 31.65625 141.40625 70.703125 141.40625 C 109.75 141.40625 141.40625 109.75 141.40625 70.703125 C 141.40625 31.65625 109.75 0 70.703125 0 Z M 70.703125 0 " clip-rule="nonzero"/></clipPath><clipPath id="b71b615217"><rect x="0" width="142" y="0" height="142"/></clipPath><clipPath id="f3e1aa5c1b"><path d="M 0 0 L 141.253906 0 L 141.253906 141.253906 L 0 141.253906 Z M 0 0 " clip-rule="nonzero"/></clipPath><clipPath id="1c65b80aff"><path d="M 70.703125 0 C 31.65625 0 0 31.65625 0 70.703125 C 0 109.75 31.65625 141.40625 70.703125 141.40625 C 109.75 141.40625 141.40625 109.75 141.40625 70.703125 C 141.40625 31.65625 109.75 0 70.703125 0 Z M 70.703125 0 " clip-rule="nonzero"/></clipPath><clipPath id="38116526a0"><path d="M 13 14.132812 L 127.734375 14.132812 L 127.734375 129 L 13 129 Z M 13 14.132812 " clip-rule="nonzero"/></clipPath></defs><g clip-path="url(#7e6f4dcb2f)"><g clip-path="url(#cdc8195096)"><g transform="matrix(1, 0, 0, 1, 0, -0.000000000000013191)"><g clip-path="url(#b71b615217)"><g clip-path="url(#05b67ff7a3)"><g clip-path="url(#b628f208fb)"><path fill="#ffffff" d="M 0 0 L 141.40625 0 L 141.40625 141.40625 L 0 141.40625 Z M 0 0 " fill-opacity="1" fill-rule="nonzero"/></g></g></g></g></g></g><g clip-path="url(#f3e1aa5c1b)"><g clip-path="url(#1c65b80aff)"><path stroke-linecap="butt" transform="matrix(0.747378, 0, 0, 0.747378, 0.0000025, -0.000000996503)" fill="none" stroke-linejoin="miter" d="M 94.601612 0.00000133333 C 42.356433 0.00000133333 -0.00000334503 42.356437 -0.00000334503 94.601617 C -0.00000334503 146.846796 42.356433 189.203232 94.601612 189.203232 C 146.846792 189.203232 189.203228 146.846796 189.203228 94.601617 C 189.203228 42.356437 146.846792 0.00000133333 94.601612 0.00000133333 Z M 94.601612 0.00000133333 " stroke="#2f6d88" stroke-width="16" stroke-opacity="1" stroke-miterlimit="4"/></g></g><g clip-path="url(#38116526a0)"><path fill="#2f6d88" d="M 127.9375 71.433594 C 127.9375 73.308594 127.84375 75.179688 127.660156 77.046875 C 127.476562 78.914062 127.203125 80.765625 126.835938 82.605469 C 126.472656 84.445312 126.015625 86.261719 125.472656 88.058594 C 124.929688 89.851562 124.296875 91.617188 123.578125 93.351562 C 122.863281 95.082031 122.0625 96.777344 121.175781 98.429688 C 120.292969 100.085938 119.332031 101.691406 118.289062 103.25 C 117.246094 104.8125 116.128906 106.316406 114.941406 107.765625 C 113.75 109.214844 112.492188 110.605469 111.167969 111.929688 C 109.839844 113.257812 108.453125 114.515625 107.003906 115.707031 C 105.554688 116.894531 104.046875 118.011719 102.488281 119.054688 C 100.929688 120.097656 99.324219 121.058594 97.667969 121.945312 C 96.015625 122.828125 94.320312 123.628906 92.585938 124.347656 C 90.855469 125.066406 89.089844 125.695312 87.296875 126.242188 C 85.5 126.785156 83.683594 127.242188 81.84375 127.605469 C 80.003906 127.972656 78.152344 128.25 76.285156 128.433594 C 74.417969 128.617188 72.546875 128.707031 70.671875 128.707031 C 68.796875 128.707031 66.925781 128.617188 65.058594 128.433594 C 63.191406 128.25 61.339844 127.972656 59.5 127.609375 C 57.660156 127.242188 55.839844 126.785156 54.046875 126.242188 C 52.25 125.699219 50.488281 125.066406 48.753906 124.347656 C 47.023438 123.632812 45.328125 122.832031 43.671875 121.945312 C 42.019531 121.0625 40.414062 120.097656 38.851562 119.058594 C 37.292969 118.015625 35.789062 116.898438 34.339844 115.710938 C 32.890625 114.519531 31.5 113.261719 30.175781 111.933594 C 28.847656 110.609375 27.589844 109.21875 26.398438 107.769531 C 25.210938 106.320312 24.09375 104.816406 23.050781 103.257812 C 22.011719 101.695312 21.046875 100.089844 20.164062 98.433594 C 19.277344 96.78125 18.476562 95.085938 17.761719 93.355469 C 17.042969 91.621094 16.410156 89.859375 15.867188 88.0625 C 15.320312 86.269531 14.867188 84.449219 14.5 82.609375 C 14.136719 80.769531 13.859375 78.917969 13.675781 77.050781 C 13.492188 75.183594 13.402344 73.3125 13.402344 71.4375 C 13.402344 69.5625 13.492188 67.691406 13.675781 65.824219 C 13.859375 63.957031 14.136719 62.105469 14.503906 60.265625 C 14.867188 58.425781 15.324219 56.609375 15.867188 54.8125 C 16.414062 53.019531 17.042969 51.253906 17.761719 49.519531 C 18.480469 47.789062 19.28125 46.09375 20.164062 44.441406 C 21.050781 42.785156 22.011719 41.179688 23.054688 39.621094 C 24.097656 38.0625 25.214844 36.554688 26.402344 35.105469 C 27.59375 33.65625 28.851562 32.269531 30.179688 30.941406 C 31.503906 29.617188 32.894531 28.359375 34.34375 27.167969 C 35.792969 25.980469 37.296875 24.863281 38.859375 23.820312 C 40.417969 22.777344 42.023438 21.816406 43.679688 20.933594 C 45.332031 20.046875 47.027344 19.246094 48.761719 18.53125 C 50.492188 17.8125 52.257812 17.179688 54.050781 16.636719 C 55.847656 16.09375 57.664062 15.636719 59.503906 15.273438 C 61.34375 14.90625 63.195312 14.632812 65.0625 14.449219 C 66.929688 14.265625 68.800781 14.171875 70.675781 14.171875 C 72.554688 14.167969 74.425781 14.25 76.296875 14.429688 C 78.164062 14.609375 80.019531 14.878906 81.863281 15.238281 C 83.703125 15.601562 85.523438 16.050781 87.320312 16.59375 C 89.121094 17.132812 90.886719 17.761719 92.621094 18.476562 C 94.355469 19.191406 96.054688 19.992188 97.710938 20.871094 C 99.367188 21.753906 100.976562 22.71875 102.539062 23.757812 C 104.101562 24.800781 105.605469 25.917969 107.058594 27.105469 C 108.507812 28.296875 109.898438 29.554688 111.226562 30.882812 C 112.554688 32.210938 113.8125 33.601562 115.003906 35.050781 C 116.191406 36.503906 117.308594 38.011719 118.351562 39.570312 C 119.390625 41.132812 120.355469 42.742188 121.238281 44.398438 C 122.121094 46.054688 122.917969 47.753906 123.632812 49.488281 C 124.347656 51.222656 124.976562 52.992188 125.515625 54.789062 C 126.058594 56.585938 126.507812 58.40625 126.871094 60.246094 C 127.230469 62.089844 127.5 63.945312 127.679688 65.8125 C 127.859375 67.683594 127.941406 69.554688 127.9375 71.433594 Z M 127.9375 71.433594 " fill-opacity="1" fill-rule="nonzero"/></g><path fill="#ffffff" d="M 114.847656 107.890625 C 114.171875 108.710938 113.472656 109.507812 112.753906 110.289062 C 112.03125 111.070312 111.292969 111.828125 110.527344 112.570312 C 109.765625 113.308594 108.984375 114.023438 108.179688 114.71875 C 107.378906 115.414062 106.554688 116.089844 105.714844 116.738281 C 104.875 117.386719 104.019531 118.015625 103.144531 118.617188 C 102.269531 119.21875 101.375 119.796875 100.46875 120.347656 C 99.5625 120.902344 98.640625 121.429688 97.703125 121.929688 C 96.769531 122.429688 95.820312 122.90625 94.855469 123.355469 C 93.894531 123.800781 92.917969 124.222656 91.933594 124.617188 C 90.945312 125.011719 89.949219 125.378906 88.941406 125.71875 C 87.9375 126.054688 86.921875 126.367188 85.898438 126.648438 C 84.871094 126.929688 83.839844 127.183594 82.804688 127.410156 C 81.765625 127.632812 80.722656 127.832031 79.671875 127.996094 C 78.625 128.164062 77.570312 128.300781 76.515625 128.410156 C 75.457031 128.519531 74.398438 128.597656 73.339844 128.648438 C 72.277344 128.695312 71.214844 128.714844 70.152344 128.707031 C 69.09375 128.695312 68.03125 128.65625 66.972656 128.589844 C 65.910156 128.519531 64.855469 128.421875 63.800781 128.292969 C 62.746094 128.167969 61.695312 128.011719 60.648438 127.824219 C 59.601562 127.640625 58.5625 127.425781 57.53125 127.179688 C 56.496094 126.9375 55.46875 126.664062 54.449219 126.363281 C 53.433594 126.0625 52.421875 125.734375 51.421875 125.375 C 50.421875 125.019531 49.433594 124.636719 48.453125 124.222656 C 47.476562 123.8125 46.507812 123.371094 45.554688 122.90625 C 44.597656 122.441406 43.65625 121.949219 42.730469 121.429688 C 41.804688 120.914062 40.890625 120.367188 39.996094 119.800781 C 39.097656 119.230469 38.21875 118.636719 37.351562 118.019531 C 36.488281 117.402344 35.644531 116.761719 34.816406 116.09375 C 33.988281 115.429688 33.175781 114.742188 32.386719 114.03125 C 31.597656 113.324219 30.828125 112.589844 30.078125 111.839844 C 29.328125 111.085938 28.601562 110.3125 27.894531 109.519531 C 27.1875 108.726562 26.503906 107.914062 25.84375 107.082031 C 31.945312 98.382812 41.402344 92.347656 61.285156 92.121094 C 84.234375 91.847656 101.117188 91.007812 108.089844 98.722656 C 110.625 101.570312 112.878906 104.625 114.847656 107.890625 Z M 114.847656 107.890625 " fill-opacity="1" fill-rule="nonzero"/><path fill="#000000" d="M 51.703125 56.992188 C 40.691406 53.007812 42.488281 38.484375 44.050781 38.171875 C 45.613281 37.859375 48.96875 40.4375 49.125 40.515625 C 49.285156 40.59375 48.347656 34.035156 50.453125 30.988281 C 52.5625 27.941406 60.605469 34.113281 66.773438 34.191406 C 72.945312 34.269531 87.859375 34.660156 92.230469 38.5625 C 96.605469 42.46875 94.335938 50.824219 94.335938 50.824219 C 94.335938 50.824219 99.339844 52.152344 98.320312 59.179688 C 97.304688 66.207031 89.417969 72.242188 86.605469 77.308594 C 83.796875 82.371094 67.097656 83.308594 64.507812 75.96875 " fill-opacity="1" fill-rule="nonzero"/><path fill="#f8f7f2" d="M 69.839844 100.585938 C 61.835938 100.585938 60.65625 93.90625 60.625 92.773438 C 60.625 92.644531 60.609375 92.421875 60.625 92.113281 C 60.609375 91.484375 60.609375 90.515625 60.609375 89.386719 C 60.640625 86.335938 60.671875 82.125 60.625 80.316406 L 75.90625 74.84375 L 78.683594 73.84375 L 81.765625 72.746094 C 81.765625 72.746094 81.75 73.34375 81.71875 74.328125 C 81.703125 74.894531 81.6875 75.585938 81.667969 76.378906 C 81.671875 76.472656 81.667969 76.5625 81.652344 76.65625 C 81.636719 77.800781 81.621094 79.109375 81.589844 80.480469 C 81.539062 84.789062 81.523438 89.628906 81.75 91.371094 C 82.167969 94.761719 77.84375 100.585938 69.839844 100.585938 Z M 69.839844 100.585938 " fill-opacity="1" fill-rule="nonzero"/><path fill="#a6a6a6" d="M 81.78125 76.410156 C 81.746094 76.496094 81.703125 76.574219 81.652344 76.652344 C 76.230469 87.804688 68.078125 92.226562 60.625 92.113281 C 60.605469 91.484375 60.605469 90.515625 60.605469 89.386719 C 60.640625 86.335938 60.671875 82.125 60.625 80.316406 L 75.90625 74.84375 L 81.667969 76.378906 Z M 81.78125 76.410156 " fill-opacity="1" fill-rule="nonzero"/><path fill="#f8f7f2" d="M 51.402344 47.074219 C 60.304688 57.746094 82.289062 55.820312 82.289062 55.820312 C 82.289062 55.820312 82.707031 68.316406 84.890625 68.210938 C 87.078125 68.105469 87.441406 61.183594 92.804688 62.332031 C 98.167969 63.476562 94.835938 73.835938 90.671875 74.40625 C 86.507812 74.980469 85.464844 71.441406 85.464844 71.441406 C 85.464844 71.441406 77.785156 86.667969 65.605469 86.667969 C 53.421875 86.667969 50.304688 74.988281 50.375 68.628906 C 50.449219 62.265625 51.402344 47.074219 51.402344 47.074219 Z M 51.402344 47.074219 " fill-opacity="1" fill-rule="nonzero"/></svg>