<svg xmlns="http://www.w3.org/2000/svg" xmlns:xlink="http://www.w3.org/1999/xlink" width="254" zoomAndPan="magnify" viewBox="0 0 190.5 103.5" height="138" preserveAspectRatio="xMidYMid meet" version="1.0"><defs><g/><clipPath id="48f24df5c3"><rect x="0" width="158" y="0" height="61"/></clipPath></defs><g transform="matrix(1, 0, 0, 1, 16, 19)"><g clip-path="url(#48f24df5c3)"><g fill="#005ea2" fill-opacity="1"><g transform="translate(1.021296, 48.054951)"><g><path d="M 19.339844 -30.5 C 21.804688 -30.5 23.941406 -29.941406 25.742188 -28.824219 C 27.550781 -27.703125 28.941406 -26.113281 29.90625 -24.054688 C 30.847656 -22.050781 31.316406 -19.6875 31.316406 -16.972656 L 31.316406 -0.847656 C 31.316406 -0.214844 31.121094 0.292969 30.722656 0.679688 C 30.339844 1.050781 29.832031 1.238281 29.207031 1.238281 L 23.851562 1.238281 C 23.222656 1.238281 22.71875 1.050781 22.332031 0.679688 C 21.9375 0.292969 21.738281 -0.214844 21.738281 -0.847656 L 21.738281 -16.546875 C 21.738281 -18.101562 21.351562 -19.339844 20.578125 -20.273438 C 19.863281 -21.136719 18.726562 -21.570312 17.167969 -21.570312 C 16.140625 -21.570312 15.253906 -21.339844 14.507812 -20.878906 C 13.75 -20.40625 13.164062 -19.789062 12.75 -19.019531 C 12.328125 -18.238281 12.121094 -17.378906 12.121094 -16.4375 L 12.121094 -0.816406 C 12.121094 -0.195312 11.921875 0.308594 11.53125 0.683594 C 11.152344 1.054688 10.652344 1.238281 10.035156 1.238281 L 4.59375 1.238281 C 3.980469 1.238281 3.484375 1.046875 3.105469 0.671875 C 2.730469 0.292969 2.539062 -0.203125 2.539062 -0.816406 L 2.539062 -42.035156 C 2.539062 -42.648438 2.730469 -43.144531 3.105469 -43.523438 C 3.484375 -43.898438 3.980469 -44.089844 4.59375 -44.089844 L 10.035156 -44.089844 C 10.652344 -44.089844 11.152344 -43.90625 11.53125 -43.535156 C 11.921875 -43.160156 12.121094 -42.65625 12.121094 -42.035156 L 12.121094 -25.0625 L 10.910156 -25.0625 L 9.9375 -25.777344 C 10.988281 -27.207031 12.339844 -28.351562 13.988281 -29.207031 C 15.648438 -30.070312 17.433594 -30.5 19.339844 -30.5 Z M 19.339844 -28.082031 C 17.824219 -28.082031 16.414062 -27.742188 15.105469 -27.0625 C 13.785156 -26.378906 12.710938 -25.472656 11.882812 -24.347656 L 9.703125 -21.378906 L 9.703125 -42.035156 C 9.703125 -42.046875 9.699219 -42.050781 9.699219 -42.054688 C 9.703125 -42.042969 9.707031 -42.027344 9.710938 -42.011719 C 9.738281 -41.933594 9.785156 -41.863281 9.851562 -41.800781 C 9.914062 -41.738281 9.976562 -41.699219 10.046875 -41.675781 C 10.058594 -41.671875 10.070312 -41.667969 10.074219 -41.667969 C 10.066406 -41.671875 10.054688 -41.671875 10.035156 -41.671875 L 4.59375 -41.671875 C 4.582031 -41.671875 4.574219 -41.671875 4.566406 -41.667969 C 4.578125 -41.671875 4.589844 -41.675781 4.609375 -41.679688 C 4.683594 -41.703125 4.75 -41.75 4.816406 -41.8125 C 4.878906 -41.878906 4.925781 -41.945312 4.949219 -42.023438 C 4.953125 -42.039062 4.957031 -42.050781 4.960938 -42.0625 C 4.957031 -42.054688 4.957031 -42.046875 4.957031 -42.035156 L 4.957031 -0.816406 C 4.957031 -0.804688 4.957031 -0.796875 4.960938 -0.789062 C 4.957031 -0.800781 4.953125 -0.8125 4.949219 -0.828125 C 4.925781 -0.90625 4.878906 -0.972656 4.816406 -1.039062 C 4.75 -1.101562 4.683594 -1.148438 4.609375 -1.171875 C 4.589844 -1.175781 4.578125 -1.179688 4.566406 -1.183594 C 4.574219 -1.179688 4.582031 -1.179688 4.59375 -1.179688 L 10.035156 -1.179688 C 10.054688 -1.179688 10.066406 -1.179688 10.074219 -1.183594 C 10.070312 -1.183594 10.058594 -1.179688 10.046875 -1.175781 C 9.976562 -1.152344 9.914062 -1.113281 9.851562 -1.050781 C 9.785156 -0.988281 9.738281 -0.917969 9.710938 -0.839844 C 9.707031 -0.824219 9.703125 -0.808594 9.699219 -0.796875 C 9.699219 -0.800781 9.703125 -0.804688 9.703125 -0.816406 L 9.703125 -16.4375 C 9.703125 -17.785156 10.007812 -19.03125 10.621094 -20.167969 C 11.242188 -21.316406 12.109375 -22.238281 13.234375 -22.933594 C 14.367188 -23.636719 15.679688 -23.988281 17.167969 -23.988281 C 19.484375 -23.988281 21.242188 -23.265625 22.441406 -21.816406 C 23.585938 -20.4375 24.15625 -18.679688 24.15625 -16.546875 L 24.15625 -0.847656 C 24.15625 -0.832031 24.15625 -0.824219 24.160156 -0.816406 C 24.15625 -0.828125 24.152344 -0.839844 24.148438 -0.855469 C 24.121094 -0.929688 24.078125 -0.996094 24.015625 -1.058594 C 23.957031 -1.117188 23.894531 -1.15625 23.828125 -1.175781 C 23.816406 -1.179688 23.808594 -1.183594 23.804688 -1.183594 C 23.816406 -1.179688 23.832031 -1.179688 23.851562 -1.179688 L 29.207031 -1.179688 C 29.226562 -1.179688 29.242188 -1.179688 29.253906 -1.183594 C 29.25 -1.183594 29.242188 -1.179688 29.230469 -1.175781 C 29.164062 -1.15625 29.101562 -1.117188 29.042969 -1.058594 C 28.980469 -0.996094 28.933594 -0.929688 28.910156 -0.855469 C 28.902344 -0.839844 28.898438 -0.828125 28.898438 -0.816406 C 28.898438 -0.824219 28.898438 -0.832031 28.898438 -0.847656 L 28.898438 -16.972656 C 28.898438 -19.328125 28.503906 -21.347656 27.71875 -23.027344 C 26.953125 -24.652344 25.871094 -25.898438 24.46875 -26.769531 C 23.054688 -27.644531 21.347656 -28.082031 19.339844 -28.082031 Z M 19.339844 -28.082031 "/></g></g></g><g fill="#005ea2" fill-opacity="1"><g transform="translate(34.597705, 48.054951)"><g><path d="M 30.164062 -29.851562 C 30.796875 -29.851562 31.304688 -29.652344 31.6875 -29.257812 C 32.0625 -28.875 32.25 -28.367188 32.25 -27.742188 L 32.25 -0.875 C 32.25 -0.289062 32.058594 0.203125 31.679688 0.605469 C 31.28125 1.027344 30.765625 1.238281 30.136719 1.238281 L 27.007812 1.238281 C 26.5625 1.238281 26.160156 1.121094 25.800781 0.886719 C 25.46875 0.671875 25.199219 0.375 24.988281 -0.0117188 L 24.929688 -0.125 L 23.566406 -4.640625 L 24.722656 -4.988281 L 25.78125 -4.40625 C 25.109375 -3.183594 24.195312 -2.09375 23.046875 -1.128906 C 21.910156 -0.179688 20.640625 0.5625 19.234375 1.101562 C 17.820312 1.644531 16.351562 1.914062 14.828125 1.914062 C 12.394531 1.914062 10.226562 1.359375 8.328125 0.253906 C 6.417969 -0.859375 4.921875 -2.441406 3.847656 -4.5 C 2.789062 -6.527344 2.257812 -8.898438 2.257812 -11.613281 L 2.257812 -27.710938 C 2.257812 -28.347656 2.453125 -28.859375 2.839844 -29.242188 C 3.226562 -29.628906 3.734375 -29.824219 4.371094 -29.824219 L 9.726562 -29.824219 C 10.359375 -29.824219 10.871094 -29.628906 11.257812 -29.242188 C 11.644531 -28.859375 11.835938 -28.347656 11.835938 -27.710938 L 11.835938 -12.007812 C 11.835938 -11.015625 12.050781 -10.144531 12.472656 -9.386719 C 12.886719 -8.648438 13.46875 -8.070312 14.226562 -7.65625 C 15.003906 -7.230469 15.929688 -7.015625 17 -7.015625 C 18.066406 -7.015625 19.023438 -7.257812 19.875 -7.734375 C 20.734375 -8.21875 21.421875 -8.859375 21.933594 -9.648438 C 22.425781 -10.410156 22.667969 -11.242188 22.667969 -12.152344 L 22.667969 -27.742188 C 22.667969 -28.375 22.863281 -28.886719 23.25 -29.273438 C 23.636719 -29.660156 24.144531 -29.851562 24.78125 -29.851562 Z M 30.164062 -27.433594 L 24.78125 -27.433594 C 24.761719 -27.433594 24.75 -27.433594 24.738281 -27.433594 C 24.746094 -27.433594 24.753906 -27.433594 24.769531 -27.441406 C 24.835938 -27.460938 24.898438 -27.503906 24.957031 -27.5625 C 25.019531 -27.621094 25.058594 -27.683594 25.082031 -27.753906 C 25.085938 -27.765625 25.089844 -27.773438 25.089844 -27.78125 C 25.089844 -27.773438 25.085938 -27.757812 25.085938 -27.742188 L 25.085938 -12.152344 C 25.085938 -10.765625 24.710938 -9.496094 23.964844 -8.335938 C 23.234375 -7.210938 22.265625 -6.308594 21.0625 -5.628906 C 19.84375 -4.941406 18.488281 -4.597656 17 -4.597656 C 15.515625 -4.597656 14.203125 -4.910156 13.0625 -5.539062 C 11.902344 -6.175781 11 -7.0625 10.363281 -8.207031 C 9.734375 -9.328125 9.417969 -10.597656 9.417969 -12.007812 L 9.417969 -27.710938 C 9.417969 -27.730469 9.417969 -27.742188 9.417969 -27.753906 C 9.417969 -27.746094 9.421875 -27.738281 9.425781 -27.726562 C 9.449219 -27.65625 9.488281 -27.59375 9.546875 -27.535156 C 9.605469 -27.476562 9.671875 -27.433594 9.738281 -27.410156 C 9.75 -27.40625 9.761719 -27.40625 9.765625 -27.402344 C 9.757812 -27.40625 9.742188 -27.40625 9.726562 -27.40625 L 4.371094 -27.40625 C 4.351562 -27.40625 4.339844 -27.40625 4.328125 -27.402344 C 4.335938 -27.40625 4.34375 -27.40625 4.355469 -27.410156 C 4.425781 -27.433594 4.488281 -27.476562 4.546875 -27.535156 C 4.605469 -27.59375 4.648438 -27.65625 4.671875 -27.726562 C 4.675781 -27.738281 4.675781 -27.746094 4.679688 -27.753906 C 4.675781 -27.742188 4.675781 -27.730469 4.675781 -27.710938 L 4.675781 -11.613281 C 4.675781 -9.292969 5.113281 -7.296875 5.992188 -5.621094 C 6.851562 -3.976562 8.035156 -2.714844 9.546875 -1.835938 C 11.066406 -0.949219 12.828125 -0.503906 14.828125 -0.503906 C 16.050781 -0.503906 17.234375 -0.722656 18.371094 -1.15625 C 19.523438 -1.597656 20.566406 -2.207031 21.496094 -2.984375 C 22.414062 -3.753906 23.136719 -4.617188 23.664062 -5.574219 L 25.054688 -8.089844 L 27.207031 -0.941406 L 26.050781 -0.59375 L 27.109375 -1.171875 C 27.125 -1.144531 27.136719 -1.128906 27.144531 -1.117188 C 27.136719 -1.125 27.128906 -1.132812 27.113281 -1.140625 C 27.074219 -1.167969 27.039062 -1.179688 27.007812 -1.179688 L 30.136719 -1.179688 C 30.121094 -1.175781 30.101562 -1.171875 30.082031 -1.164062 C 30.019531 -1.140625 29.96875 -1.105469 29.921875 -1.054688 C 29.859375 -0.992188 29.832031 -0.929688 29.832031 -0.875 L 29.832031 -27.742188 C 29.832031 -27.761719 29.828125 -27.777344 29.828125 -27.785156 C 29.828125 -27.78125 29.832031 -27.773438 29.835938 -27.765625 C 29.855469 -27.699219 29.894531 -27.636719 29.953125 -27.574219 C 30.015625 -27.511719 30.082031 -27.46875 30.152344 -27.441406 C 30.171875 -27.4375 30.183594 -27.433594 30.195312 -27.433594 C 30.1875 -27.433594 30.179688 -27.433594 30.164062 -27.433594 Z M 30.164062 -27.433594 "/></g></g></g><g fill="#005ea2" fill-opacity="1"><g transform="translate(69.38636, 48.054951)"><g><path d="M 19.929688 -30.527344 C 22.058594 -30.527344 24.03125 -30.121094 25.851562 -29.308594 C 27.667969 -28.5 29.25 -27.355469 30.605469 -25.878906 C 31.953125 -24.410156 32.996094 -22.6875 33.734375 -20.707031 C 34.472656 -18.738281 34.839844 -16.589844 34.839844 -14.265625 C 34.839844 -11.992188 34.46875 -9.878906 33.71875 -7.925781 C 32.96875 -5.96875 31.917969 -4.261719 30.574219 -2.800781 C 29.222656 -1.339844 27.640625 -0.195312 25.828125 0.621094 C 24.007812 1.445312 22.03125 1.855469 19.902344 1.855469 C 17.617188 1.855469 15.527344 1.355469 13.640625 0.347656 C 11.757812 -0.652344 10.191406 -2.050781 8.933594 -3.84375 L 9.921875 -4.539062 L 11.082031 -4.191406 L 9.867188 -0.144531 L 9.820312 -0.0507812 C 9.636719 0.316406 9.382812 0.617188 9.054688 0.847656 C 8.6875 1.105469 8.261719 1.238281 7.78125 1.238281 L 4.652344 1.238281 C 4.054688 1.238281 3.554688 1.035156 3.148438 0.628906 C 2.742188 0.222656 2.539062 -0.285156 2.539062 -0.902344 L 2.539062 -15.632812 L 4.632812 -13.542969 L 3.777344 -12.6875 L 2.570312 -12.6875 L 2.570312 -43.472656 C 2.570312 -44.105469 2.765625 -44.613281 3.160156 -44.996094 C 3.546875 -45.367188 4.054688 -45.554688 4.679688 -45.554688 L 10.09375 -45.554688 C 10.714844 -45.554688 11.21875 -45.359375 11.597656 -44.96875 C 11.964844 -44.589844 12.148438 -44.089844 12.148438 -43.472656 L 12.089844 -25.3125 L 10.882812 -25.316406 L 9.976562 -26.117188 C 11.21875 -27.523438 12.6875 -28.613281 14.386719 -29.378906 C 16.085938 -30.144531 17.933594 -30.527344 19.929688 -30.527344 Z M 19.929688 -28.109375 C 18.28125 -28.109375 16.765625 -27.796875 15.382812 -27.175781 C 14 -26.550781 12.800781 -25.664062 11.789062 -24.515625 L 9.664062 -22.109375 L 9.730469 -43.472656 C 9.730469 -43.488281 9.730469 -43.503906 9.726562 -43.511719 C 9.726562 -43.503906 9.730469 -43.496094 9.734375 -43.484375 C 9.757812 -43.414062 9.796875 -43.347656 9.859375 -43.285156 C 9.921875 -43.21875 9.992188 -43.175781 10.070312 -43.148438 C 10.085938 -43.140625 10.101562 -43.136719 10.113281 -43.136719 C 10.109375 -43.136719 10.105469 -43.136719 10.09375 -43.136719 L 4.679688 -43.136719 C 4.660156 -43.136719 4.644531 -43.136719 4.632812 -43.132812 C 4.636719 -43.136719 4.644531 -43.136719 4.65625 -43.140625 C 4.722656 -43.160156 4.785156 -43.203125 4.84375 -43.257812 C 4.90625 -43.320312 4.953125 -43.386719 4.976562 -43.460938 C 4.984375 -43.476562 4.984375 -43.488281 4.988281 -43.5 C 4.988281 -43.496094 4.988281 -43.484375 4.988281 -43.472656 L 4.988281 -9.769531 L 2.894531 -11.859375 L 3.75 -12.714844 L 4.957031 -12.714844 L 4.957031 -0.898438 C 4.957031 -0.914062 4.953125 -0.929688 4.945312 -0.945312 C 4.925781 -0.996094 4.898438 -1.042969 4.859375 -1.082031 C 4.792969 -1.148438 4.722656 -1.179688 4.652344 -1.179688 L 7.78125 -1.179688 C 7.75 -1.179688 7.710938 -1.164062 7.660156 -1.128906 L 7.65625 -1.132812 L 8.738281 -0.59375 L 7.582031 -0.9375 L 9.480469 -7.273438 L 10.914062 -5.234375 C 11.949219 -3.753906 13.238281 -2.605469 14.777344 -1.785156 C 16.308594 -0.96875 18.019531 -0.5625 19.902344 -0.5625 C 21.683594 -0.5625 23.328125 -0.902344 24.832031 -1.582031 C 26.347656 -2.265625 27.667969 -3.21875 28.796875 -4.441406 C 29.933594 -5.671875 30.820312 -7.121094 31.460938 -8.792969 C 32.101562 -10.464844 32.425781 -12.289062 32.425781 -14.265625 C 32.425781 -16.300781 32.105469 -18.164062 31.472656 -19.859375 C 30.839844 -21.546875 29.957031 -23.007812 28.824219 -24.246094 C 27.695312 -25.476562 26.375 -26.425781 24.867188 -27.101562 C 23.359375 -27.773438 21.714844 -28.109375 19.929688 -28.109375 Z M 18.578125 -7.582031 C 19.484375 -7.582031 20.328125 -7.75 21.117188 -8.089844 C 21.914062 -8.429688 22.621094 -8.910156 23.234375 -9.523438 C 23.847656 -10.136719 24.332031 -10.855469 24.683594 -11.671875 C 25.03125 -12.476562 25.207031 -13.351562 25.207031 -14.292969 C 25.207031 -15.257812 25.03125 -16.144531 24.683594 -16.960938 C 24.332031 -17.789062 23.851562 -18.511719 23.242188 -19.125 C 22.640625 -19.734375 21.941406 -20.210938 21.144531 -20.554688 C 20.359375 -20.894531 19.511719 -21.0625 18.605469 -21.0625 C 17.679688 -21.0625 16.8125 -20.890625 16.003906 -20.550781 C 15.1875 -20.207031 14.46875 -19.726562 13.847656 -19.113281 C 13.222656 -18.5 12.730469 -17.777344 12.371094 -16.953125 C 12.015625 -16.140625 11.835938 -15.253906 11.835938 -14.292969 C 11.835938 -13.351562 12.011719 -12.476562 12.359375 -11.671875 C 12.710938 -10.855469 13.195312 -10.144531 13.816406 -9.53125 C 14.441406 -8.914062 15.160156 -8.433594 15.976562 -8.089844 C 16.785156 -7.75 17.652344 -7.582031 18.578125 -7.582031 Z M 18.578125 -5.164062 C 17.324219 -5.164062 16.144531 -5.394531 15.035156 -5.863281 C 13.933594 -6.328125 12.960938 -6.976562 12.117188 -7.808594 C 11.273438 -8.640625 10.613281 -9.609375 10.136719 -10.714844 C 9.660156 -11.824219 9.417969 -13.019531 9.417969 -14.292969 C 9.417969 -15.589844 9.664062 -16.796875 10.15625 -17.921875 C 10.640625 -19.03125 11.304688 -20 12.148438 -20.835938 C 12.992188 -21.667969 13.960938 -22.316406 15.0625 -22.78125 C 16.171875 -23.246094 17.355469 -23.480469 18.605469 -23.480469 C 19.84375 -23.480469 21.007812 -23.246094 22.101562 -22.777344 C 23.183594 -22.308594 24.140625 -21.660156 24.964844 -20.824219 C 25.785156 -19.992188 26.433594 -19.019531 26.90625 -17.910156 C 27.386719 -16.792969 27.625 -15.585938 27.625 -14.292969 C 27.625 -13.019531 27.386719 -11.824219 26.90625 -10.714844 C 26.429688 -9.613281 25.777344 -8.648438 24.945312 -7.8125 C 24.113281 -6.980469 23.15625 -6.332031 22.074219 -5.867188 C 20.980469 -5.398438 19.816406 -5.164062 18.578125 -5.164062 Z M 18.578125 -5.164062 "/></g></g></g><g fill="#005ea2" fill-opacity="1"><g transform="translate(105.02077, 48.054951)"><g><path d="M 7.300781 -31.550781 C 6.3125 -31.550781 5.410156 -31.789062 4.59375 -32.265625 C 3.78125 -32.738281 3.132812 -33.382812 2.652344 -34.203125 C 2.164062 -35.03125 1.921875 -35.941406 1.921875 -36.929688 C 1.921875 -37.925781 2.164062 -38.832031 2.65625 -39.652344 C 3.136719 -40.457031 3.777344 -41.097656 4.582031 -41.578125 C 5.402344 -42.066406 6.308594 -42.3125 7.300781 -42.3125 C 8.3125 -42.3125 9.230469 -42.066406 10.050781 -41.578125 C 10.855469 -41.097656 11.496094 -40.457031 11.976562 -39.652344 C 12.464844 -38.832031 12.710938 -37.925781 12.710938 -36.929688 C 12.710938 -35.941406 12.46875 -35.03125 11.980469 -34.203125 C 11.496094 -33.382812 10.851562 -32.738281 10.039062 -32.265625 C 9.222656 -31.789062 8.308594 -31.550781 7.300781 -31.550781 Z M 7.300781 -33.96875 C 7.875 -33.96875 8.378906 -34.097656 8.820312 -34.351562 C 9.269531 -34.613281 9.628906 -34.972656 9.894531 -35.429688 C 10.160156 -35.878906 10.292969 -36.378906 10.292969 -36.929688 C 10.292969 -37.480469 10.164062 -37.972656 9.898438 -38.410156 C 9.628906 -38.867188 9.265625 -39.230469 8.808594 -39.5 C 8.371094 -39.765625 7.867188 -39.894531 7.300781 -39.894531 C 6.753906 -39.894531 6.261719 -39.765625 5.820312 -39.5 C 5.367188 -39.230469 5.003906 -38.867188 4.730469 -38.410156 C 4.46875 -37.972656 4.339844 -37.480469 4.339844 -36.929688 C 4.339844 -36.378906 4.46875 -35.878906 4.734375 -35.429688 C 5.003906 -34.972656 5.363281 -34.613281 5.808594 -34.351562 C 6.25 -34.097656 6.75 -33.96875 7.300781 -33.96875 Z M 10.035156 -29.851562 C 10.660156 -29.851562 11.164062 -29.660156 11.546875 -29.277344 C 11.929688 -28.898438 12.121094 -28.394531 12.121094 -27.769531 L 12.121094 -0.816406 C 12.121094 -0.195312 11.921875 0.308594 11.53125 0.683594 C 11.152344 1.054688 10.652344 1.238281 10.035156 1.238281 L 4.59375 1.238281 C 3.980469 1.238281 3.484375 1.046875 3.105469 0.671875 C 2.730469 0.292969 2.539062 -0.203125 2.539062 -0.816406 L 2.539062 -27.769531 C 2.539062 -28.386719 2.722656 -28.886719 3.09375 -29.265625 C 3.472656 -29.65625 3.972656 -29.851562 4.59375 -29.851562 Z M 10.035156 -27.433594 L 4.59375 -27.433594 C 4.582031 -27.433594 4.578125 -27.433594 4.574219 -27.433594 C 4.585938 -27.433594 4.601562 -27.4375 4.617188 -27.445312 C 4.695312 -27.472656 4.765625 -27.519531 4.828125 -27.582031 C 4.890625 -27.644531 4.929688 -27.710938 4.953125 -27.78125 C 4.957031 -27.792969 4.960938 -27.800781 4.960938 -27.808594 C 4.960938 -27.800781 4.957031 -27.785156 4.957031 -27.769531 L 4.957031 -0.816406 C 4.957031 -0.804688 4.957031 -0.796875 4.960938 -0.789062 C 4.957031 -0.800781 4.953125 -0.8125 4.949219 -0.828125 C 4.925781 -0.90625 4.878906 -0.972656 4.816406 -1.039062 C 4.75 -1.101562 4.683594 -1.148438 4.609375 -1.171875 C 4.589844 -1.175781 4.578125 -1.179688 4.566406 -1.183594 C 4.574219 -1.179688 4.582031 -1.179688 4.59375 -1.179688 L 10.035156 -1.179688 C 10.054688 -1.179688 10.066406 -1.179688 10.074219 -1.183594 C 10.070312 -1.183594 10.058594 -1.179688 10.046875 -1.175781 C 9.976562 -1.152344 9.914062 -1.113281 9.851562 -1.050781 C 9.785156 -0.988281 9.738281 -0.917969 9.710938 -0.839844 C 9.707031 -0.824219 9.703125 -0.808594 9.699219 -0.796875 C 9.699219 -0.800781 9.703125 -0.804688 9.703125 -0.816406 L 9.703125 -27.769531 C 9.703125 -27.785156 9.699219 -27.796875 9.699219 -27.804688 C 9.699219 -27.792969 9.703125 -27.785156 9.707031 -27.769531 C 9.734375 -27.699219 9.773438 -27.632812 9.835938 -27.570312 C 9.898438 -27.507812 9.964844 -27.464844 10.035156 -27.441406 C 10.050781 -27.4375 10.0625 -27.433594 10.070312 -27.433594 C 10.0625 -27.433594 10.050781 -27.433594 10.035156 -27.433594 Z M 10.035156 -27.433594 "/></g></g></g><g fill="#005ea2" fill-opacity="1"><g transform="translate(119.680495, 48.054951)"><g><path d="M 17.421875 -7.269531 C 18.074219 -7.269531 18.636719 -7.085938 19.109375 -6.71875 C 19.675781 -6.28125 19.957031 -5.703125 19.957031 -4.988281 L 19.957031 -0.480469 C 19.957031 0.238281 19.679688 0.828125 19.121094 1.285156 C 18.632812 1.6875 18.039062 1.886719 17.339844 1.886719 C 14.652344 1.886719 12.328125 1.40625 10.367188 0.453125 C 8.347656 -0.53125 6.789062 -1.992188 5.6875 -3.925781 C 4.605469 -5.832031 4.0625 -8.160156 4.0625 -10.910156 L 4.0625 -22.667969 L 5.273438 -22.667969 L 5.273438 -21.457031 L 1.972656 -21.457031 C 1.359375 -21.457031 0.859375 -21.644531 0.484375 -22.023438 C 0.105469 -22.398438 -0.0820312 -22.894531 -0.0820312 -23.511719 L -0.0820312 -27.742188 C -0.0820312 -28.359375 0.101562 -28.855469 0.46875 -29.238281 C 0.847656 -29.628906 1.351562 -29.824219 1.972656 -29.824219 L 5.273438 -29.824219 L 5.273438 -28.613281 L 4.0625 -28.613281 L 4.0625 -36.453125 C 4.0625 -36.980469 4.203125 -37.4375 4.484375 -37.8125 C 4.773438 -38.203125 5.175781 -38.46875 5.691406 -38.605469 L 5.71875 -38.613281 L 11.160156 -39.808594 L 11.191406 -39.816406 C 11.871094 -39.929688 12.429688 -39.816406 12.875 -39.484375 C 13.367188 -39.117188 13.613281 -38.574219 13.613281 -37.863281 L 13.613281 -28.613281 L 12.40625 -28.613281 L 12.40625 -29.824219 L 17.734375 -29.824219 C 18.347656 -29.824219 18.839844 -29.628906 19.214844 -29.242188 C 19.578125 -28.867188 19.757812 -28.375 19.757812 -27.769531 L 19.757812 -23.511719 C 19.757812 -22.902344 19.578125 -22.414062 19.214844 -22.039062 C 18.839844 -21.652344 18.347656 -21.457031 17.734375 -21.457031 L 12.433594 -21.457031 L 12.433594 -22.667969 L 13.640625 -22.667969 L 13.640625 -10.796875 C 13.640625 -9.566406 13.949219 -8.679688 14.566406 -8.140625 C 15.230469 -7.5625 16.183594 -7.269531 17.421875 -7.269531 Z M 17.421875 -4.851562 C 15.578125 -4.851562 14.097656 -5.339844 12.976562 -6.320312 C 11.808594 -7.339844 11.222656 -8.832031 11.222656 -10.796875 L 11.222656 -23.875 L 17.734375 -23.875 C 17.742188 -23.875 17.746094 -23.875 17.746094 -23.875 C 17.734375 -23.875 17.714844 -23.867188 17.695312 -23.863281 C 17.617188 -23.835938 17.542969 -23.785156 17.476562 -23.71875 C 17.414062 -23.652344 17.371094 -23.585938 17.347656 -23.511719 C 17.34375 -23.5 17.339844 -23.488281 17.339844 -23.480469 C 17.339844 -23.484375 17.339844 -23.496094 17.339844 -23.511719 L 17.339844 -27.769531 C 17.339844 -27.785156 17.339844 -27.796875 17.339844 -27.800781 C 17.339844 -27.792969 17.34375 -27.78125 17.347656 -27.769531 C 17.371094 -27.695312 17.414062 -27.628906 17.476562 -27.5625 C 17.542969 -27.496094 17.617188 -27.445312 17.695312 -27.417969 C 17.714844 -27.410156 17.734375 -27.40625 17.746094 -27.40625 C 17.746094 -27.40625 17.742188 -27.40625 17.734375 -27.40625 L 11.195312 -27.40625 L 11.195312 -37.863281 C 11.195312 -37.875 11.195312 -37.882812 11.195312 -37.886719 C 11.199219 -37.867188 11.203125 -37.847656 11.214844 -37.820312 C 11.253906 -37.714844 11.324219 -37.625 11.425781 -37.550781 C 11.507812 -37.488281 11.585938 -37.453125 11.667969 -37.441406 L 11.671875 -37.441406 C 11.648438 -37.4375 11.621094 -37.4375 11.589844 -37.429688 L 11.390625 -38.621094 L 11.648438 -37.441406 L 6.265625 -36.257812 L 6.003906 -37.4375 L 6.320312 -36.269531 C 6.3125 -36.269531 6.304688 -36.269531 6.304688 -36.265625 C 6.308594 -36.269531 6.316406 -36.273438 6.328125 -36.277344 C 6.363281 -36.300781 6.398438 -36.332031 6.425781 -36.371094 C 6.453125 -36.40625 6.46875 -36.441406 6.480469 -36.476562 C 6.480469 -36.484375 6.480469 -36.484375 6.484375 -36.488281 C 6.480469 -36.476562 6.480469 -36.464844 6.480469 -36.453125 L 6.480469 -27.40625 L 1.972656 -27.40625 C 1.960938 -27.40625 1.953125 -27.40625 1.953125 -27.40625 C 1.964844 -27.40625 1.980469 -27.410156 1.996094 -27.417969 C 2.074219 -27.445312 2.144531 -27.488281 2.207031 -27.554688 C 2.269531 -27.617188 2.308594 -27.683594 2.332031 -27.75 C 2.335938 -27.765625 2.335938 -27.773438 2.339844 -27.78125 C 2.335938 -27.769531 2.335938 -27.757812 2.335938 -27.742188 L 2.335938 -23.511719 C 2.335938 -23.5 2.335938 -23.488281 2.335938 -23.484375 C 2.335938 -23.496094 2.332031 -23.507812 2.328125 -23.523438 C 2.300781 -23.597656 2.257812 -23.667969 2.195312 -23.734375 C 2.128906 -23.796875 2.058594 -23.839844 1.984375 -23.867188 C 1.96875 -23.871094 1.957031 -23.875 1.945312 -23.875 C 1.949219 -23.875 1.960938 -23.875 1.972656 -23.875 L 6.480469 -23.875 L 6.480469 -10.910156 C 6.480469 -8.585938 6.917969 -6.65625 7.789062 -5.121094 C 8.644531 -3.621094 9.855469 -2.484375 11.425781 -1.722656 C 13.054688 -0.929688 15.023438 -0.53125 17.339844 -0.53125 C 17.460938 -0.53125 17.546875 -0.550781 17.585938 -0.582031 C 17.554688 -0.554688 17.539062 -0.523438 17.539062 -0.480469 L 17.539062 -4.988281 C 17.539062 -4.960938 17.546875 -4.929688 17.566406 -4.890625 C 17.585938 -4.851562 17.605469 -4.828125 17.625 -4.8125 C 17.589844 -4.839844 17.523438 -4.851562 17.421875 -4.851562 Z M 17.421875 -4.851562 "/></g></g></g><g fill="#005ea2" fill-opacity="1"><g transform="translate(141.190822, 48.054951)"><g><path d="M 7.808594 2.054688 C 6.765625 2.054688 5.808594 1.800781 4.945312 1.296875 C 4.085938 0.796875 3.402344 0.117188 2.902344 -0.742188 C 2.398438 -1.609375 2.144531 -2.554688 2.144531 -3.582031 C 2.144531 -4.628906 2.398438 -5.582031 2.90625 -6.4375 C 3.40625 -7.285156 4.085938 -7.957031 4.945312 -8.457031 C 5.808594 -8.964844 6.765625 -9.214844 7.808594 -9.214844 C 8.839844 -9.214844 9.78125 -8.960938 10.628906 -8.449219 C 11.460938 -7.953125 12.128906 -7.285156 12.636719 -6.449219 C 13.15625 -5.589844 13.414062 -4.632812 13.414062 -3.582031 C 13.414062 -2.550781 13.15625 -1.601562 12.640625 -0.734375 C 12.132812 0.117188 11.460938 0.792969 10.628906 1.289062 C 9.78125 1.800781 8.839844 2.054688 7.808594 2.054688 Z M 7.808594 -0.363281 C 8.394531 -0.363281 8.917969 -0.503906 9.386719 -0.78125 C 9.871094 -1.074219 10.261719 -1.46875 10.5625 -1.972656 C 10.851562 -2.457031 11 -2.996094 11 -3.582031 C 11 -4.183594 10.855469 -4.71875 10.566406 -5.195312 C 10.265625 -5.691406 9.871094 -6.085938 9.386719 -6.378906 C 8.917969 -6.65625 8.394531 -6.796875 7.808594 -6.796875 C 7.199219 -6.796875 6.652344 -6.65625 6.164062 -6.371094 C 5.667969 -6.082031 5.277344 -5.691406 4.988281 -5.207031 C 4.703125 -4.730469 4.5625 -4.1875 4.5625 -3.582031 C 4.5625 -2.988281 4.707031 -2.449219 4.992188 -1.960938 C 5.277344 -1.46875 5.667969 -1.078125 6.164062 -0.789062 C 6.652344 -0.503906 7.199219 -0.363281 7.808594 -0.363281 Z M 7.808594 -0.363281 "/></g></g></g></g></g></svg>