<svg xmlns="http://www.w3.org/2000/svg" xmlns:xlink="http://www.w3.org/1999/xlink" width="254" zoomAndPan="magnify" viewBox="0 0 190.5 104.249996" height="139" preserveAspectRatio="xMidYMid meet" version="1.0"><defs><g/><clipPath id="ec6f7a9d26"><rect x="0" width="157" y="0" height="58"/></clipPath></defs><g transform="matrix(1, 0, 0, 1, 17, 21)"><g clip-path="url(#ec6f7a9d26)"><g fill="#6e6e6e" fill-opacity="1"><g transform="translate(0.204858, 45.897605)"><g><path d="M 19.296875 -29.21875 C 21.523438 -29.21875 23.441406 -28.71875 25.046875 -27.71875 C 26.648438 -26.726562 27.878906 -25.3125 28.734375 -23.46875 C 29.597656 -21.632812 30.03125 -19.453125 30.03125 -16.921875 L 30.03125 -0.84375 C 30.03125 -0.257812 29.734375 0.03125 29.140625 0.03125 L 23.796875 0.03125 C 23.191406 0.03125 22.890625 -0.257812 22.890625 -0.84375 L 22.890625 -16.5 C 22.890625 -18.34375 22.410156 -19.835938 21.453125 -20.984375 C 20.492188 -22.140625 19.050781 -22.71875 17.125 -22.71875 C 15.863281 -22.71875 14.765625 -22.425781 13.828125 -21.84375 C 12.898438 -21.269531 12.175781 -20.503906 11.65625 -19.546875 C 11.144531 -18.585938 10.890625 -17.535156 10.890625 -16.390625 L 10.890625 -0.8125 C 10.890625 -0.25 10.597656 0.03125 10.015625 0.03125 L 4.578125 0.03125 C 4.015625 0.03125 3.734375 -0.25 3.734375 -0.8125 L 3.734375 -41.9375 C 3.734375 -42.5 4.015625 -42.78125 4.578125 -42.78125 L 10.015625 -42.78125 C 10.597656 -42.78125 10.890625 -42.5 10.890625 -41.9375 L 10.890625 -25 C 11.828125 -26.269531 13.035156 -27.289062 14.515625 -28.0625 C 15.992188 -28.832031 17.585938 -29.21875 19.296875 -29.21875 Z M 19.296875 -29.21875 "/></g></g><g transform="translate(33.702481, 45.897605)"><g><path d="M 30.09375 -28.578125 C 30.675781 -28.578125 30.96875 -28.273438 30.96875 -27.671875 L 30.96875 -0.875 C 30.96875 -0.613281 30.882812 -0.394531 30.71875 -0.21875 C 30.5625 -0.0507812 30.34375 0.03125 30.0625 0.03125 L 26.9375 0.03125 C 26.53125 0.03125 26.210938 -0.175781 25.984375 -0.59375 L 24.65625 -4.984375 C 24.0625 -3.890625 23.25 -2.910156 22.21875 -2.046875 C 21.1875 -1.191406 20.03125 -0.519531 18.75 -0.03125 C 17.476562 0.457031 16.160156 0.703125 14.796875 0.703125 C 12.578125 0.703125 10.613281 0.207031 8.90625 -0.78125 C 7.207031 -1.78125 5.875 -3.203125 4.90625 -5.046875 C 3.9375 -6.890625 3.453125 -9.070312 3.453125 -11.59375 L 3.453125 -27.640625 C 3.453125 -28.242188 3.753906 -28.546875 4.359375 -28.546875 L 9.703125 -28.546875 C 10.304688 -28.546875 10.609375 -28.242188 10.609375 -27.640625 L 10.609375 -11.984375 C 10.609375 -10.785156 10.867188 -9.71875 11.390625 -8.78125 C 11.910156 -7.84375 12.648438 -7.109375 13.609375 -6.578125 C 14.566406 -6.054688 15.679688 -5.796875 16.953125 -5.796875 C 18.234375 -5.796875 19.390625 -6.082031 20.421875 -6.65625 C 21.453125 -7.238281 22.273438 -8.007812 22.890625 -8.96875 C 23.503906 -9.925781 23.8125 -10.976562 23.8125 -12.125 L 23.8125 -27.671875 C 23.8125 -28.273438 24.113281 -28.578125 24.71875 -28.578125 Z M 30.09375 -28.578125 "/></g></g><g transform="translate(68.409505, 45.897605)"><g><path d="M 19.875 -29.25 C 21.832031 -29.25 23.640625 -28.878906 25.296875 -28.140625 C 26.953125 -27.398438 28.398438 -26.351562 29.640625 -25 C 30.878906 -23.644531 31.835938 -22.050781 32.515625 -20.21875 C 33.203125 -18.394531 33.546875 -16.398438 33.546875 -14.234375 C 33.546875 -12.109375 33.195312 -10.140625 32.5 -8.328125 C 31.8125 -6.523438 30.847656 -4.953125 29.609375 -3.609375 C 28.367188 -2.273438 26.921875 -1.234375 25.265625 -0.484375 C 23.609375 0.265625 21.804688 0.640625 19.859375 0.640625 C 17.773438 0.640625 15.878906 0.1875 14.171875 -0.71875 C 12.460938 -1.625 11.039062 -2.894531 9.90625 -4.53125 L 8.71875 -0.59375 C 8.625 -0.40625 8.492188 -0.253906 8.328125 -0.140625 C 8.171875 -0.0234375 7.984375 0.03125 7.765625 0.03125 L 4.640625 0.03125 C 4.378906 0.03125 4.160156 -0.0507812 3.984375 -0.21875 C 3.816406 -0.394531 3.734375 -0.625 3.734375 -0.90625 L 3.734375 -12.6875 L 3.765625 -12.65625 L 3.765625 -43.359375 C 3.765625 -43.941406 4.066406 -44.234375 4.671875 -44.234375 L 10.0625 -44.234375 C 10.625 -44.234375 10.90625 -43.941406 10.90625 -43.359375 L 10.859375 -25.25 C 11.984375 -26.53125 13.3125 -27.515625 14.84375 -28.203125 C 16.382812 -28.898438 18.0625 -29.25 19.875 -29.25 Z M 18.53125 -6.359375 C 19.601562 -6.359375 20.609375 -6.554688 21.546875 -6.953125 C 22.484375 -7.359375 23.3125 -7.921875 24.03125 -8.640625 C 24.75 -9.367188 25.3125 -10.207031 25.71875 -11.15625 C 26.132812 -12.113281 26.34375 -13.148438 26.34375 -14.265625 C 26.34375 -15.378906 26.132812 -16.421875 25.71875 -17.390625 C 25.3125 -18.359375 24.75 -19.203125 24.03125 -19.921875 C 23.320312 -20.640625 22.5 -21.203125 21.5625 -21.609375 C 20.625 -22.015625 19.625 -22.21875 18.5625 -22.21875 C 17.46875 -22.21875 16.441406 -22.015625 15.484375 -21.609375 C 14.535156 -21.203125 13.695312 -20.640625 12.96875 -19.921875 C 12.238281 -19.203125 11.660156 -18.359375 11.234375 -17.390625 C 10.816406 -16.421875 10.609375 -15.378906 10.609375 -14.265625 C 10.609375 -13.148438 10.8125 -12.113281 11.21875 -11.15625 C 11.632812 -10.207031 12.207031 -9.367188 12.9375 -8.640625 C 13.664062 -7.921875 14.507812 -7.359375 15.46875 -6.953125 C 16.425781 -6.554688 17.445312 -6.359375 18.53125 -6.359375 Z M 18.53125 -6.359375 "/></g></g><g transform="translate(103.960299, 45.897605)"><g><path d="M 7.28125 -32.671875 C 6.507812 -32.671875 5.8125 -32.851562 5.1875 -33.21875 C 4.5625 -33.59375 4.0625 -34.097656 3.6875 -34.734375 C 3.3125 -35.367188 3.125 -36.070312 3.125 -36.84375 C 3.125 -37.613281 3.3125 -38.3125 3.6875 -38.9375 C 4.0625 -39.5625 4.5625 -40.0625 5.1875 -40.4375 C 5.8125 -40.8125 6.507812 -41 7.28125 -41 C 8.070312 -41 8.78125 -40.8125 9.40625 -40.4375 C 10.03125 -40.0625 10.53125 -39.5625 10.90625 -38.9375 C 11.28125 -38.3125 11.46875 -37.613281 11.46875 -36.84375 C 11.46875 -36.070312 11.28125 -35.367188 10.90625 -34.734375 C 10.53125 -34.097656 10.03125 -33.59375 9.40625 -33.21875 C 8.78125 -32.851562 8.070312 -32.671875 7.28125 -32.671875 Z M 10.015625 -28.578125 C 10.597656 -28.578125 10.890625 -28.285156 10.890625 -27.703125 L 10.890625 -0.8125 C 10.890625 -0.25 10.597656 0.03125 10.015625 0.03125 L 4.578125 0.03125 C 4.015625 0.03125 3.734375 -0.25 3.734375 -0.8125 L 3.734375 -27.703125 C 3.734375 -28.285156 4.015625 -28.578125 4.578125 -28.578125 Z M 10.015625 -28.578125 "/></g></g><g transform="translate(118.585626, 45.897605)"><g><path d="M 17.375 -6.046875 C 17.75 -6.046875 18.0625 -5.945312 18.3125 -5.75 C 18.570312 -5.550781 18.703125 -5.296875 18.703125 -4.984375 L 18.703125 -0.484375 C 18.703125 -0.140625 18.566406 0.132812 18.296875 0.34375 C 18.035156 0.5625 17.703125 0.671875 17.296875 0.671875 C 14.804688 0.671875 12.664062 0.238281 10.875 -0.625 C 9.082031 -1.5 7.695312 -2.796875 6.71875 -4.515625 C 5.75 -6.234375 5.265625 -8.359375 5.265625 -10.890625 L 5.265625 -22.609375 L 1.96875 -22.609375 C 1.40625 -22.609375 1.125 -22.890625 1.125 -23.453125 L 1.125 -27.671875 C 1.125 -28.253906 1.40625 -28.546875 1.96875 -28.546875 L 5.265625 -28.546875 L 5.265625 -36.359375 C 5.265625 -36.890625 5.503906 -37.21875 5.984375 -37.34375 L 11.359375 -38.53125 C 12.035156 -38.644531 12.375 -38.390625 12.375 -37.765625 L 12.375 -28.546875 L 17.6875 -28.546875 C 18.226562 -28.546875 18.5 -28.265625 18.5 -27.703125 L 18.5 -23.453125 C 18.5 -22.890625 18.226562 -22.609375 17.6875 -22.609375 L 12.40625 -22.609375 L 12.40625 -10.765625 C 12.40625 -9.171875 12.847656 -7.984375 13.734375 -7.203125 C 14.628906 -6.429688 15.84375 -6.046875 17.375 -6.046875 Z M 17.375 -6.046875 "/></g></g><g transform="translate(140.045479, 45.897605)"><g><path d="M 7.796875 0.84375 C 6.960938 0.84375 6.207031 0.644531 5.53125 0.25 C 4.863281 -0.144531 4.332031 -0.675781 3.9375 -1.34375 C 3.539062 -2.019531 3.34375 -2.765625 3.34375 -3.578125 C 3.34375 -4.398438 3.539062 -5.144531 3.9375 -5.8125 C 4.332031 -6.476562 4.863281 -7.003906 5.53125 -7.390625 C 6.207031 -7.785156 6.960938 -7.984375 7.796875 -7.984375 C 8.597656 -7.984375 9.328125 -7.785156 9.984375 -7.390625 C 10.640625 -7.003906 11.164062 -6.476562 11.5625 -5.8125 C 11.96875 -5.144531 12.171875 -4.398438 12.171875 -3.578125 C 12.171875 -2.765625 11.96875 -2.019531 11.5625 -1.34375 C 11.164062 -0.675781 10.640625 -0.144531 9.984375 0.25 C 9.328125 0.644531 8.597656 0.84375 7.796875 0.84375 Z M 7.796875 0.84375 "/></g></g></g></g></g></svg>