<svg xmlns="http://www.w3.org/2000/svg" xmlns:xlink="http://www.w3.org/1999/xlink" width="118" zoomAndPan="magnify" viewBox="0 0 88.5 48" height="64" preserveAspectRatio="xMidYMid meet" version="1.0"><defs><g/></defs><g fill="#f8f7f2" fill-opacity="1"><g transform="translate(8.332043, 30.752563)"><g><path d="M 8.828125 -13.375 C 9.847656 -13.375 10.722656 -13.144531 11.453125 -12.6875 C 12.191406 -12.238281 12.757812 -11.59375 13.15625 -10.75 C 13.550781 -9.90625 13.75 -8.90625 13.75 -7.75 L 13.75 -0.390625 C 13.75 -0.117188 13.609375 0.015625 13.328125 0.015625 L 10.890625 0.015625 C 10.617188 0.015625 10.484375 -0.117188 10.484375 -0.390625 L 10.484375 -7.5625 C 10.484375 -8.394531 10.257812 -9.078125 9.8125 -9.609375 C 9.375 -10.140625 8.71875 -10.40625 7.84375 -10.40625 C 7.257812 -10.40625 6.753906 -10.269531 6.328125 -10 C 5.898438 -9.738281 5.566406 -9.382812 5.328125 -8.9375 C 5.097656 -8.5 4.984375 -8.019531 4.984375 -7.5 L 4.984375 -0.375 C 4.984375 -0.113281 4.847656 0.015625 4.578125 0.015625 L 2.09375 0.015625 C 1.84375 0.015625 1.71875 -0.113281 1.71875 -0.375 L 1.71875 -19.1875 C 1.71875 -19.445312 1.84375 -19.578125 2.09375 -19.578125 L 4.578125 -19.578125 C 4.847656 -19.578125 4.984375 -19.445312 4.984375 -19.1875 L 4.984375 -11.4375 C 5.410156 -12.019531 5.960938 -12.488281 6.640625 -12.84375 C 7.316406 -13.195312 8.046875 -13.375 8.828125 -13.375 Z M 8.828125 -13.375 "/></g></g></g><g fill="#f8f7f2" fill-opacity="1"><g transform="translate(23.653183, 30.752563)"><g><path d="M 13.765625 -13.078125 C 14.035156 -13.078125 14.171875 -12.941406 14.171875 -12.671875 L 14.171875 -0.40625 C 14.171875 -0.28125 14.132812 -0.175781 14.0625 -0.09375 C 13.988281 -0.0195312 13.890625 0.015625 13.765625 0.015625 L 12.328125 0.015625 C 12.140625 0.015625 11.992188 -0.078125 11.890625 -0.265625 L 11.28125 -2.28125 C 11.007812 -1.78125 10.632812 -1.332031 10.15625 -0.9375 C 9.6875 -0.539062 9.160156 -0.226562 8.578125 0 C 7.992188 0.21875 7.390625 0.328125 6.765625 0.328125 C 5.753906 0.328125 4.859375 0.0976562 4.078125 -0.359375 C 3.296875 -0.816406 2.679688 -1.46875 2.234375 -2.3125 C 1.796875 -3.15625 1.578125 -4.148438 1.578125 -5.296875 L 1.578125 -12.65625 C 1.578125 -12.925781 1.71875 -13.0625 2 -13.0625 L 4.4375 -13.0625 C 4.71875 -13.0625 4.859375 -12.925781 4.859375 -12.65625 L 4.859375 -5.484375 C 4.859375 -4.929688 4.976562 -4.441406 5.21875 -4.015625 C 5.457031 -3.585938 5.796875 -3.253906 6.234375 -3.015625 C 6.671875 -2.773438 7.179688 -2.65625 7.765625 -2.65625 C 8.347656 -2.65625 8.875 -2.785156 9.34375 -3.046875 C 9.8125 -3.316406 10.1875 -3.671875 10.46875 -4.109375 C 10.757812 -4.546875 10.90625 -5.023438 10.90625 -5.546875 L 10.90625 -12.671875 C 10.90625 -12.941406 11.039062 -13.078125 11.3125 -13.078125 Z M 13.765625 -13.078125 "/></g></g></g><g fill="#f8f7f2" fill-opacity="1"><g transform="translate(39.527474, 30.752563)"><g><path d="M 9.09375 -13.390625 C 9.988281 -13.390625 10.816406 -13.21875 11.578125 -12.875 C 12.335938 -12.539062 13 -12.0625 13.5625 -11.4375 C 14.132812 -10.820312 14.578125 -10.09375 14.890625 -9.25 C 15.203125 -8.414062 15.359375 -7.503906 15.359375 -6.515625 C 15.359375 -5.546875 15.195312 -4.644531 14.875 -3.8125 C 14.5625 -2.988281 14.117188 -2.269531 13.546875 -1.65625 C 12.984375 -1.039062 12.320312 -0.5625 11.5625 -0.21875 C 10.800781 0.125 9.976562 0.296875 9.09375 0.296875 C 8.132812 0.296875 7.265625 0.0859375 6.484375 -0.328125 C 5.703125 -0.742188 5.050781 -1.328125 4.53125 -2.078125 L 3.984375 -0.265625 C 3.941406 -0.179688 3.882812 -0.113281 3.8125 -0.0625 C 3.738281 -0.0078125 3.648438 0.015625 3.546875 0.015625 L 2.125 0.015625 C 2 0.015625 1.898438 -0.0195312 1.828125 -0.09375 C 1.753906 -0.175781 1.71875 -0.28125 1.71875 -0.40625 L 1.71875 -5.8125 L 1.71875 -5.796875 L 1.71875 -19.84375 C 1.71875 -20.113281 1.859375 -20.25 2.140625 -20.25 L 4.609375 -20.25 C 4.867188 -20.25 5 -20.113281 5 -19.84375 L 4.96875 -11.5625 C 5.476562 -12.144531 6.082031 -12.59375 6.78125 -12.90625 C 7.488281 -13.226562 8.257812 -13.390625 9.09375 -13.390625 Z M 8.484375 -2.90625 C 8.972656 -2.90625 9.429688 -3 9.859375 -3.1875 C 10.285156 -3.375 10.664062 -3.628906 11 -3.953125 C 11.332031 -4.285156 11.59375 -4.671875 11.78125 -5.109375 C 11.96875 -5.546875 12.0625 -6.019531 12.0625 -6.53125 C 12.0625 -7.039062 11.96875 -7.515625 11.78125 -7.953125 C 11.59375 -8.398438 11.332031 -8.785156 11 -9.109375 C 10.675781 -9.441406 10.300781 -9.703125 9.875 -9.890625 C 9.445312 -10.078125 8.988281 -10.171875 8.5 -10.171875 C 8 -10.171875 7.53125 -10.078125 7.09375 -9.890625 C 6.65625 -9.703125 6.269531 -9.441406 5.9375 -9.109375 C 5.601562 -8.785156 5.335938 -8.398438 5.140625 -7.953125 C 4.953125 -7.515625 4.859375 -7.039062 4.859375 -6.53125 C 4.859375 -6.019531 4.953125 -5.546875 5.140625 -5.109375 C 5.328125 -4.671875 5.585938 -4.285156 5.921875 -3.953125 C 6.253906 -3.628906 6.640625 -3.375 7.078125 -3.1875 C 7.515625 -3 7.984375 -2.90625 8.484375 -2.90625 Z M 8.484375 -2.90625 "/></g></g></g><g fill="#f8f7f2" fill-opacity="1"><g transform="translate(55.787687, 30.752563)"><g><path d="M 3.328125 -14.953125 C 2.984375 -14.953125 2.664062 -15.035156 2.375 -15.203125 C 2.082031 -15.367188 1.847656 -15.597656 1.671875 -15.890625 C 1.503906 -16.179688 1.421875 -16.503906 1.421875 -16.859375 C 1.421875 -17.210938 1.503906 -17.53125 1.671875 -17.8125 C 1.847656 -18.101562 2.082031 -18.332031 2.375 -18.5 C 2.664062 -18.675781 2.984375 -18.765625 3.328125 -18.765625 C 3.691406 -18.765625 4.015625 -18.675781 4.296875 -18.5 C 4.585938 -18.332031 4.816406 -18.101562 4.984375 -17.8125 C 5.160156 -17.53125 5.25 -17.210938 5.25 -16.859375 C 5.25 -16.503906 5.160156 -16.179688 4.984375 -15.890625 C 4.816406 -15.597656 4.585938 -15.367188 4.296875 -15.203125 C 4.015625 -15.035156 3.691406 -14.953125 3.328125 -14.953125 Z M 4.578125 -13.078125 C 4.847656 -13.078125 4.984375 -12.941406 4.984375 -12.671875 L 4.984375 -0.375 C 4.984375 -0.113281 4.847656 0.015625 4.578125 0.015625 L 2.09375 0.015625 C 1.84375 0.015625 1.71875 -0.113281 1.71875 -0.375 L 1.71875 -12.671875 C 1.71875 -12.941406 1.84375 -13.078125 2.09375 -13.078125 Z M 4.578125 -13.078125 "/></g></g></g><g fill="#f8f7f2" fill-opacity="1"><g transform="translate(62.477015, 30.752563)"><g><path d="M 7.953125 -2.765625 C 8.128906 -2.765625 8.273438 -2.71875 8.390625 -2.625 C 8.503906 -2.539062 8.5625 -2.425781 8.5625 -2.28125 L 8.5625 -0.21875 C 8.5625 -0.0625 8.5 0.0625 8.375 0.15625 C 8.257812 0.257812 8.109375 0.3125 7.921875 0.3125 C 6.773438 0.3125 5.789062 0.113281 4.96875 -0.28125 C 4.15625 -0.6875 3.523438 -1.28125 3.078125 -2.0625 C 2.628906 -2.851562 2.40625 -3.828125 2.40625 -4.984375 L 2.40625 -10.34375 L 0.90625 -10.34375 C 0.644531 -10.34375 0.515625 -10.472656 0.515625 -10.734375 L 0.515625 -12.671875 C 0.515625 -12.929688 0.644531 -13.0625 0.90625 -13.0625 L 2.40625 -13.0625 L 2.40625 -16.640625 C 2.40625 -16.878906 2.515625 -17.03125 2.734375 -17.09375 L 5.203125 -17.640625 C 5.503906 -17.679688 5.65625 -17.5625 5.65625 -17.28125 L 5.65625 -13.0625 L 8.09375 -13.0625 C 8.34375 -13.0625 8.46875 -12.929688 8.46875 -12.671875 L 8.46875 -10.734375 C 8.46875 -10.472656 8.34375 -10.34375 8.09375 -10.34375 L 5.671875 -10.34375 L 5.671875 -4.921875 C 5.671875 -4.191406 5.875 -3.648438 6.28125 -3.296875 C 6.695312 -2.941406 7.253906 -2.765625 7.953125 -2.765625 Z M 7.953125 -2.765625 "/></g></g></g><g fill="#f8f7f2" fill-opacity="1"><g transform="translate(72.292324, 30.752563)"><g><path d="M 3.5625 0.390625 C 3.1875 0.390625 2.84375 0.296875 2.53125 0.109375 C 2.226562 -0.0664062 1.984375 -0.304688 1.796875 -0.609375 C 1.617188 -0.921875 1.53125 -1.265625 1.53125 -1.640625 C 1.53125 -2.015625 1.617188 -2.351562 1.796875 -2.65625 C 1.984375 -2.957031 2.226562 -3.195312 2.53125 -3.375 C 2.84375 -3.5625 3.1875 -3.65625 3.5625 -3.65625 C 3.9375 -3.65625 4.269531 -3.5625 4.5625 -3.375 C 4.863281 -3.195312 5.109375 -2.957031 5.296875 -2.65625 C 5.484375 -2.351562 5.578125 -2.015625 5.578125 -1.640625 C 5.578125 -1.265625 5.484375 -0.921875 5.296875 -0.609375 C 5.109375 -0.304688 4.863281 -0.0664062 4.5625 0.109375 C 4.269531 0.296875 3.9375 0.390625 3.5625 0.390625 Z M 3.5625 0.390625 "/></g></g></g></svg>