<svg xmlns="http://www.w3.org/2000/svg" xmlns:xlink="http://www.w3.org/1999/xlink" width="1920" zoomAndPan="magnify" viewBox="0 0 1440 809.999993" height="1080" preserveAspectRatio="xMidYMid meet" version="1.0"><defs><g/><clipPath id="f4e3bdcb52"><rect x="0" width="1248" y="0" height="420"/></clipPath><clipPath id="2512ee130a"><rect x="0" width="276" y="0" height="420"/></clipPath><clipPath id="0a856e7026"><rect x="0" width="283" y="0" height="443"/></clipPath><clipPath id="e6b47a6716"><rect x="0" width="115" y="0" height="420"/></clipPath><clipPath id="f516ddd8bf"><rect x="0" width="168" y="0" height="420"/></clipPath><clipPath id="d8ab17290b"><rect x="0" width="122" y="0" height="420"/></clipPath></defs><g transform="matrix(1, 0, 0, 1, 139, 192)"><g clip-path="url(#f4e3bdcb52)"><g fill="#000000" fill-opacity="1"><g transform="translate(0.487944, 333.945711)"><g><path d="M 149.84375 -226.9375 C 167.164062 -226.9375 182.050781 -223.078125 194.5 -215.359375 C 206.957031 -207.640625 216.535156 -196.644531 223.234375 -182.375 C 229.929688 -168.113281 233.28125 -151.148438 233.28125 -131.484375 L 233.28125 -6.546875 C 233.28125 -2.035156 230.945312 0.21875 226.28125 0.21875 L 184.78125 0.21875 C 180.125 0.21875 177.796875 -2.035156 177.796875 -6.546875 L 177.796875 -128.21875 C 177.796875 -142.488281 174.082031 -154.097656 166.65625 -163.046875 C 159.226562 -172.003906 148.015625 -176.484375 133.015625 -176.484375 C 123.265625 -176.484375 114.75 -174.222656 107.46875 -169.703125 C 100.1875 -165.191406 94.539062 -159.222656 90.53125 -151.796875 C 86.53125 -144.367188 84.53125 -136.21875 84.53125 -127.34375 L 84.53125 -6.328125 C 84.53125 -1.960938 82.273438 0.21875 77.765625 0.21875 L 35.609375 0.21875 C 31.234375 0.21875 29.046875 -1.960938 29.046875 -6.328125 L 29.046875 -325.671875 C 29.046875 -330.035156 31.234375 -332.21875 35.609375 -332.21875 L 77.765625 -332.21875 C 82.273438 -332.21875 84.53125 -330.035156 84.53125 -325.671875 L 84.53125 -194.171875 C 91.8125 -204.078125 101.203125 -212.015625 112.703125 -217.984375 C 124.210938 -223.953125 136.59375 -226.9375 149.84375 -226.9375 Z M 149.84375 -226.9375 "/></g></g></g><g fill="#000000" fill-opacity="1"><g transform="translate(260.631294, 333.945711)"><g/></g></g><g fill="#000000" fill-opacity="1"><g transform="translate(401.291, 333.945711)"><g/></g></g><g fill="#000000" fill-opacity="1"><g transform="translate(541.950706, 333.945711)"><g/></g></g><g fill="#000000" fill-opacity="1"><g transform="translate(682.610412, 333.945711)"><g/></g></g><g fill="#000000" fill-opacity="1"><g transform="translate(823.270119, 333.945711)"><g/></g></g><g fill="#000000" fill-opacity="1"><g transform="translate(963.929825, 333.945711)"><g/></g></g><g fill="#000000" fill-opacity="1"><g transform="translate(1104.589531, 333.945711)"><g/></g></g></g></g><g transform="matrix(1, 0, 0, 1, 397, 193)"><g clip-path="url(#2512ee130a)"><g fill="#000000" fill-opacity="1"><g transform="translate(1.031168, 328.17983)"><g><path d="M 233.6875 -221.90625 C 238.207031 -221.90625 240.46875 -219.570312 240.46875 -214.90625 L 240.46875 -6.765625 C 240.46875 -4.734375 239.847656 -3.0625 238.609375 -1.75 C 237.367188 -0.4375 235.660156 0.21875 233.484375 0.21875 L 209.234375 0.21875 C 206.023438 0.21875 203.550781 -1.382812 201.8125 -4.59375 L 191.546875 -38.65625 C 186.878906 -30.207031 180.539062 -22.632812 172.53125 -15.9375 C 164.53125 -9.238281 155.578125 -4 145.671875 -0.21875 C 135.773438 3.5625 125.507812 5.453125 114.875 5.453125 C 97.695312 5.453125 82.484375 1.597656 69.234375 -6.109375 C 55.984375 -13.828125 45.609375 -24.859375 38.109375 -39.203125 C 30.609375 -53.546875 26.859375 -70.472656 26.859375 -89.984375 L 26.859375 -214.6875 C 26.859375 -219.351562 29.191406 -221.6875 33.859375 -221.6875 L 75.34375 -221.6875 C 80.007812 -221.6875 82.34375 -219.351562 82.34375 -214.6875 L 82.34375 -93.046875 C 82.34375 -83.722656 84.378906 -75.421875 88.453125 -68.140625 C 92.523438 -60.859375 98.273438 -55.175781 105.703125 -51.09375 C 113.128906 -47.019531 121.796875 -44.984375 131.703125 -44.984375 C 141.597656 -44.984375 150.550781 -47.238281 158.5625 -51.75 C 166.570312 -56.269531 172.976562 -62.242188 177.78125 -69.671875 C 182.582031 -77.097656 184.984375 -85.253906 184.984375 -94.140625 L 184.984375 -214.90625 C 184.984375 -219.570312 187.316406 -221.90625 191.984375 -221.90625 Z M 233.6875 -221.90625 "/></g></g></g></g></g><g transform="matrix(1, 0, 0, 1, 667, 168)"><g clip-path="url(#0a856e7026)"><g fill="#2f6d88" fill-opacity="1"><g transform="translate(0.543742, 351.226504)"><g><path d="M 154.40625 -227.140625 C 169.550781 -227.140625 183.566406 -224.265625 196.453125 -218.515625 C 209.335938 -212.765625 220.582031 -204.644531 230.1875 -194.15625 C 239.800781 -183.675781 247.265625 -171.335938 252.578125 -157.140625 C 257.898438 -142.941406 260.5625 -127.398438 260.5625 -110.515625 C 260.5625 -94.054688 257.863281 -78.800781 252.46875 -64.75 C 247.082031 -50.707031 239.582031 -38.476562 229.96875 -28.0625 C 220.363281 -17.65625 209.117188 -9.539062 196.234375 -3.71875 C 183.347656 2.101562 169.332031 5.015625 154.1875 5.015625 C 138.03125 5.015625 123.328125 1.488281 110.078125 -5.5625 C 96.828125 -12.625 85.757812 -22.488281 76.875 -35.15625 L 67.703125 -4.59375 C 66.972656 -3.132812 65.988281 -1.96875 64.75 -1.09375 C 63.519531 -0.21875 62.03125 0.21875 60.28125 0.21875 L 36.03125 0.21875 C 34 0.21875 32.328125 -0.4375 31.015625 -1.75 C 29.703125 -3.0625 29.046875 -4.804688 29.046875 -6.984375 L 29.046875 -98.5 L 29.265625 -98.28125 L 29.265625 -336.78125 C 29.265625 -341.289062 31.59375 -343.546875 36.25 -343.546875 L 78.1875 -343.546875 C 82.550781 -343.546875 84.734375 -341.289062 84.734375 -336.78125 L 84.3125 -196.125 C 93.039062 -206.03125 103.375 -213.675781 115.3125 -219.0625 C 127.257812 -224.445312 140.289062 -227.140625 154.40625 -227.140625 Z M 143.9375 -49.359375 C 152.226562 -49.359375 160.015625 -50.921875 167.296875 -54.046875 C 174.578125 -57.179688 181.019531 -61.550781 186.625 -67.15625 C 192.226562 -72.757812 196.628906 -79.273438 199.828125 -86.703125 C 203.035156 -94.128906 204.640625 -102.140625 204.640625 -110.734375 C 204.640625 -119.472656 203.035156 -127.585938 199.828125 -135.078125 C 196.628906 -142.578125 192.265625 -149.128906 186.734375 -154.734375 C 181.203125 -160.347656 174.796875 -164.71875 167.515625 -167.84375 C 160.234375 -170.976562 152.441406 -172.546875 144.140625 -172.546875 C 135.703125 -172.546875 127.769531 -170.976562 120.34375 -167.84375 C 112.914062 -164.71875 106.363281 -160.347656 100.6875 -154.734375 C 95.007812 -149.128906 90.53125 -142.578125 87.25 -135.078125 C 83.976562 -127.585938 82.34375 -119.472656 82.34375 -110.734375 C 82.34375 -102.140625 83.941406 -94.128906 87.140625 -86.703125 C 90.347656 -79.273438 94.789062 -72.757812 100.46875 -67.15625 C 106.144531 -61.550781 112.695312 -57.179688 120.125 -54.046875 C 127.550781 -50.921875 135.488281 -49.359375 143.9375 -49.359375 Z M 143.9375 -49.359375 "/></g></g></g></g></g><g transform="matrix(1, 0, 0, 1, 943, 191)"><g clip-path="url(#e6b47a6716)"><g fill="#2f6d88" fill-opacity="1"><g transform="translate(0.66531, 328.226504)"><g><path d="M 56.5625 -253.78125 C 50.59375 -253.78125 45.171875 -255.203125 40.296875 -258.046875 C 35.421875 -260.890625 31.523438 -264.785156 28.609375 -269.734375 C 25.703125 -274.679688 24.25 -280.140625 24.25 -286.109375 C 24.25 -292.078125 25.703125 -297.5 28.609375 -302.375 C 31.523438 -307.257812 35.421875 -311.15625 40.296875 -314.0625 C 45.171875 -316.976562 50.59375 -318.4375 56.5625 -318.4375 C 62.675781 -318.4375 68.171875 -316.976562 73.046875 -314.0625 C 77.929688 -311.15625 81.828125 -307.257812 84.734375 -302.375 C 87.648438 -297.5 89.109375 -292.078125 89.109375 -286.109375 C 89.109375 -280.140625 87.648438 -274.679688 84.734375 -269.734375 C 81.828125 -264.785156 77.929688 -260.890625 73.046875 -258.046875 C 68.171875 -255.203125 62.675781 -253.78125 56.5625 -253.78125 Z M 77.75 -221.90625 C 82.257812 -221.90625 84.515625 -219.644531 84.515625 -215.125 L 84.515625 -6.328125 C 84.515625 -1.960938 82.257812 0.21875 77.75 0.21875 L 35.59375 0.21875 C 31.226562 0.21875 29.046875 -1.960938 29.046875 -6.328125 L 29.046875 -215.125 C 29.046875 -219.644531 31.226562 -221.90625 35.59375 -221.90625 Z M 77.75 -221.90625 "/></g></g></g></g></g><g transform="matrix(1, 0, 0, 1, 1057, 191)"><g clip-path="url(#f516ddd8bf)"><g fill="#2f6d88" fill-opacity="1"><g transform="translate(0.339055, 328.226504)"><g><path d="M 134.96875 -46.953125 C 137.882812 -46.953125 140.320312 -46.1875 142.28125 -44.65625 C 144.25 -43.132812 145.234375 -41.132812 145.234375 -38.65625 L 145.234375 -3.71875 C 145.234375 -1.09375 144.210938 1.050781 142.171875 2.71875 C 140.140625 4.394531 137.519531 5.234375 134.3125 5.234375 C 114.945312 5.234375 98.3125 1.851562 84.40625 -4.90625 C 70.507812 -11.675781 59.773438 -21.722656 52.203125 -35.046875 C 44.628906 -48.367188 40.84375 -64.859375 40.84375 -84.515625 L 40.84375 -175.59375 L 15.28125 -175.59375 C 10.914062 -175.59375 8.734375 -177.78125 8.734375 -182.15625 L 8.734375 -214.90625 C 8.734375 -219.425781 10.914062 -221.6875 15.28125 -221.6875 L 40.84375 -221.6875 L 40.84375 -282.40625 C 40.84375 -286.476562 42.734375 -289.023438 46.515625 -290.046875 L 88.234375 -299.21875 C 93.472656 -300.09375 96.09375 -298.125 96.09375 -293.3125 L 96.09375 -221.6875 L 137.375 -221.6875 C 141.601562 -221.6875 143.71875 -219.5 143.71875 -215.125 L 143.71875 -182.15625 C 143.71875 -177.78125 141.601562 -175.59375 137.375 -175.59375 L 96.3125 -175.59375 L 96.3125 -83.65625 C 96.3125 -71.269531 99.769531 -62.054688 106.6875 -56.015625 C 113.601562 -49.972656 123.03125 -46.953125 134.96875 -46.953125 Z M 134.96875 -46.953125 "/></g></g></g></g></g><g transform="matrix(1, 0, 0, 1, 1224, 191)"><g clip-path="url(#d8ab17290b)"><g fill="#2f6d88" fill-opacity="1"><g transform="translate(0.0164681, 328.226504)"><g><path d="M 60.5 6.546875 C 54.09375 6.546875 48.265625 5.015625 43.015625 1.953125 C 37.773438 -1.097656 33.625 -5.242188 30.5625 -10.484375 C 27.507812 -15.722656 25.984375 -21.472656 25.984375 -27.734375 C 25.984375 -34.140625 27.507812 -39.925781 30.5625 -45.09375 C 33.625 -50.269531 37.773438 -54.382812 43.015625 -57.4375 C 48.265625 -60.5 54.09375 -62.03125 60.5 -62.03125 C 66.757812 -62.03125 72.4375 -60.5 77.53125 -57.4375 C 82.625 -54.382812 86.734375 -50.269531 89.859375 -45.09375 C 92.992188 -39.925781 94.5625 -34.140625 94.5625 -27.734375 C 94.5625 -21.472656 92.992188 -15.722656 89.859375 -10.484375 C 86.734375 -5.242188 82.625 -1.097656 77.53125 1.953125 C 72.4375 5.015625 66.757812 6.546875 60.5 6.546875 Z M 60.5 6.546875 "/></g></g></g></g></g></svg>