<svg xmlns="http://www.w3.org/2000/svg" xmlns:xlink="http://www.w3.org/1999/xlink" width="385" zoomAndPan="magnify" viewBox="0 0 288.75 95.249998" height="127" preserveAspectRatio="xMidYMid meet" version="1.0"><defs><g/><clipPath id="341e2fb1d4"><path d="M 66 0.242188 L 94 0.242188 L 94 42 L 66 42 Z M 66 0.242188 " clip-rule="nonzero"/></clipPath><clipPath id="500605a827"><path d="M 201 0.242188 L 230 0.242188 L 230 42 L 201 42 Z M 201 0.242188 " clip-rule="nonzero"/></clipPath><clipPath id="6848d30549"><rect x="0" width="257" y="0" height="52"/></clipPath></defs><g transform="matrix(1, 0, 0, 1, 16, 20)"><g clip-path="url(#6848d30549)"><g fill="#000000" fill-opacity="1"><g transform="translate(0.346704, 41.160301)"><g><path d="M 17.640625 -26.734375 C 19.679688 -26.734375 21.4375 -26.273438 22.90625 -25.359375 C 24.375 -24.453125 25.5 -23.15625 26.28125 -21.46875 C 27.070312 -19.789062 27.46875 -17.796875 27.46875 -15.484375 L 27.46875 -0.765625 C 27.46875 -0.234375 27.195312 0.03125 26.65625 0.03125 L 21.765625 0.03125 C 21.210938 0.03125 20.9375 -0.234375 20.9375 -0.765625 L 20.9375 -15.09375 C 20.9375 -16.78125 20.5 -18.148438 19.625 -19.203125 C 18.75 -20.253906 17.429688 -20.78125 15.671875 -20.78125 C 14.515625 -20.78125 13.507812 -20.515625 12.65625 -19.984375 C 11.800781 -19.453125 11.132812 -18.75 10.65625 -17.875 C 10.1875 -17 9.953125 -16.039062 9.953125 -15 L 9.953125 -0.75 C 9.953125 -0.226562 9.6875 0.03125 9.15625 0.03125 L 4.1875 0.03125 C 3.675781 0.03125 3.421875 -0.226562 3.421875 -0.75 L 3.421875 -38.359375 C 3.421875 -38.867188 3.675781 -39.125 4.1875 -39.125 L 9.15625 -39.125 C 9.6875 -39.125 9.953125 -38.867188 9.953125 -38.359375 L 9.953125 -22.875 C 10.816406 -24.039062 11.925781 -24.972656 13.28125 -25.671875 C 14.632812 -26.378906 16.085938 -26.734375 17.640625 -26.734375 Z M 17.640625 -26.734375 "/></g></g></g><g fill="#000000" fill-opacity="1"><g transform="translate(30.990604, 41.160301)"><g><path d="M 27.53125 -26.140625 C 28.0625 -26.140625 28.328125 -25.863281 28.328125 -25.3125 L 28.328125 -0.796875 C 28.328125 -0.554688 28.253906 -0.359375 28.109375 -0.203125 C 27.960938 -0.046875 27.757812 0.03125 27.5 0.03125 L 24.640625 0.03125 C 24.265625 0.03125 23.972656 -0.160156 23.765625 -0.546875 L 22.5625 -4.546875 C 22.007812 -3.554688 21.257812 -2.664062 20.3125 -1.875 C 19.375 -1.082031 18.320312 -0.460938 17.15625 -0.015625 C 15.988281 0.421875 14.78125 0.640625 13.53125 0.640625 C 11.507812 0.640625 9.71875 0.1875 8.15625 -0.71875 C 6.59375 -1.625 5.367188 -2.921875 4.484375 -4.609375 C 3.609375 -6.304688 3.171875 -8.300781 3.171875 -10.59375 L 3.171875 -25.28125 C 3.171875 -25.832031 3.441406 -26.109375 3.984375 -26.109375 L 8.875 -26.109375 C 9.425781 -26.109375 9.703125 -25.832031 9.703125 -25.28125 L 9.703125 -10.953125 C 9.703125 -9.859375 9.941406 -8.878906 10.421875 -8.015625 C 10.898438 -7.160156 11.578125 -6.492188 12.453125 -6.015625 C 13.328125 -5.535156 14.347656 -5.296875 15.515625 -5.296875 C 16.679688 -5.296875 17.734375 -5.5625 18.671875 -6.09375 C 19.617188 -6.625 20.375 -7.328125 20.9375 -8.203125 C 21.507812 -9.078125 21.796875 -10.039062 21.796875 -11.09375 L 21.796875 -25.3125 C 21.796875 -25.863281 22.066406 -26.140625 22.609375 -26.140625 Z M 27.53125 -26.140625 "/></g></g></g><g clip-path="url(#341e2fb1d4)"><g fill="#000000" fill-opacity="1"><g transform="translate(62.74087, 41.160301)"><g><path d="M 18.1875 -26.75 C 19.96875 -26.75 21.617188 -26.410156 23.140625 -25.734375 C 24.660156 -25.054688 25.984375 -24.097656 27.109375 -22.859375 C 28.242188 -21.628906 29.125 -20.175781 29.75 -18.5 C 30.375 -16.832031 30.6875 -15.003906 30.6875 -13.015625 C 30.6875 -11.078125 30.367188 -9.28125 29.734375 -7.625 C 29.097656 -5.96875 28.210938 -4.523438 27.078125 -3.296875 C 25.953125 -2.078125 24.628906 -1.125 23.109375 -0.4375 C 21.597656 0.25 19.945312 0.59375 18.15625 0.59375 C 16.257812 0.59375 14.53125 0.175781 12.96875 -0.65625 C 11.40625 -1.488281 10.101562 -2.648438 9.0625 -4.140625 L 7.96875 -0.546875 C 7.882812 -0.367188 7.769531 -0.226562 7.625 -0.125 C 7.476562 -0.0195312 7.300781 0.03125 7.09375 0.03125 L 4.25 0.03125 C 4.007812 0.03125 3.8125 -0.046875 3.65625 -0.203125 C 3.5 -0.359375 3.421875 -0.566406 3.421875 -0.828125 L 3.421875 -11.609375 L 3.453125 -11.578125 L 3.453125 -39.671875 C 3.453125 -40.203125 3.722656 -40.46875 4.265625 -40.46875 L 9.203125 -40.46875 C 9.722656 -40.46875 9.984375 -40.203125 9.984375 -39.671875 L 9.9375 -23.109375 C 10.957031 -24.273438 12.171875 -25.171875 13.578125 -25.796875 C 14.984375 -26.429688 16.519531 -26.75 18.1875 -26.75 Z M 16.953125 -5.8125 C 17.929688 -5.8125 18.847656 -5.992188 19.703125 -6.359375 C 20.566406 -6.734375 21.328125 -7.25 21.984375 -7.90625 C 22.640625 -8.570312 23.15625 -9.34375 23.53125 -10.21875 C 23.914062 -11.09375 24.109375 -12.035156 24.109375 -13.046875 C 24.109375 -14.078125 23.914062 -15.03125 23.53125 -15.90625 C 23.15625 -16.789062 22.640625 -17.5625 21.984375 -18.21875 C 21.335938 -18.882812 20.585938 -19.398438 19.734375 -19.765625 C 18.878906 -20.140625 17.960938 -20.328125 16.984375 -20.328125 C 15.984375 -20.328125 15.046875 -20.140625 14.171875 -19.765625 C 13.296875 -19.398438 12.523438 -18.882812 11.859375 -18.21875 C 11.191406 -17.5625 10.664062 -16.789062 10.28125 -15.90625 C 9.894531 -15.03125 9.703125 -14.078125 9.703125 -13.046875 C 9.703125 -12.035156 9.890625 -11.09375 10.265625 -10.21875 C 10.640625 -9.34375 11.160156 -8.570312 11.828125 -7.90625 C 12.503906 -7.25 13.28125 -6.734375 14.15625 -6.359375 C 15.03125 -5.992188 15.960938 -5.8125 16.953125 -5.8125 Z M 16.953125 -5.8125 "/></g></g></g></g><g fill="#2f6d88" fill-opacity="1"><g transform="translate(95.272752, 41.160301)"><g><path d="M 15.90625 -5.53125 C 16.238281 -5.53125 16.519531 -5.4375 16.75 -5.25 C 16.988281 -5.070312 17.109375 -4.835938 17.109375 -4.546875 L 17.109375 -0.4375 C 17.109375 -0.125 16.988281 0.128906 16.75 0.328125 C 16.507812 0.523438 16.203125 0.625 15.828125 0.625 C 13.546875 0.625 11.582031 0.222656 9.9375 -0.578125 C 8.300781 -1.378906 7.035156 -2.5625 6.140625 -4.125 C 5.253906 -5.695312 4.8125 -7.640625 4.8125 -9.953125 L 4.8125 -20.6875 L 1.796875 -20.6875 C 1.285156 -20.6875 1.03125 -20.941406 1.03125 -21.453125 L 1.03125 -25.3125 C 1.03125 -25.84375 1.285156 -26.109375 1.796875 -26.109375 L 4.8125 -26.109375 L 4.8125 -33.265625 C 4.8125 -33.742188 5.035156 -34.046875 5.484375 -34.171875 L 10.390625 -35.25 C 11.003906 -35.351562 11.3125 -35.117188 11.3125 -34.546875 L 11.3125 -26.109375 L 16.1875 -26.109375 C 16.675781 -26.109375 16.921875 -25.851562 16.921875 -25.34375 L 16.921875 -21.453125 C 16.921875 -20.941406 16.675781 -20.6875 16.1875 -20.6875 L 11.34375 -20.6875 L 11.34375 -9.859375 C 11.34375 -8.398438 11.75 -7.3125 12.5625 -6.59375 C 13.382812 -5.882812 14.5 -5.53125 15.90625 -5.53125 Z M 15.90625 -5.53125 "/></g></g></g><g fill="#2f6d88" fill-opacity="1"><g transform="translate(114.904405, 41.160301)"><g><path d="M 23.234375 -24.3125 C 23.390625 -24.1875 23.484375 -24.015625 23.515625 -23.796875 C 23.546875 -23.578125 23.484375 -23.347656 23.328125 -23.109375 L 21.21875 -19.703125 C 21.050781 -19.453125 20.859375 -19.300781 20.640625 -19.25 C 20.429688 -19.207031 20.222656 -19.273438 20.015625 -19.453125 C 19.429688 -19.941406 18.796875 -20.332031 18.109375 -20.625 C 17.421875 -20.914062 16.785156 -21.0625 16.203125 -21.0625 C 15.023438 -21.0625 13.960938 -20.753906 13.015625 -20.140625 C 12.078125 -19.523438 11.332031 -18.703125 10.78125 -17.671875 C 10.226562 -16.640625 9.953125 -15.515625 9.953125 -14.296875 L 9.953125 -0.765625 C 9.953125 -0.234375 9.6875 0.03125 9.15625 0.03125 L 4.21875 0.03125 C 3.6875 0.03125 3.421875 -0.234375 3.421875 -0.765625 L 3.421875 -25.28125 C 3.421875 -25.539062 3.5 -25.75 3.65625 -25.90625 C 3.8125 -26.0625 4.007812 -26.140625 4.25 -26.140625 L 7.09375 -26.140625 C 7.300781 -26.140625 7.476562 -26.085938 7.625 -25.984375 C 7.769531 -25.878906 7.882812 -25.742188 7.96875 -25.578125 L 9.109375 -21.8125 C 9.671875 -22.789062 10.375 -23.648438 11.21875 -24.390625 C 12.0625 -25.128906 12.976562 -25.703125 13.96875 -26.109375 C 14.96875 -26.523438 15.976562 -26.734375 17 -26.734375 C 18.03125 -26.734375 19.101562 -26.515625 20.21875 -26.078125 C 21.332031 -25.640625 22.335938 -25.050781 23.234375 -24.3125 Z M 23.234375 -24.3125 "/></g></g></g><g fill="#2f6d88" fill-opacity="1"><g transform="translate(138.009531, 41.160301)"><g><path d="M 28.34375 -14.296875 C 28.34375 -13.578125 28.191406 -12.882812 27.890625 -12.21875 C 27.597656 -11.550781 27.195312 -11.003906 26.6875 -10.578125 C 26.1875 -10.148438 25.617188 -9.9375 24.984375 -9.9375 L 8.90625 -9.9375 C 9.226562 -9.09375 9.726562 -8.335938 10.40625 -7.671875 C 11.082031 -7.015625 11.890625 -6.5 12.828125 -6.125 C 13.773438 -5.75 14.800781 -5.5625 15.90625 -5.5625 C 16.394531 -5.5625 16.945312 -5.644531 17.5625 -5.8125 C 18.1875 -5.988281 18.816406 -6.222656 19.453125 -6.515625 C 20.085938 -6.816406 20.660156 -7.15625 21.171875 -7.53125 C 21.359375 -7.6875 21.578125 -7.742188 21.828125 -7.703125 C 22.078125 -7.660156 22.28125 -7.546875 22.4375 -7.359375 L 25.0625 -3.90625 C 25.195312 -3.707031 25.253906 -3.484375 25.234375 -3.234375 C 25.222656 -2.992188 25.117188 -2.789062 24.921875 -2.625 C 24.191406 -2.007812 23.289062 -1.453125 22.21875 -0.953125 C 21.15625 -0.453125 20.050781 -0.0625 18.90625 0.21875 C 17.769531 0.5 16.707031 0.640625 15.71875 0.640625 C 13.757812 0.640625 11.941406 0.289062 10.265625 -0.40625 C 8.585938 -1.113281 7.117188 -2.085938 5.859375 -3.328125 C 4.597656 -4.578125 3.609375 -6.023438 2.890625 -7.671875 C 2.179688 -9.328125 1.828125 -11.109375 1.828125 -13.015625 C 1.828125 -14.941406 2.171875 -16.726562 2.859375 -18.375 C 3.554688 -20.03125 4.519531 -21.484375 5.75 -22.734375 C 6.988281 -23.992188 8.425781 -24.972656 10.0625 -25.671875 C 11.707031 -26.378906 13.484375 -26.734375 15.390625 -26.734375 C 17.203125 -26.734375 18.890625 -26.414062 20.453125 -25.78125 C 22.023438 -25.144531 23.40625 -24.257812 24.59375 -23.125 C 25.78125 -22 26.703125 -20.679688 27.359375 -19.171875 C 28.015625 -17.671875 28.34375 -16.046875 28.34375 -14.296875 Z M 15.234375 -20.609375 C 14.222656 -20.609375 13.28125 -20.40625 12.40625 -20 C 11.539062 -19.59375 10.800781 -19.035156 10.1875 -18.328125 C 9.570312 -17.617188 9.117188 -16.800781 8.828125 -15.875 L 21.84375 -15.875 C 21.582031 -16.800781 21.128906 -17.617188 20.484375 -18.328125 C 19.847656 -19.035156 19.078125 -19.59375 18.171875 -20 C 17.273438 -20.40625 16.296875 -20.609375 15.234375 -20.609375 Z M 15.234375 -20.609375 "/></g></g></g><g fill="#2f6d88" fill-opacity="1"><g transform="translate(168.164565, 41.160301)"><g><path d="M 18.234375 -26.75 C 20.265625 -26.75 22.054688 -26.296875 23.609375 -25.390625 C 25.160156 -24.484375 26.375 -23.1875 27.25 -21.5 C 28.132812 -19.820312 28.578125 -17.828125 28.578125 -15.515625 L 28.578125 -0.796875 C 28.578125 -0.265625 28.3125 0 27.78125 0 L 22.875 0 C 22.34375 0 22.078125 -0.265625 22.078125 -0.796875 L 22.078125 -15.125 C 22.078125 -16.238281 21.832031 -17.21875 21.34375 -18.0625 C 20.863281 -18.914062 20.1875 -19.585938 19.3125 -20.078125 C 18.445312 -20.566406 17.421875 -20.8125 16.234375 -20.8125 C 15.085938 -20.8125 14.035156 -20.546875 13.078125 -20.015625 C 12.128906 -19.484375 11.367188 -18.78125 10.796875 -17.90625 C 10.234375 -17.03125 9.953125 -16.070312 9.953125 -15.03125 L 9.953125 -0.765625 C 9.953125 -0.234375 9.6875 0.03125 9.15625 0.03125 L 4.21875 0.03125 C 3.6875 0.03125 3.421875 -0.234375 3.421875 -0.765625 L 3.421875 -25.28125 C 3.421875 -25.539062 3.5 -25.75 3.65625 -25.90625 C 3.8125 -26.0625 4.007812 -26.140625 4.25 -26.140625 L 7.09375 -26.140625 C 7.300781 -26.140625 7.476562 -26.085938 7.625 -25.984375 C 7.769531 -25.878906 7.882812 -25.742188 7.96875 -25.578125 L 9.1875 -21.53125 C 9.75 -22.539062 10.5 -23.441406 11.4375 -24.234375 C 12.375 -25.023438 13.425781 -25.640625 14.59375 -26.078125 C 15.769531 -26.523438 16.984375 -26.75 18.234375 -26.75 Z M 18.234375 -26.75 "/></g></g></g><g clip-path="url(#500605a827)"><g fill="#2f6d88" fill-opacity="1"><g transform="translate(199.914831, 41.160301)"><g><path d="M 29.078125 -11.578125 L 29.09375 -11.609375 L 29.09375 -0.828125 C 29.09375 -0.253906 28.816406 0.03125 28.265625 0.03125 L 25.421875 0.03125 C 25.210938 0.03125 25.035156 -0.0195312 24.890625 -0.125 C 24.742188 -0.226562 24.628906 -0.367188 24.546875 -0.546875 L 23.46875 -4.140625 C 22.414062 -2.648438 21.109375 -1.488281 19.546875 -0.65625 C 17.984375 0.175781 16.253906 0.59375 14.359375 0.59375 C 12.578125 0.59375 10.925781 0.25 9.40625 -0.4375 C 7.882812 -1.125 6.554688 -2.078125 5.421875 -3.296875 C 4.296875 -4.523438 3.414062 -5.96875 2.78125 -7.625 C 2.144531 -9.28125 1.828125 -11.078125 1.828125 -13.015625 C 1.828125 -15.003906 2.140625 -16.832031 2.765625 -18.5 C 3.390625 -20.175781 4.265625 -21.628906 5.390625 -22.859375 C 6.523438 -24.097656 7.851562 -25.054688 9.375 -25.734375 C 10.894531 -26.410156 12.546875 -26.75 14.328125 -26.75 C 15.992188 -26.75 17.53125 -26.429688 18.9375 -25.796875 C 20.34375 -25.171875 21.5625 -24.273438 22.59375 -23.109375 L 22.53125 -39.671875 C 22.53125 -40.203125 22.789062 -40.46875 23.3125 -40.46875 L 28.25 -40.46875 C 28.800781 -40.46875 29.078125 -40.203125 29.078125 -39.671875 Z M 15.5625 -5.8125 C 16.5625 -5.8125 17.5 -5.992188 18.375 -6.359375 C 19.25 -6.734375 20.019531 -7.25 20.6875 -7.90625 C 21.351562 -8.570312 21.875 -9.34375 22.25 -10.21875 C 22.625 -11.09375 22.8125 -12.035156 22.8125 -13.046875 C 22.8125 -14.078125 22.617188 -15.03125 22.234375 -15.90625 C 21.847656 -16.789062 21.320312 -17.5625 20.65625 -18.21875 C 19.988281 -18.882812 19.21875 -19.398438 18.34375 -19.765625 C 17.46875 -20.140625 16.53125 -20.328125 15.53125 -20.328125 C 14.5625 -20.328125 13.644531 -20.140625 12.78125 -19.765625 C 11.925781 -19.398438 11.171875 -18.882812 10.515625 -18.21875 C 9.867188 -17.5625 9.351562 -16.789062 8.96875 -15.90625 C 8.59375 -15.03125 8.40625 -14.078125 8.40625 -13.046875 C 8.40625 -12.035156 8.59375 -11.09375 8.96875 -10.21875 C 9.351562 -9.34375 9.875 -8.570312 10.53125 -7.90625 C 11.195312 -7.25 11.957031 -6.734375 12.8125 -6.359375 C 13.664062 -5.992188 14.582031 -5.8125 15.5625 -5.8125 Z M 15.5625 -5.8125 "/></g></g></g></g><g fill="#2f6d88" fill-opacity="1"><g transform="translate(232.436984, 41.160301)"><g><path d="M 11.375 -20.265625 C 10.582031 -20.265625 9.960938 -20.117188 9.515625 -19.828125 C 9.066406 -19.535156 8.84375 -19.117188 8.84375 -18.578125 C 8.84375 -18.265625 8.9375 -17.984375 9.125 -17.734375 C 9.320312 -17.484375 9.703125 -17.238281 10.265625 -17 C 10.828125 -16.757812 11.6875 -16.476562 12.84375 -16.15625 C 14.738281 -15.625 16.359375 -14.988281 17.703125 -14.25 C 19.054688 -13.507812 20.085938 -12.570312 20.796875 -11.4375 C 21.515625 -10.3125 21.875 -8.890625 21.875 -7.171875 C 21.875 -5.441406 21.4375 -4 20.5625 -2.84375 C 19.695312 -1.6875 18.503906 -0.816406 16.984375 -0.234375 C 15.472656 0.335938 13.726562 0.625 11.75 0.625 C 9.832031 0.625 8.007812 0.285156 6.28125 -0.390625 C 4.5625 -1.078125 3.015625 -2.128906 1.640625 -3.546875 C 1.335938 -3.835938 1.207031 -4.113281 1.25 -4.375 C 1.289062 -4.644531 1.429688 -4.910156 1.671875 -5.171875 L 4.578125 -8.1875 C 4.835938 -8.4375 5.113281 -8.539062 5.40625 -8.5 C 5.695312 -8.457031 5.96875 -8.328125 6.21875 -8.109375 C 6.976562 -7.421875 7.84375 -6.867188 8.8125 -6.453125 C 9.78125 -6.046875 10.757812 -5.84375 11.75 -5.84375 C 12.769531 -5.84375 13.601562 -5.957031 14.25 -6.1875 C 14.90625 -6.414062 15.234375 -6.847656 15.234375 -7.484375 C 15.234375 -8.140625 14.867188 -8.65625 14.140625 -9.03125 C 13.421875 -9.40625 12.429688 -9.773438 11.171875 -10.140625 C 9.816406 -10.515625 8.59375 -10.9375 7.5 -11.40625 C 6.40625 -11.875 5.46875 -12.4375 4.6875 -13.09375 C 3.914062 -13.757812 3.320312 -14.578125 2.90625 -15.546875 C 2.5 -16.515625 2.296875 -17.6875 2.296875 -19.0625 C 2.296875 -20.039062 2.488281 -20.988281 2.875 -21.90625 C 3.269531 -22.820312 3.847656 -23.640625 4.609375 -24.359375 C 5.378906 -25.078125 6.328125 -25.648438 7.453125 -26.078125 C 8.585938 -26.515625 9.894531 -26.734375 11.375 -26.734375 C 13.207031 -26.734375 14.898438 -26.375 16.453125 -25.65625 C 18.003906 -24.945312 19.40625 -23.90625 20.65625 -22.53125 C 21.175781 -21.96875 21.132812 -21.410156 20.53125 -20.859375 L 17.90625 -18.421875 C 17.664062 -18.210938 17.359375 -18.113281 16.984375 -18.125 C 16.617188 -18.132812 16.328125 -18.242188 16.109375 -18.453125 C 15.429688 -19.066406 14.722656 -19.519531 13.984375 -19.8125 C 13.253906 -20.113281 12.382812 -20.265625 11.375 -20.265625 Z M 11.375 -20.265625 "/></g></g></g></g></g></svg>