<svg xmlns="http://www.w3.org/2000/svg" xmlns:xlink="http://www.w3.org/1999/xlink" width="595" zoomAndPan="magnify" viewBox="0 0 446.25 130.499996" height="174" preserveAspectRatio="xMidYMid meet" version="1.0"><defs><g/><clipPath id="73b83fd0bb"><path d="M 54.410156 26.742188 L 101.949219 26.742188 L 101.949219 74.28125 L 54.410156 74.28125 Z M 54.410156 26.742188 " clip-rule="nonzero"/></clipPath><clipPath id="3cd4cfbe37"><path d="M 78.179688 26.742188 C 65.050781 26.742188 54.410156 37.382812 54.410156 50.511719 C 54.410156 63.636719 65.050781 74.28125 78.179688 74.28125 C 91.304688 74.28125 101.949219 63.636719 101.949219 50.511719 C 101.949219 37.382812 91.304688 26.742188 78.179688 26.742188 Z M 78.179688 26.742188 " clip-rule="nonzero"/></clipPath><clipPath id="eb9e0e3f42"><path d="M 198.625 26.742188 L 246.164062 26.742188 L 246.164062 74.28125 L 198.625 74.28125 Z M 198.625 26.742188 " clip-rule="nonzero"/></clipPath><clipPath id="38a60b0237"><path d="M 222.394531 26.742188 C 209.269531 26.742188 198.625 37.382812 198.625 50.511719 C 198.625 63.636719 209.269531 74.28125 222.394531 74.28125 C 235.523438 74.28125 246.164062 63.636719 246.164062 50.511719 C 246.164062 37.382812 235.523438 26.742188 222.394531 26.742188 Z M 222.394531 26.742188 " clip-rule="nonzero"/></clipPath><clipPath id="298f914fb3"><path d="M 344.402344 26.742188 L 391.941406 26.742188 L 391.941406 74.28125 L 344.402344 74.28125 Z M 344.402344 26.742188 " clip-rule="nonzero"/></clipPath><clipPath id="e40c53a416"><path d="M 368.171875 26.742188 C 355.046875 26.742188 344.402344 37.382812 344.402344 50.511719 C 344.402344 63.640625 355.046875 74.28125 368.171875 74.28125 C 381.300781 74.28125 391.941406 63.640625 391.941406 50.511719 C 391.941406 37.382812 381.300781 26.742188 368.171875 26.742188 Z M 368.171875 26.742188 " clip-rule="nonzero"/></clipPath><clipPath id="d29fbb6a19"><path d="M 0.402344 0.742188 L 47.941406 0.742188 L 47.941406 48.28125 L 0.402344 48.28125 Z M 0.402344 0.742188 " clip-rule="nonzero"/></clipPath><clipPath id="3b61b51baf"><path d="M 24.171875 0.742188 C 11.046875 0.742188 0.402344 11.382812 0.402344 24.511719 C 0.402344 37.640625 11.046875 48.28125 24.171875 48.28125 C 37.300781 48.28125 47.941406 37.640625 47.941406 24.511719 C 47.941406 11.382812 37.300781 0.742188 24.171875 0.742188 Z M 24.171875 0.742188 " clip-rule="nonzero"/></clipPath><clipPath id="b2777850f8"><rect x="0" width="48" y="0" height="49"/></clipPath><clipPath id="814ff5848e"><path d="M 386 1 L 407 1 L 407 23 L 386 23 Z M 386 1 " clip-rule="nonzero"/></clipPath><clipPath id="f443343c79"><path d="M 416.289062 0 L 423.5 51.046875 L 391.6875 55.539062 L 384.476562 4.492188 Z M 416.289062 0 " clip-rule="nonzero"/></clipPath><clipPath id="662b6a861c"><path d="M 416.289062 0 L 423.5 51.046875 L 391.6875 55.539062 L 384.476562 4.492188 Z M 416.289062 0 " clip-rule="nonzero"/></clipPath><clipPath id="392308828e"><path d="M 398 26 L 420 26 L 420 35 L 398 35 Z M 398 26 " clip-rule="nonzero"/></clipPath><clipPath id="efc50efc67"><path d="M 416.289062 0 L 423.5 51.046875 L 391.6875 55.539062 L 384.476562 4.492188 Z M 416.289062 0 " clip-rule="nonzero"/></clipPath><clipPath id="4b368bf0a5"><path d="M 416.289062 0 L 423.5 51.046875 L 391.6875 55.539062 L 384.476562 4.492188 Z M 416.289062 0 " clip-rule="nonzero"/></clipPath><clipPath id="49c7689627"><path d="M 401 49 L 420 49 L 420 52 L 401 52 Z M 401 49 " clip-rule="nonzero"/></clipPath><clipPath id="998262478b"><path d="M 416.289062 0 L 423.5 51.046875 L 391.6875 55.539062 L 384.476562 4.492188 Z M 416.289062 0 " clip-rule="nonzero"/></clipPath><clipPath id="1bfc065a22"><path d="M 416.289062 0 L 423.5 51.046875 L 391.6875 55.539062 L 384.476562 4.492188 Z M 416.289062 0 " clip-rule="nonzero"/></clipPath></defs><path stroke-linecap="round" transform="matrix(0.747137, 0, 0, 0.747137, 113.32122, 48.644114)" fill="none" stroke-linejoin="miter" d="M 2.497908 2.49968 L 98.400413 2.49968 " stroke="#2f6d88" stroke-width="5" stroke-opacity="1" stroke-miterlimit="4"/><path stroke-linecap="round" transform="matrix(0.747137, 0, 0, 0.747137, 113.32122, 48.644114)" fill="none" stroke-linejoin="round" d="M 89.648258 -4.997686 L 99.649974 2.49968 L 89.648258 10.002275 " stroke="#2f6d88" stroke-width="5" stroke-opacity="1" stroke-miterlimit="4"/><g clip-path="url(#73b83fd0bb)"><g clip-path="url(#3cd4cfbe37)"><path stroke-linecap="butt" transform="matrix(0.747137, 0, 0, 0.747137, 54.410886, 26.742736)" fill="none" stroke-linejoin="miter" d="M 31.813162 -0.000734387 C 14.240883 -0.000734387 -0.000976682 14.241125 -0.000976682 31.813404 C -0.000976682 49.380455 14.240883 63.627543 31.813162 63.627543 C 49.380213 63.627543 63.627301 49.380455 63.627301 31.813404 C 63.627301 14.241125 49.380213 -0.000734387 31.813162 -0.000734387 Z M 31.813162 -0.000734387 " stroke="#2f6d88" stroke-width="6" stroke-opacity="1" stroke-miterlimit="4"/></g></g><g fill="#2f6d88" fill-opacity="1"><g transform="translate(75.657604, 54.386818)"><g><path d="M 3.21875 -11.125 C 3.363281 -11.125 3.4375 -11.046875 3.4375 -10.890625 L 3.4375 -0.265625 C 3.4375 -0.078125 3.34375 0.015625 3.15625 0.015625 L 2.59375 0.015625 C 2.507812 0.015625 2.441406 -0.0078125 2.390625 -0.0625 C 2.347656 -0.113281 2.328125 -0.179688 2.328125 -0.265625 L 2.328125 -9.796875 L 1 -9.21875 C 0.925781 -9.1875 0.859375 -9.1875 0.796875 -9.21875 C 0.742188 -9.25 0.71875 -9.300781 0.71875 -9.375 L 0.71875 -10.078125 C 0.71875 -10.222656 0.773438 -10.320312 0.890625 -10.375 L 2.265625 -11 C 2.359375 -11.050781 2.4375 -11.082031 2.5 -11.09375 C 2.570312 -11.113281 2.628906 -11.125 2.671875 -11.125 Z M 3.21875 -11.125 "/></g></g></g><g clip-path="url(#eb9e0e3f42)"><g clip-path="url(#38a60b0237)"><path stroke-linecap="butt" transform="matrix(0.747137, 0, 0, 0.747137, 198.62656, 26.742736)" fill="none" stroke-linejoin="miter" d="M 31.81205 -0.000734387 C 14.244999 -0.000734387 -0.00208826 14.241125 -0.00208826 31.813404 C -0.00208826 49.380455 14.244999 63.627543 31.81205 63.627543 C 49.38433 63.627543 63.626189 49.380455 63.626189 31.813404 C 63.626189 14.241125 49.38433 -0.000734387 31.81205 -0.000734387 Z M 31.81205 -0.000734387 " stroke="#2f6d88" stroke-width="8" stroke-opacity="1" stroke-miterlimit="4"/></g></g><g fill="#2f6d88" fill-opacity="1"><g transform="translate(217.701911, 54.386818)"><g><path d="M 8.171875 -1.046875 C 8.359375 -1.046875 8.453125 -0.960938 8.453125 -0.796875 L 8.453125 -0.234375 C 8.453125 -0.160156 8.425781 -0.101562 8.375 -0.0625 C 8.332031 -0.0195312 8.269531 0 8.1875 0 L 1.0625 0 C 0.976562 0 0.910156 -0.0195312 0.859375 -0.0625 C 0.816406 -0.101562 0.796875 -0.160156 0.796875 -0.234375 L 0.796875 -0.703125 C 0.796875 -0.835938 0.820312 -0.925781 0.875 -0.96875 L 5.5 -5.0625 C 5.976562 -5.476562 6.351562 -5.90625 6.625 -6.34375 C 6.894531 -6.78125 7.03125 -7.195312 7.03125 -7.59375 C 7.03125 -7.96875 6.960938 -8.304688 6.828125 -8.609375 C 6.703125 -8.921875 6.519531 -9.191406 6.28125 -9.421875 C 6.050781 -9.648438 5.78125 -9.828125 5.46875 -9.953125 C 5.15625 -10.085938 4.816406 -10.15625 4.453125 -10.15625 C 4.117188 -10.15625 3.800781 -10.097656 3.5 -9.984375 C 3.207031 -9.867188 2.941406 -9.703125 2.703125 -9.484375 C 2.472656 -9.273438 2.285156 -9.019531 2.140625 -8.71875 C 1.992188 -8.425781 1.914062 -8.101562 1.90625 -7.75 C 1.894531 -7.664062 1.859375 -7.609375 1.796875 -7.578125 C 1.742188 -7.546875 1.6875 -7.539062 1.625 -7.5625 L 1 -7.8125 C 0.9375 -7.820312 0.890625 -7.851562 0.859375 -7.90625 C 0.835938 -7.957031 0.832031 -8.015625 0.84375 -8.078125 C 0.90625 -8.566406 1.046875 -9.003906 1.265625 -9.390625 C 1.484375 -9.785156 1.753906 -10.117188 2.078125 -10.390625 C 2.410156 -10.671875 2.773438 -10.882812 3.171875 -11.03125 C 3.578125 -11.175781 4 -11.25 4.4375 -11.25 C 4.976562 -11.25 5.472656 -11.15625 5.921875 -10.96875 C 6.367188 -10.789062 6.757812 -10.539062 7.09375 -10.21875 C 7.425781 -9.894531 7.679688 -9.507812 7.859375 -9.0625 C 8.046875 -8.613281 8.140625 -8.125 8.140625 -7.59375 C 8.140625 -7.226562 8.0625 -6.851562 7.90625 -6.46875 C 7.757812 -6.082031 7.546875 -5.707031 7.265625 -5.34375 C 6.992188 -4.976562 6.671875 -4.632812 6.296875 -4.3125 L 2.4375 -1.046875 Z M 8.171875 -1.046875 "/></g></g></g><path stroke-linecap="round" transform="matrix(0.747137, 0.000000000000000215, -0.000000000000000215, 0.747137, 255.130633, 48.644114)" fill="none" stroke-linejoin="miter" d="M 2.502039 2.49968 L 95.210059 2.49968 " stroke="#2f6d88" stroke-width="5" stroke-opacity="1" stroke-miterlimit="4"/><path stroke-linecap="round" transform="matrix(0.747137, 0.000000000000000215, -0.000000000000000215, 0.747137, 255.130633, 48.644114)" fill="none" stroke-linejoin="round" d="M 86.463132 -4.997686 L 96.464849 2.49968 L 86.463132 10.002275 " stroke="#2f6d88" stroke-width="5" stroke-opacity="1" stroke-miterlimit="4"/><g clip-path="url(#298f914fb3)"><g clip-path="url(#e40c53a416)"><g transform="matrix(1, 0, 0, 1, 344, 26)"><g clip-path="url(#b2777850f8)"><g clip-path="url(#d29fbb6a19)"><g clip-path="url(#3b61b51baf)"><path fill="#2f6d88" d="M 0.402344 0.742188 L 47.941406 0.742188 L 47.941406 48.28125 L 0.402344 48.28125 Z M 0.402344 0.742188 " fill-opacity="1" fill-rule="nonzero"/></g></g></g></g></g></g><g fill="#ffffff" fill-opacity="1"><g transform="translate(363.537898, 54.386818)"><g><path d="M 5.6875 -6.546875 C 6.1875 -6.441406 6.625 -6.242188 7 -5.953125 C 7.375 -5.671875 7.664062 -5.3125 7.875 -4.875 C 8.09375 -4.4375 8.203125 -3.957031 8.203125 -3.4375 C 8.203125 -2.914062 8.101562 -2.4375 7.90625 -2 C 7.71875 -1.5625 7.453125 -1.179688 7.109375 -0.859375 C 6.765625 -0.535156 6.359375 -0.285156 5.890625 -0.109375 C 5.429688 0.0664062 4.921875 0.15625 4.359375 0.15625 C 3.953125 0.15625 3.554688 0.0976562 3.171875 -0.015625 C 2.796875 -0.140625 2.445312 -0.304688 2.125 -0.515625 C 1.800781 -0.722656 1.519531 -0.972656 1.28125 -1.265625 C 1.050781 -1.554688 0.882812 -1.867188 0.78125 -2.203125 C 0.75 -2.304688 0.738281 -2.390625 0.75 -2.453125 C 0.757812 -2.523438 0.796875 -2.570312 0.859375 -2.59375 L 1.421875 -2.78125 C 1.554688 -2.820312 1.648438 -2.769531 1.703125 -2.625 C 1.816406 -2.289062 2.003906 -1.992188 2.265625 -1.734375 C 2.523438 -1.472656 2.832031 -1.265625 3.1875 -1.109375 C 3.550781 -0.960938 3.929688 -0.890625 4.328125 -0.890625 C 4.734375 -0.890625 5.101562 -0.953125 5.4375 -1.078125 C 5.78125 -1.210938 6.078125 -1.394531 6.328125 -1.625 C 6.578125 -1.863281 6.769531 -2.144531 6.90625 -2.46875 C 7.039062 -2.789062 7.109375 -3.144531 7.109375 -3.53125 C 7.109375 -3.894531 7.039062 -4.234375 6.90625 -4.546875 C 6.769531 -4.859375 6.578125 -5.125 6.328125 -5.34375 C 6.078125 -5.570312 5.78125 -5.75 5.4375 -5.875 C 5.101562 -6 4.734375 -6.0625 4.328125 -6.0625 L 3.765625 -6.0625 C 3.703125 -6.0625 3.644531 -6.082031 3.59375 -6.125 C 3.550781 -6.175781 3.53125 -6.234375 3.53125 -6.296875 L 3.53125 -6.734375 C 3.53125 -6.804688 3.550781 -6.859375 3.59375 -6.890625 C 3.632812 -6.929688 3.6875 -6.953125 3.75 -6.953125 L 4.296875 -6.953125 C 4.671875 -6.953125 5.003906 -7.019531 5.296875 -7.15625 C 5.585938 -7.300781 5.816406 -7.488281 5.984375 -7.71875 C 6.148438 -7.957031 6.234375 -8.226562 6.234375 -8.53125 C 6.234375 -8.863281 6.15625 -9.15625 6 -9.40625 C 5.84375 -9.65625 5.625 -9.847656 5.34375 -9.984375 C 5.070312 -10.128906 4.757812 -10.203125 4.40625 -10.203125 C 4.175781 -10.203125 3.945312 -10.164062 3.71875 -10.09375 C 3.5 -10.019531 3.296875 -9.910156 3.109375 -9.765625 C 2.921875 -9.628906 2.769531 -9.472656 2.65625 -9.296875 C 2.613281 -9.242188 2.566406 -9.210938 2.515625 -9.203125 C 2.460938 -9.191406 2.410156 -9.203125 2.359375 -9.234375 L 1.890625 -9.625 C 1.847656 -9.644531 1.820312 -9.675781 1.8125 -9.71875 C 1.800781 -9.769531 1.8125 -9.828125 1.84375 -9.890625 C 2.007812 -10.160156 2.226562 -10.394531 2.5 -10.59375 C 2.78125 -10.800781 3.082031 -10.960938 3.40625 -11.078125 C 3.738281 -11.191406 4.070312 -11.25 4.40625 -11.25 C 4.820312 -11.25 5.203125 -11.179688 5.546875 -11.046875 C 5.898438 -10.921875 6.203125 -10.738281 6.453125 -10.5 C 6.703125 -10.269531 6.894531 -9.992188 7.03125 -9.671875 C 7.175781 -9.347656 7.25 -9 7.25 -8.625 C 7.25 -8.289062 7.179688 -7.984375 7.046875 -7.703125 C 6.921875 -7.421875 6.738281 -7.179688 6.5 -6.984375 C 6.269531 -6.785156 6 -6.640625 5.6875 -6.546875 Z M 5.6875 -6.546875 "/></g></g></g><g clip-path="url(#814ff5848e)"><g clip-path="url(#f443343c79)"><g clip-path="url(#662b6a861c)"><path fill="#2f6d88" d="M 386.890625 22.109375 C 386.851562 21.847656 386.925781 21.574219 387.113281 21.367188 L 404.523438 1.972656 C 404.863281 1.59375 405.441406 1.5625 405.820312 1.902344 C 406.195312 2.242188 406.226562 2.820312 405.890625 3.199219 L 388.480469 22.59375 C 388.144531 22.96875 387.5625 23 387.183594 22.664062 C 387.019531 22.511719 386.917969 22.3125 386.890625 22.109375 Z M 386.890625 22.109375 " fill-opacity="1" fill-rule="nonzero"/></g></g></g><g clip-path="url(#392308828e)"><g clip-path="url(#efc50efc67)"><g clip-path="url(#4b368bf0a5)"><path fill="#2f6d88" d="M 398.429688 33.984375 C 398.367188 33.546875 398.625 33.117188 399.058594 32.980469 L 418.730469 26.746094 C 419.214844 26.59375 419.730469 26.863281 419.882812 27.347656 C 420.03125 27.832031 419.769531 28.347656 419.285156 28.5 L 399.617188 34.730469 C 399.132812 34.882812 398.617188 34.617188 398.464844 34.132812 C 398.445312 34.082031 398.433594 34.03125 398.429688 33.984375 Z M 398.429688 33.984375 " fill-opacity="1" fill-rule="nonzero"/></g></g></g><g clip-path="url(#49c7689627)"><g clip-path="url(#998262478b)"><g clip-path="url(#1bfc065a22)"><path fill="#2f6d88" d="M 401.917969 50.449219 C 401.910156 50.394531 401.90625 50.339844 401.910156 50.28125 C 401.929688 49.773438 402.359375 49.382812 402.867188 49.402344 L 418.582031 50.070312 C 419.089844 50.09375 419.484375 50.515625 419.460938 51.027344 C 419.4375 51.535156 419.011719 51.925781 418.503906 51.90625 L 402.789062 51.238281 C 402.339844 51.21875 401.976562 50.882812 401.917969 50.449219 Z M 401.917969 50.449219 " fill-opacity="1" fill-rule="nonzero"/></g></g></g><g fill="#2f6d88" fill-opacity="1"><g transform="translate(35.563733, 98.245905)"><g><path d="M 6.84375 0.234375 C 6.15625 0.234375 5.5 0.132812 4.875 -0.0625 C 4.257812 -0.269531 3.695312 -0.5625 3.1875 -0.9375 C 2.675781 -1.320312 2.234375 -1.769531 1.859375 -2.28125 C 1.492188 -2.789062 1.207031 -3.347656 1 -3.953125 C 0.800781 -4.566406 0.703125 -5.21875 0.703125 -5.90625 C 0.703125 -6.59375 0.800781 -7.242188 1 -7.859375 C 1.207031 -8.472656 1.492188 -9.035156 1.859375 -9.546875 C 2.234375 -10.054688 2.675781 -10.5 3.1875 -10.875 C 3.695312 -11.25 4.257812 -11.535156 4.875 -11.734375 C 5.5 -11.941406 6.15625 -12.046875 6.84375 -12.046875 C 7.46875 -12.046875 8.078125 -11.957031 8.671875 -11.78125 C 9.265625 -11.601562 9.8125 -11.335938 10.3125 -10.984375 C 10.820312 -10.628906 11.253906 -10.179688 11.609375 -9.640625 C 11.972656 -9.109375 12.226562 -8.488281 12.375 -7.78125 L 10.8125 -7.78125 C 10.632812 -8.414062 10.347656 -8.941406 9.953125 -9.359375 C 9.566406 -9.785156 9.101562 -10.101562 8.5625 -10.3125 C 8.019531 -10.53125 7.429688 -10.640625 6.796875 -10.640625 C 6.160156 -10.640625 5.5625 -10.519531 5 -10.28125 C 4.445312 -10.050781 3.960938 -9.722656 3.546875 -9.296875 C 3.140625 -8.878906 2.816406 -8.378906 2.578125 -7.796875 C 2.347656 -7.222656 2.234375 -6.59375 2.234375 -5.90625 C 2.234375 -5.207031 2.347656 -4.566406 2.578125 -3.984375 C 2.816406 -3.410156 3.140625 -2.914062 3.546875 -2.5 C 3.960938 -2.082031 4.445312 -1.757812 5 -1.53125 C 5.5625 -1.300781 6.160156 -1.1875 6.796875 -1.1875 C 7.429688 -1.1875 8.019531 -1.289062 8.5625 -1.5 C 9.101562 -1.707031 9.566406 -2.019531 9.953125 -2.4375 C 10.347656 -2.863281 10.628906 -3.394531 10.796875 -4.03125 L 12.375 -4.03125 C 12.226562 -3.320312 11.972656 -2.695312 11.609375 -2.15625 C 11.253906 -1.625 10.828125 -1.179688 10.328125 -0.828125 C 9.828125 -0.472656 9.28125 -0.207031 8.6875 -0.03125 C 8.09375 0.144531 7.476562 0.234375 6.84375 0.234375 Z M 6.84375 0.234375 "/></g></g></g><g fill="#2f6d88" fill-opacity="1"><g transform="translate(48.638181, 98.245905)"><g><path d="M 2.921875 0 L 1.4375 0 L 1.4375 -8.84375 L 2.875 -8.84375 L 2.875 -6.859375 C 3.09375 -7.472656 3.429688 -7.957031 3.890625 -8.3125 C 4.359375 -8.664062 4.914062 -8.84375 5.5625 -8.84375 L 6.40625 -8.84375 L 6.40625 -7.53125 L 5.640625 -7.53125 C 5.117188 -7.53125 4.648438 -7.394531 4.234375 -7.125 C 3.828125 -6.863281 3.503906 -6.476562 3.265625 -5.96875 C 3.035156 -5.46875 2.921875 -4.863281 2.921875 -4.15625 Z M 2.921875 0 "/></g></g></g><g fill="#2f6d88" fill-opacity="1"><g transform="translate(55.361688, 98.245905)"><g><path d="M 2.171875 -10.5625 C 1.859375 -10.5625 1.609375 -10.65625 1.421875 -10.84375 C 1.242188 -11.03125 1.15625 -11.253906 1.15625 -11.515625 C 1.15625 -11.773438 1.242188 -12 1.421875 -12.1875 C 1.609375 -12.375 1.859375 -12.46875 2.171875 -12.46875 C 2.492188 -12.46875 2.742188 -12.375 2.921875 -12.1875 C 3.109375 -12 3.203125 -11.773438 3.203125 -11.515625 C 3.203125 -11.253906 3.109375 -11.03125 2.921875 -10.84375 C 2.742188 -10.65625 2.492188 -10.5625 2.171875 -10.5625 Z M 2.921875 0 L 1.4375 0 L 1.4375 -8.84375 L 2.921875 -8.84375 Z M 2.921875 0 "/></g></g></g><g fill="#2f6d88" fill-opacity="1"><g transform="translate(59.711173, 98.245905)"><g><path d="M 4.953125 0.25 C 4.347656 0.25 3.785156 0.128906 3.265625 -0.109375 C 2.753906 -0.347656 2.300781 -0.679688 1.90625 -1.109375 C 1.519531 -1.535156 1.21875 -2.03125 1 -2.59375 C 0.789062 -3.164062 0.6875 -3.773438 0.6875 -4.421875 C 0.6875 -5.066406 0.789062 -5.671875 1 -6.234375 C 1.21875 -6.796875 1.519531 -7.289062 1.90625 -7.71875 C 2.300781 -8.144531 2.753906 -8.476562 3.265625 -8.71875 C 3.785156 -8.957031 4.347656 -9.078125 4.953125 -9.078125 C 5.484375 -9.078125 5.972656 -8.988281 6.421875 -8.8125 C 6.878906 -8.644531 7.285156 -8.398438 7.640625 -8.078125 C 7.992188 -7.753906 8.265625 -7.375 8.453125 -6.9375 L 8.453125 -8.84375 L 9.890625 -8.84375 L 9.890625 0 L 8.453125 0 L 8.453125 -1.875 C 8.265625 -1.445312 7.992188 -1.070312 7.640625 -0.75 C 7.285156 -0.425781 6.878906 -0.175781 6.421875 0 C 5.972656 0.164062 5.484375 0.25 4.953125 0.25 Z M 5.28125 -1.140625 C 5.71875 -1.140625 6.125 -1.222656 6.5 -1.390625 C 6.882812 -1.554688 7.21875 -1.785156 7.5 -2.078125 C 7.78125 -2.378906 8 -2.726562 8.15625 -3.125 C 8.320312 -3.53125 8.40625 -3.960938 8.40625 -4.421875 C 8.40625 -4.878906 8.320312 -5.304688 8.15625 -5.703125 C 8 -6.097656 7.773438 -6.441406 7.484375 -6.734375 C 7.203125 -7.035156 6.875 -7.269531 6.5 -7.4375 C 6.125 -7.601562 5.722656 -7.6875 5.296875 -7.6875 C 4.859375 -7.6875 4.453125 -7.609375 4.078125 -7.453125 C 3.703125 -7.296875 3.367188 -7.066406 3.078125 -6.765625 C 2.796875 -6.472656 2.570312 -6.128906 2.40625 -5.734375 C 2.25 -5.335938 2.171875 -4.898438 2.171875 -4.421875 C 2.171875 -3.929688 2.25 -3.484375 2.40625 -3.078125 C 2.570312 -2.679688 2.796875 -2.335938 3.078125 -2.046875 C 3.367188 -1.753906 3.703125 -1.53125 4.078125 -1.375 C 4.460938 -1.21875 4.863281 -1.140625 5.28125 -1.140625 Z M 5.28125 -1.140625 "/></g></g></g><g fill="#2f6d88" fill-opacity="1"><g transform="translate(71.026765, 98.245905)"><g><path d="M 2.921875 0 L 1.4375 0 L 1.4375 -8.84375 L 2.875 -8.84375 L 2.875 -6.859375 C 3.09375 -7.472656 3.429688 -7.957031 3.890625 -8.3125 C 4.359375 -8.664062 4.914062 -8.84375 5.5625 -8.84375 L 6.40625 -8.84375 L 6.40625 -7.53125 L 5.640625 -7.53125 C 5.117188 -7.53125 4.648438 -7.394531 4.234375 -7.125 C 3.828125 -6.863281 3.503906 -6.476562 3.265625 -5.96875 C 3.035156 -5.46875 2.921875 -4.863281 2.921875 -4.15625 Z M 2.921875 0 "/></g></g></g><g fill="#2f6d88" fill-opacity="1"><g transform="translate(77.750271, 98.245905)"><g/></g></g><g fill="#2f6d88" fill-opacity="1"><g transform="translate(82.134413, 98.245905)"><g><path d="M 5.21875 0.25 C 4.632812 0.25 4.097656 0.164062 3.609375 0 C 3.117188 -0.164062 2.691406 -0.425781 2.328125 -0.78125 C 1.960938 -1.132812 1.679688 -1.585938 1.484375 -2.140625 C 1.285156 -2.691406 1.1875 -3.347656 1.1875 -4.109375 L 1.1875 -8.84375 L 2.671875 -8.84375 L 2.671875 -4.15625 C 2.671875 -3.164062 2.890625 -2.414062 3.328125 -1.90625 C 3.773438 -1.40625 4.398438 -1.15625 5.203125 -1.15625 C 6.023438 -1.15625 6.65625 -1.40625 7.09375 -1.90625 C 7.53125 -2.414062 7.75 -3.164062 7.75 -4.15625 L 7.75 -8.84375 L 9.234375 -8.84375 L 9.234375 -4.109375 C 9.234375 -3.347656 9.132812 -2.691406 8.9375 -2.140625 C 8.738281 -1.585938 8.457031 -1.132812 8.09375 -0.78125 C 7.738281 -0.425781 7.316406 -0.164062 6.828125 0 C 6.335938 0.164062 5.800781 0.25 5.21875 0.25 Z M 5.21875 0.25 "/></g></g></g><g fill="#2f6d88" fill-opacity="1"><g transform="translate(92.557581, 98.245905)"><g><path d="M 12.234375 -9.09375 C 13.328125 -9.09375 14.15625 -8.726562 14.71875 -8 C 15.289062 -7.28125 15.578125 -6.210938 15.578125 -4.796875 L 15.578125 0 L 14.09375 0 L 14.09375 -4.765625 C 14.09375 -5.785156 13.890625 -6.53125 13.484375 -7 C 13.085938 -7.46875 12.535156 -7.703125 11.828125 -7.703125 C 11.484375 -7.703125 11.15625 -7.625 10.84375 -7.46875 C 10.539062 -7.320312 10.265625 -7.113281 10.015625 -6.84375 C 9.773438 -6.570312 9.582031 -6.25 9.4375 -5.875 C 9.300781 -5.507812 9.234375 -5.097656 9.234375 -4.640625 L 9.234375 0 L 7.765625 0 L 7.765625 -4.765625 C 7.765625 -5.785156 7.5625 -6.53125 7.15625 -7 C 6.75 -7.46875 6.195312 -7.703125 5.5 -7.703125 C 5.164062 -7.703125 4.84375 -7.625 4.53125 -7.46875 C 4.21875 -7.320312 3.9375 -7.113281 3.6875 -6.84375 C 3.445312 -6.570312 3.253906 -6.25 3.109375 -5.875 C 2.972656 -5.507812 2.90625 -5.097656 2.90625 -4.640625 L 2.90625 0 L 1.4375 0 L 1.4375 -8.84375 L 2.828125 -8.84375 L 2.84375 -7.140625 C 3 -7.503906 3.222656 -7.832031 3.515625 -8.125 C 3.816406 -8.425781 4.171875 -8.660156 4.578125 -8.828125 C 4.984375 -9.003906 5.421875 -9.09375 5.890625 -9.09375 C 7.484375 -9.09375 8.515625 -8.335938 8.984375 -6.828125 C 9.316406 -7.578125 9.769531 -8.140625 10.34375 -8.515625 C 10.914062 -8.898438 11.546875 -9.09375 12.234375 -9.09375 Z M 12.234375 -9.09375 "/></g></g></g><g fill="#2f6d88" fill-opacity="1"><g transform="translate(109.461655, 98.245905)"><g><path d="M 4.953125 0.25 C 4.347656 0.25 3.785156 0.128906 3.265625 -0.109375 C 2.753906 -0.347656 2.300781 -0.679688 1.90625 -1.109375 C 1.519531 -1.535156 1.21875 -2.03125 1 -2.59375 C 0.789062 -3.164062 0.6875 -3.773438 0.6875 -4.421875 C 0.6875 -5.066406 0.789062 -5.671875 1 -6.234375 C 1.21875 -6.796875 1.519531 -7.289062 1.90625 -7.71875 C 2.300781 -8.144531 2.753906 -8.476562 3.265625 -8.71875 C 3.785156 -8.957031 4.347656 -9.078125 4.953125 -9.078125 C 5.484375 -9.078125 5.972656 -8.988281 6.421875 -8.8125 C 6.878906 -8.644531 7.285156 -8.398438 7.640625 -8.078125 C 7.992188 -7.753906 8.265625 -7.375 8.453125 -6.9375 L 8.453125 -8.84375 L 9.890625 -8.84375 L 9.890625 0 L 8.453125 0 L 8.453125 -1.875 C 8.265625 -1.445312 7.992188 -1.070312 7.640625 -0.75 C 7.285156 -0.425781 6.878906 -0.175781 6.421875 0 C 5.972656 0.164062 5.484375 0.25 4.953125 0.25 Z M 5.28125 -1.140625 C 5.71875 -1.140625 6.125 -1.222656 6.5 -1.390625 C 6.882812 -1.554688 7.21875 -1.785156 7.5 -2.078125 C 7.78125 -2.378906 8 -2.726562 8.15625 -3.125 C 8.320312 -3.53125 8.40625 -3.960938 8.40625 -4.421875 C 8.40625 -4.878906 8.320312 -5.304688 8.15625 -5.703125 C 8 -6.097656 7.773438 -6.441406 7.484375 -6.734375 C 7.203125 -7.035156 6.875 -7.269531 6.5 -7.4375 C 6.125 -7.601562 5.722656 -7.6875 5.296875 -7.6875 C 4.859375 -7.6875 4.453125 -7.609375 4.078125 -7.453125 C 3.703125 -7.296875 3.367188 -7.066406 3.078125 -6.765625 C 2.796875 -6.472656 2.570312 -6.128906 2.40625 -5.734375 C 2.25 -5.335938 2.171875 -4.898438 2.171875 -4.421875 C 2.171875 -3.929688 2.25 -3.484375 2.40625 -3.078125 C 2.570312 -2.679688 2.796875 -2.335938 3.078125 -2.046875 C 3.367188 -1.753906 3.703125 -1.53125 4.078125 -1.375 C 4.460938 -1.21875 4.863281 -1.140625 5.28125 -1.140625 Z M 5.28125 -1.140625 "/></g></g></g><g fill="#2f6d88" fill-opacity="1"><g transform="translate(51.965733, 112.441515)"><g><path d="M 6.84375 0.234375 C 6.15625 0.234375 5.5 0.132812 4.875 -0.0625 C 4.257812 -0.269531 3.695312 -0.5625 3.1875 -0.9375 C 2.675781 -1.320312 2.234375 -1.769531 1.859375 -2.28125 C 1.492188 -2.789062 1.207031 -3.347656 1 -3.953125 C 0.800781 -4.566406 0.703125 -5.21875 0.703125 -5.90625 C 0.703125 -6.59375 0.800781 -7.242188 1 -7.859375 C 1.207031 -8.472656 1.492188 -9.035156 1.859375 -9.546875 C 2.234375 -10.054688 2.675781 -10.5 3.1875 -10.875 C 3.695312 -11.25 4.257812 -11.535156 4.875 -11.734375 C 5.5 -11.941406 6.15625 -12.046875 6.84375 -12.046875 C 7.46875 -12.046875 8.078125 -11.957031 8.671875 -11.78125 C 9.265625 -11.601562 9.8125 -11.335938 10.3125 -10.984375 C 10.820312 -10.628906 11.253906 -10.179688 11.609375 -9.640625 C 11.972656 -9.109375 12.226562 -8.488281 12.375 -7.78125 L 10.8125 -7.78125 C 10.632812 -8.414062 10.347656 -8.941406 9.953125 -9.359375 C 9.566406 -9.785156 9.101562 -10.101562 8.5625 -10.3125 C 8.019531 -10.53125 7.429688 -10.640625 6.796875 -10.640625 C 6.160156 -10.640625 5.5625 -10.519531 5 -10.28125 C 4.445312 -10.050781 3.960938 -9.722656 3.546875 -9.296875 C 3.140625 -8.878906 2.816406 -8.378906 2.578125 -7.796875 C 2.347656 -7.222656 2.234375 -6.59375 2.234375 -5.90625 C 2.234375 -5.207031 2.347656 -4.566406 2.578125 -3.984375 C 2.816406 -3.410156 3.140625 -2.914062 3.546875 -2.5 C 3.960938 -2.082031 4.445312 -1.757812 5 -1.53125 C 5.5625 -1.300781 6.160156 -1.1875 6.796875 -1.1875 C 7.429688 -1.1875 8.019531 -1.289062 8.5625 -1.5 C 9.101562 -1.707031 9.566406 -2.019531 9.953125 -2.4375 C 10.347656 -2.863281 10.628906 -3.394531 10.796875 -4.03125 L 12.375 -4.03125 C 12.226562 -3.320312 11.972656 -2.695312 11.609375 -2.15625 C 11.253906 -1.625 10.828125 -1.179688 10.328125 -0.828125 C 9.828125 -0.472656 9.28125 -0.207031 8.6875 -0.03125 C 8.09375 0.144531 7.476562 0.234375 6.84375 0.234375 Z M 6.84375 0.234375 "/></g></g></g><g fill="#2f6d88" fill-opacity="1"><g transform="translate(65.040181, 112.441515)"><g><path d="M 5.28125 0.25 C 4.625 0.25 4.015625 0.128906 3.453125 -0.109375 C 2.898438 -0.347656 2.414062 -0.679688 2 -1.109375 C 1.582031 -1.535156 1.257812 -2.03125 1.03125 -2.59375 C 0.800781 -3.164062 0.6875 -3.773438 0.6875 -4.421875 C 0.6875 -5.066406 0.800781 -5.671875 1.03125 -6.234375 C 1.257812 -6.796875 1.582031 -7.289062 2 -7.71875 C 2.414062 -8.144531 2.898438 -8.476562 3.453125 -8.71875 C 4.015625 -8.96875 4.625 -9.09375 5.28125 -9.09375 C 5.9375 -9.09375 6.546875 -8.972656 7.109375 -8.734375 C 7.671875 -8.492188 8.160156 -8.160156 8.578125 -7.734375 C 8.992188 -7.304688 9.316406 -6.804688 9.546875 -6.234375 C 9.773438 -5.671875 9.890625 -5.066406 9.890625 -4.421875 C 9.890625 -3.773438 9.773438 -3.164062 9.546875 -2.59375 C 9.316406 -2.03125 8.992188 -1.535156 8.578125 -1.109375 C 8.160156 -0.679688 7.671875 -0.347656 7.109375 -0.109375 C 6.546875 0.128906 5.9375 0.25 5.28125 0.25 Z M 5.296875 -1.15625 C 5.734375 -1.15625 6.140625 -1.234375 6.515625 -1.390625 C 6.890625 -1.554688 7.21875 -1.785156 7.5 -2.078125 C 7.789062 -2.367188 8.007812 -2.710938 8.15625 -3.109375 C 8.3125 -3.515625 8.390625 -3.953125 8.390625 -4.421875 C 8.390625 -4.890625 8.3125 -5.320312 8.15625 -5.71875 C 8.007812 -6.113281 7.789062 -6.457031 7.5 -6.75 C 7.21875 -7.039062 6.890625 -7.269531 6.515625 -7.4375 C 6.140625 -7.601562 5.734375 -7.6875 5.296875 -7.6875 C 4.859375 -7.6875 4.445312 -7.601562 4.0625 -7.4375 C 3.6875 -7.269531 3.359375 -7.039062 3.078125 -6.75 C 2.796875 -6.457031 2.570312 -6.113281 2.40625 -5.71875 C 2.25 -5.320312 2.171875 -4.890625 2.171875 -4.421875 C 2.171875 -3.953125 2.25 -3.515625 2.40625 -3.109375 C 2.570312 -2.710938 2.796875 -2.367188 3.078125 -2.078125 C 3.359375 -1.785156 3.6875 -1.554688 4.0625 -1.390625 C 4.445312 -1.234375 4.859375 -1.15625 5.296875 -1.15625 Z M 5.296875 -1.15625 "/></g></g></g><g fill="#2f6d88" fill-opacity="1"><g transform="translate(75.610642, 112.441515)"><g><path d="M 2.921875 0 L 1.4375 0 L 1.4375 -8.84375 L 2.859375 -8.84375 L 2.859375 -7.140625 C 3.023438 -7.515625 3.269531 -7.847656 3.59375 -8.140625 C 3.914062 -8.441406 4.289062 -8.675781 4.71875 -8.84375 C 5.15625 -9.007812 5.625 -9.09375 6.125 -9.09375 C 7.289062 -9.09375 8.175781 -8.726562 8.78125 -8 C 9.394531 -7.28125 9.703125 -6.210938 9.703125 -4.796875 L 9.703125 0 L 8.203125 0 L 8.203125 -4.765625 C 8.203125 -5.785156 7.984375 -6.53125 7.546875 -7 C 7.109375 -7.46875 6.503906 -7.703125 5.734375 -7.703125 C 5.367188 -7.703125 5.015625 -7.628906 4.671875 -7.484375 C 4.335938 -7.347656 4.035156 -7.144531 3.765625 -6.875 C 3.503906 -6.613281 3.296875 -6.296875 3.140625 -5.921875 C 2.992188 -5.546875 2.921875 -5.117188 2.921875 -4.640625 Z M 2.921875 0 "/></g></g></g><g fill="#2f6d88" fill-opacity="1"><g transform="translate(86.388944, 112.441515)"><g><path d="M 6.46875 0 L 4.84375 0 C 4.507812 0 4.175781 -0.0390625 3.84375 -0.125 C 3.519531 -0.21875 3.222656 -0.378906 2.953125 -0.609375 C 2.679688 -0.835938 2.460938 -1.164062 2.296875 -1.59375 C 2.140625 -2.03125 2.0625 -2.59375 2.0625 -3.28125 L 2.0625 -7.53125 L 0.09375 -7.53125 L 0.09375 -8.84375 L 2.0625 -8.84375 L 2.0625 -11.46875 L 3.546875 -11.46875 L 3.546875 -8.84375 L 6.46875 -8.84375 L 6.46875 -7.53125 L 3.546875 -7.53125 L 3.546875 -3.203125 C 3.546875 -2.796875 3.59375 -2.460938 3.6875 -2.203125 C 3.78125 -1.941406 3.898438 -1.742188 4.046875 -1.609375 C 4.203125 -1.472656 4.375 -1.378906 4.5625 -1.328125 C 4.75 -1.285156 4.941406 -1.265625 5.140625 -1.265625 L 6.46875 -1.265625 Z M 6.46875 0 "/></g></g></g><g fill="#2f6d88" fill-opacity="1"><g transform="translate(93.07768, 112.441515)"><g><path d="M 4.953125 0.25 C 4.347656 0.25 3.785156 0.128906 3.265625 -0.109375 C 2.753906 -0.347656 2.300781 -0.679688 1.90625 -1.109375 C 1.519531 -1.535156 1.21875 -2.03125 1 -2.59375 C 0.789062 -3.164062 0.6875 -3.773438 0.6875 -4.421875 C 0.6875 -5.066406 0.789062 -5.671875 1 -6.234375 C 1.21875 -6.796875 1.519531 -7.289062 1.90625 -7.71875 C 2.300781 -8.144531 2.753906 -8.476562 3.265625 -8.71875 C 3.785156 -8.957031 4.347656 -9.078125 4.953125 -9.078125 C 5.484375 -9.078125 5.972656 -8.988281 6.421875 -8.8125 C 6.878906 -8.644531 7.285156 -8.398438 7.640625 -8.078125 C 7.992188 -7.753906 8.265625 -7.375 8.453125 -6.9375 L 8.453125 -8.84375 L 9.890625 -8.84375 L 9.890625 0 L 8.453125 0 L 8.453125 -1.875 C 8.265625 -1.445312 7.992188 -1.070312 7.640625 -0.75 C 7.285156 -0.425781 6.878906 -0.175781 6.421875 0 C 5.972656 0.164062 5.484375 0.25 4.953125 0.25 Z M 5.28125 -1.140625 C 5.71875 -1.140625 6.125 -1.222656 6.5 -1.390625 C 6.882812 -1.554688 7.21875 -1.785156 7.5 -2.078125 C 7.78125 -2.378906 8 -2.726562 8.15625 -3.125 C 8.320312 -3.53125 8.40625 -3.960938 8.40625 -4.421875 C 8.40625 -4.878906 8.320312 -5.304688 8.15625 -5.703125 C 8 -6.097656 7.773438 -6.441406 7.484375 -6.734375 C 7.203125 -7.035156 6.875 -7.269531 6.5 -7.4375 C 6.125 -7.601562 5.722656 -7.6875 5.296875 -7.6875 C 4.859375 -7.6875 4.453125 -7.609375 4.078125 -7.453125 C 3.703125 -7.296875 3.367188 -7.066406 3.078125 -6.765625 C 2.796875 -6.472656 2.570312 -6.128906 2.40625 -5.734375 C 2.25 -5.335938 2.171875 -4.898438 2.171875 -4.421875 C 2.171875 -3.929688 2.25 -3.484375 2.40625 -3.078125 C 2.570312 -2.679688 2.796875 -2.335938 3.078125 -2.046875 C 3.367188 -1.753906 3.703125 -1.53125 4.078125 -1.375 C 4.460938 -1.21875 4.863281 -1.140625 5.28125 -1.140625 Z M 5.28125 -1.140625 "/></g></g></g><g fill="#2f6d88" fill-opacity="1"><g transform="translate(184.072239, 98.245905)"><g><path d="M 6.84375 0.234375 C 6.15625 0.234375 5.5 0.132812 4.875 -0.0625 C 4.257812 -0.269531 3.695312 -0.5625 3.1875 -0.9375 C 2.675781 -1.320312 2.234375 -1.769531 1.859375 -2.28125 C 1.492188 -2.789062 1.207031 -3.347656 1 -3.953125 C 0.800781 -4.566406 0.703125 -5.21875 0.703125 -5.90625 C 0.703125 -6.59375 0.800781 -7.242188 1 -7.859375 C 1.207031 -8.472656 1.492188 -9.035156 1.859375 -9.546875 C 2.234375 -10.054688 2.675781 -10.5 3.1875 -10.875 C 3.695312 -11.25 4.257812 -11.535156 4.875 -11.734375 C 5.5 -11.941406 6.15625 -12.046875 6.84375 -12.046875 C 7.46875 -12.046875 8.078125 -11.957031 8.671875 -11.78125 C 9.265625 -11.601562 9.8125 -11.335938 10.3125 -10.984375 C 10.820312 -10.628906 11.253906 -10.179688 11.609375 -9.640625 C 11.972656 -9.109375 12.226562 -8.488281 12.375 -7.78125 L 10.8125 -7.78125 C 10.632812 -8.414062 10.347656 -8.941406 9.953125 -9.359375 C 9.566406 -9.785156 9.101562 -10.101562 8.5625 -10.3125 C 8.019531 -10.53125 7.429688 -10.640625 6.796875 -10.640625 C 6.160156 -10.640625 5.5625 -10.519531 5 -10.28125 C 4.445312 -10.050781 3.960938 -9.722656 3.546875 -9.296875 C 3.140625 -8.878906 2.816406 -8.378906 2.578125 -7.796875 C 2.347656 -7.222656 2.234375 -6.59375 2.234375 -5.90625 C 2.234375 -5.207031 2.347656 -4.566406 2.578125 -3.984375 C 2.816406 -3.410156 3.140625 -2.914062 3.546875 -2.5 C 3.960938 -2.082031 4.445312 -1.757812 5 -1.53125 C 5.5625 -1.300781 6.160156 -1.1875 6.796875 -1.1875 C 7.429688 -1.1875 8.019531 -1.289062 8.5625 -1.5 C 9.101562 -1.707031 9.566406 -2.019531 9.953125 -2.4375 C 10.347656 -2.863281 10.628906 -3.394531 10.796875 -4.03125 L 12.375 -4.03125 C 12.226562 -3.320312 11.972656 -2.695312 11.609375 -2.15625 C 11.253906 -1.625 10.828125 -1.179688 10.328125 -0.828125 C 9.828125 -0.472656 9.28125 -0.207031 8.6875 -0.03125 C 8.09375 0.144531 7.476562 0.234375 6.84375 0.234375 Z M 6.84375 0.234375 "/></g></g></g><g fill="#2f6d88" fill-opacity="1"><g transform="translate(197.146687, 98.245905)"><g><path d="M 5.21875 0.25 C 4.632812 0.25 4.097656 0.164062 3.609375 0 C 3.117188 -0.164062 2.691406 -0.425781 2.328125 -0.78125 C 1.960938 -1.132812 1.679688 -1.585938 1.484375 -2.140625 C 1.285156 -2.691406 1.1875 -3.347656 1.1875 -4.109375 L 1.1875 -8.84375 L 2.671875 -8.84375 L 2.671875 -4.15625 C 2.671875 -3.164062 2.890625 -2.414062 3.328125 -1.90625 C 3.773438 -1.40625 4.398438 -1.15625 5.203125 -1.15625 C 6.023438 -1.15625 6.65625 -1.40625 7.09375 -1.90625 C 7.53125 -2.414062 7.75 -3.164062 7.75 -4.15625 L 7.75 -8.84375 L 9.234375 -8.84375 L 9.234375 -4.109375 C 9.234375 -3.347656 9.132812 -2.691406 8.9375 -2.140625 C 8.738281 -1.585938 8.457031 -1.132812 8.09375 -0.78125 C 7.738281 -0.425781 7.316406 -0.164062 6.828125 0 C 6.335938 0.164062 5.800781 0.25 5.21875 0.25 Z M 5.21875 0.25 "/></g></g></g><g fill="#2f6d88" fill-opacity="1"><g transform="translate(207.569855, 98.245905)"><g><path d="M 2.921875 0 L 1.4375 0 L 1.4375 -8.84375 L 2.875 -8.84375 L 2.875 -6.859375 C 3.09375 -7.472656 3.429688 -7.957031 3.890625 -8.3125 C 4.359375 -8.664062 4.914062 -8.84375 5.5625 -8.84375 L 6.40625 -8.84375 L 6.40625 -7.53125 L 5.640625 -7.53125 C 5.117188 -7.53125 4.648438 -7.394531 4.234375 -7.125 C 3.828125 -6.863281 3.503906 -6.476562 3.265625 -5.96875 C 3.035156 -5.46875 2.921875 -4.863281 2.921875 -4.15625 Z M 2.921875 0 "/></g></g></g><g fill="#2f6d88" fill-opacity="1"><g transform="translate(214.293361, 98.245905)"><g><path d="M 2.921875 0 L 1.4375 0 L 1.4375 -8.84375 L 2.875 -8.84375 L 2.875 -6.859375 C 3.09375 -7.472656 3.429688 -7.957031 3.890625 -8.3125 C 4.359375 -8.664062 4.914062 -8.84375 5.5625 -8.84375 L 6.40625 -8.84375 L 6.40625 -7.53125 L 5.640625 -7.53125 C 5.117188 -7.53125 4.648438 -7.394531 4.234375 -7.125 C 3.828125 -6.863281 3.503906 -6.476562 3.265625 -5.96875 C 3.035156 -5.46875 2.921875 -4.863281 2.921875 -4.15625 Z M 2.921875 0 "/></g></g></g><g fill="#2f6d88" fill-opacity="1"><g transform="translate(221.016868, 98.245905)"><g><path d="M 2.828125 -9.953125 L 1.78125 -9.953125 L 3.125 -12.40625 L 4.25 -12.015625 Z M 2.921875 0 L 1.4375 0 L 1.4375 -8.84375 L 2.921875 -8.84375 Z M 2.921875 0 "/></g></g></g><g fill="#2f6d88" fill-opacity="1"><g transform="translate(225.366353, 98.245905)"><g><path d="M 5.203125 0.25 C 4.554688 0.25 3.957031 0.128906 3.40625 -0.109375 C 2.863281 -0.359375 2.390625 -0.695312 1.984375 -1.125 C 1.578125 -1.550781 1.257812 -2.046875 1.03125 -2.609375 C 0.800781 -3.171875 0.6875 -3.773438 0.6875 -4.421875 C 0.6875 -5.066406 0.800781 -5.671875 1.03125 -6.234375 C 1.257812 -6.796875 1.578125 -7.289062 1.984375 -7.71875 C 2.390625 -8.144531 2.863281 -8.476562 3.40625 -8.71875 C 3.957031 -8.96875 4.554688 -9.09375 5.203125 -9.09375 C 5.898438 -9.09375 6.535156 -8.957031 7.109375 -8.6875 C 7.679688 -8.414062 8.164062 -8.039062 8.5625 -7.5625 C 8.96875 -7.09375 9.257812 -6.554688 9.4375 -5.953125 L 7.90625 -5.953125 C 7.675781 -6.515625 7.316406 -6.941406 6.828125 -7.234375 C 6.347656 -7.535156 5.804688 -7.6875 5.203125 -7.6875 C 4.816406 -7.6875 4.441406 -7.609375 4.078125 -7.453125 C 3.722656 -7.304688 3.398438 -7.09375 3.109375 -6.8125 C 2.816406 -6.53125 2.585938 -6.1875 2.421875 -5.78125 C 2.253906 -5.375 2.171875 -4.921875 2.171875 -4.421875 C 2.171875 -3.910156 2.253906 -3.453125 2.421875 -3.046875 C 2.597656 -2.640625 2.828125 -2.296875 3.109375 -2.015625 C 3.398438 -1.734375 3.726562 -1.515625 4.09375 -1.359375 C 4.457031 -1.210938 4.828125 -1.140625 5.203125 -1.140625 C 5.804688 -1.140625 6.347656 -1.289062 6.828125 -1.59375 C 7.316406 -1.894531 7.675781 -2.351562 7.90625 -2.96875 L 9.4375 -2.96875 C 9.257812 -2.332031 8.972656 -1.769531 8.578125 -1.28125 C 8.179688 -0.800781 7.691406 -0.425781 7.109375 -0.15625 C 6.535156 0.113281 5.898438 0.25 5.203125 0.25 Z M 5.203125 0.25 "/></g></g></g><g fill="#2f6d88" fill-opacity="1"><g transform="translate(235.356305, 98.245905)"><g><path d="M 5.21875 0.25 C 4.632812 0.25 4.097656 0.164062 3.609375 0 C 3.117188 -0.164062 2.691406 -0.425781 2.328125 -0.78125 C 1.960938 -1.132812 1.679688 -1.585938 1.484375 -2.140625 C 1.285156 -2.691406 1.1875 -3.347656 1.1875 -4.109375 L 1.1875 -8.84375 L 2.671875 -8.84375 L 2.671875 -4.15625 C 2.671875 -3.164062 2.890625 -2.414062 3.328125 -1.90625 C 3.773438 -1.40625 4.398438 -1.15625 5.203125 -1.15625 C 6.023438 -1.15625 6.65625 -1.40625 7.09375 -1.90625 C 7.53125 -2.414062 7.75 -3.164062 7.75 -4.15625 L 7.75 -8.84375 L 9.234375 -8.84375 L 9.234375 -4.109375 C 9.234375 -3.347656 9.132812 -2.691406 8.9375 -2.140625 C 8.738281 -1.585938 8.457031 -1.132812 8.09375 -0.78125 C 7.738281 -0.425781 7.316406 -0.164062 6.828125 0 C 6.335938 0.164062 5.800781 0.25 5.21875 0.25 Z M 5.21875 0.25 "/></g></g></g><g fill="#2f6d88" fill-opacity="1"><g transform="translate(245.779473, 98.245905)"><g><path d="M 2.921875 0 L 1.4375 0 L 1.4375 -12.21875 L 2.921875 -12.21875 Z M 2.921875 0 "/></g></g></g><g fill="#2f6d88" fill-opacity="1"><g transform="translate(250.128958, 98.245905)"><g><path d="M 5.28125 0.25 C 4.625 0.25 4.015625 0.128906 3.453125 -0.109375 C 2.898438 -0.347656 2.414062 -0.679688 2 -1.109375 C 1.582031 -1.535156 1.257812 -2.03125 1.03125 -2.59375 C 0.800781 -3.164062 0.6875 -3.773438 0.6875 -4.421875 C 0.6875 -5.066406 0.800781 -5.671875 1.03125 -6.234375 C 1.257812 -6.796875 1.582031 -7.289062 2 -7.71875 C 2.414062 -8.144531 2.898438 -8.476562 3.453125 -8.71875 C 4.015625 -8.96875 4.625 -9.09375 5.28125 -9.09375 C 5.9375 -9.09375 6.546875 -8.972656 7.109375 -8.734375 C 7.671875 -8.492188 8.160156 -8.160156 8.578125 -7.734375 C 8.992188 -7.304688 9.316406 -6.804688 9.546875 -6.234375 C 9.773438 -5.671875 9.890625 -5.066406 9.890625 -4.421875 C 9.890625 -3.773438 9.773438 -3.164062 9.546875 -2.59375 C 9.316406 -2.03125 8.992188 -1.535156 8.578125 -1.109375 C 8.160156 -0.679688 7.671875 -0.347656 7.109375 -0.109375 C 6.546875 0.128906 5.9375 0.25 5.28125 0.25 Z M 5.296875 -1.15625 C 5.734375 -1.15625 6.140625 -1.234375 6.515625 -1.390625 C 6.890625 -1.554688 7.21875 -1.785156 7.5 -2.078125 C 7.789062 -2.367188 8.007812 -2.710938 8.15625 -3.109375 C 8.3125 -3.515625 8.390625 -3.953125 8.390625 -4.421875 C 8.390625 -4.890625 8.3125 -5.320312 8.15625 -5.71875 C 8.007812 -6.113281 7.789062 -6.457031 7.5 -6.75 C 7.21875 -7.039062 6.890625 -7.269531 6.515625 -7.4375 C 6.140625 -7.601562 5.734375 -7.6875 5.296875 -7.6875 C 4.859375 -7.6875 4.445312 -7.601562 4.0625 -7.4375 C 3.6875 -7.269531 3.359375 -7.039062 3.078125 -6.75 C 2.796875 -6.457031 2.570312 -6.113281 2.40625 -5.71875 C 2.25 -5.320312 2.171875 -4.890625 2.171875 -4.421875 C 2.171875 -3.953125 2.25 -3.515625 2.40625 -3.109375 C 2.570312 -2.710938 2.796875 -2.367188 3.078125 -2.078125 C 3.359375 -1.785156 3.6875 -1.554688 4.0625 -1.390625 C 4.445312 -1.234375 4.859375 -1.15625 5.296875 -1.15625 Z M 5.296875 -1.15625 "/></g></g></g><g fill="#2f6d88" fill-opacity="1"><g transform="translate(305.805283, 98.245905)"><g><path d="M 6.84375 0.234375 C 6.15625 0.234375 5.5 0.132812 4.875 -0.0625 C 4.257812 -0.269531 3.695312 -0.5625 3.1875 -0.9375 C 2.675781 -1.320312 2.234375 -1.769531 1.859375 -2.28125 C 1.492188 -2.789062 1.207031 -3.347656 1 -3.953125 C 0.800781 -4.566406 0.703125 -5.21875 0.703125 -5.90625 C 0.703125 -6.59375 0.800781 -7.242188 1 -7.859375 C 1.207031 -8.472656 1.492188 -9.035156 1.859375 -9.546875 C 2.234375 -10.054688 2.675781 -10.5 3.1875 -10.875 C 3.695312 -11.25 4.257812 -11.535156 4.875 -11.734375 C 5.5 -11.941406 6.15625 -12.046875 6.84375 -12.046875 C 7.46875 -12.046875 8.078125 -11.957031 8.671875 -11.78125 C 9.265625 -11.601562 9.8125 -11.335938 10.3125 -10.984375 C 10.820312 -10.628906 11.253906 -10.179688 11.609375 -9.640625 C 11.972656 -9.109375 12.226562 -8.488281 12.375 -7.78125 L 10.8125 -7.78125 C 10.632812 -8.414062 10.347656 -8.941406 9.953125 -9.359375 C 9.566406 -9.785156 9.101562 -10.101562 8.5625 -10.3125 C 8.019531 -10.53125 7.429688 -10.640625 6.796875 -10.640625 C 6.160156 -10.640625 5.5625 -10.519531 5 -10.28125 C 4.445312 -10.050781 3.960938 -9.722656 3.546875 -9.296875 C 3.140625 -8.878906 2.816406 -8.378906 2.578125 -7.796875 C 2.347656 -7.222656 2.234375 -6.59375 2.234375 -5.90625 C 2.234375 -5.207031 2.347656 -4.566406 2.578125 -3.984375 C 2.816406 -3.410156 3.140625 -2.914062 3.546875 -2.5 C 3.960938 -2.082031 4.445312 -1.757812 5 -1.53125 C 5.5625 -1.300781 6.160156 -1.1875 6.796875 -1.1875 C 7.429688 -1.1875 8.019531 -1.289062 8.5625 -1.5 C 9.101562 -1.707031 9.566406 -2.019531 9.953125 -2.4375 C 10.347656 -2.863281 10.628906 -3.394531 10.796875 -4.03125 L 12.375 -4.03125 C 12.226562 -3.320312 11.972656 -2.695312 11.609375 -2.15625 C 11.253906 -1.625 10.828125 -1.179688 10.328125 -0.828125 C 9.828125 -0.472656 9.28125 -0.207031 8.6875 -0.03125 C 8.09375 0.144531 7.476562 0.234375 6.84375 0.234375 Z M 6.84375 0.234375 "/></g></g></g><g fill="#2f6d88" fill-opacity="1"><g transform="translate(318.879731, 98.245905)"><g><path d="M 4.953125 0.25 C 4.347656 0.25 3.785156 0.128906 3.265625 -0.109375 C 2.753906 -0.347656 2.300781 -0.679688 1.90625 -1.109375 C 1.519531 -1.535156 1.21875 -2.03125 1 -2.59375 C 0.789062 -3.164062 0.6875 -3.773438 0.6875 -4.421875 C 0.6875 -5.066406 0.789062 -5.671875 1 -6.234375 C 1.21875 -6.796875 1.519531 -7.289062 1.90625 -7.71875 C 2.300781 -8.144531 2.753906 -8.476562 3.265625 -8.71875 C 3.785156 -8.957031 4.347656 -9.078125 4.953125 -9.078125 C 5.484375 -9.078125 5.972656 -8.988281 6.421875 -8.8125 C 6.878906 -8.644531 7.285156 -8.398438 7.640625 -8.078125 C 7.992188 -7.753906 8.265625 -7.375 8.453125 -6.9375 L 8.453125 -8.84375 L 9.890625 -8.84375 L 9.890625 0 L 8.453125 0 L 8.453125 -1.875 C 8.265625 -1.445312 7.992188 -1.070312 7.640625 -0.75 C 7.285156 -0.425781 6.878906 -0.175781 6.421875 0 C 5.972656 0.164062 5.484375 0.25 4.953125 0.25 Z M 5.28125 -1.140625 C 5.71875 -1.140625 6.125 -1.222656 6.5 -1.390625 C 6.882812 -1.554688 7.21875 -1.785156 7.5 -2.078125 C 7.78125 -2.378906 8 -2.726562 8.15625 -3.125 C 8.320312 -3.53125 8.40625 -3.960938 8.40625 -4.421875 C 8.40625 -4.878906 8.320312 -5.304688 8.15625 -5.703125 C 8 -6.097656 7.773438 -6.441406 7.484375 -6.734375 C 7.203125 -7.035156 6.875 -7.269531 6.5 -7.4375 C 6.125 -7.601562 5.722656 -7.6875 5.296875 -7.6875 C 4.859375 -7.6875 4.453125 -7.609375 4.078125 -7.453125 C 3.703125 -7.296875 3.367188 -7.066406 3.078125 -6.765625 C 2.796875 -6.472656 2.570312 -6.128906 2.40625 -5.734375 C 2.25 -5.335938 2.171875 -4.898438 2.171875 -4.421875 C 2.171875 -3.929688 2.25 -3.484375 2.40625 -3.078125 C 2.570312 -2.679688 2.796875 -2.335938 3.078125 -2.046875 C 3.367188 -1.753906 3.703125 -1.53125 4.078125 -1.375 C 4.460938 -1.21875 4.863281 -1.140625 5.28125 -1.140625 Z M 5.28125 -1.140625 "/></g></g></g><g fill="#2f6d88" fill-opacity="1"><g transform="translate(330.195323, 98.245905)"><g><path d="M 2.921875 0 L 1.4375 0 L 1.4375 -8.84375 L 2.859375 -8.84375 L 2.859375 -7.140625 C 3.023438 -7.515625 3.269531 -7.847656 3.59375 -8.140625 C 3.914062 -8.441406 4.289062 -8.675781 4.71875 -8.84375 C 5.15625 -9.007812 5.625 -9.09375 6.125 -9.09375 C 7.289062 -9.09375 8.175781 -8.726562 8.78125 -8 C 9.394531 -7.28125 9.703125 -6.210938 9.703125 -4.796875 L 9.703125 0 L 8.203125 0 L 8.203125 -4.765625 C 8.203125 -5.785156 7.984375 -6.53125 7.546875 -7 C 7.109375 -7.46875 6.503906 -7.703125 5.734375 -7.703125 C 5.367188 -7.703125 5.015625 -7.628906 4.671875 -7.484375 C 4.335938 -7.347656 4.035156 -7.144531 3.765625 -6.875 C 3.503906 -6.613281 3.296875 -6.296875 3.140625 -5.921875 C 2.992188 -5.546875 2.921875 -5.117188 2.921875 -4.640625 Z M 2.921875 0 "/></g></g></g><g fill="#2f6d88" fill-opacity="1"><g transform="translate(341.216328, 98.245905)"><g><path d="M 5.03125 0.25 C 4.40625 0.25 3.828125 0.128906 3.296875 -0.109375 C 2.773438 -0.347656 2.316406 -0.679688 1.921875 -1.109375 C 1.523438 -1.535156 1.21875 -2.03125 1 -2.59375 C 0.789062 -3.164062 0.6875 -3.773438 0.6875 -4.421875 C 0.6875 -5.066406 0.789062 -5.671875 1 -6.234375 C 1.21875 -6.796875 1.519531 -7.289062 1.90625 -7.71875 C 2.300781 -8.144531 2.765625 -8.476562 3.296875 -8.71875 C 3.828125 -8.96875 4.410156 -9.09375 5.046875 -9.09375 C 5.597656 -9.09375 6.097656 -8.988281 6.546875 -8.78125 C 6.992188 -8.570312 7.375 -8.304688 7.6875 -7.984375 C 8.007812 -7.671875 8.253906 -7.335938 8.421875 -6.984375 L 8.390625 -7.828125 L 8.390625 -12.203125 L 9.875 -12.203125 L 9.875 0 L 8.453125 0 L 8.453125 -1.875 C 8.265625 -1.476562 8.003906 -1.117188 7.671875 -0.796875 C 7.335938 -0.484375 6.945312 -0.226562 6.5 -0.03125 C 6.0625 0.15625 5.570312 0.25 5.03125 0.25 Z M 5.28125 -1.140625 C 5.707031 -1.140625 6.109375 -1.222656 6.484375 -1.390625 C 6.867188 -1.554688 7.203125 -1.785156 7.484375 -2.078125 C 7.773438 -2.378906 8 -2.726562 8.15625 -3.125 C 8.320312 -3.53125 8.40625 -3.960938 8.40625 -4.421875 C 8.40625 -4.878906 8.320312 -5.304688 8.15625 -5.703125 C 8 -6.097656 7.773438 -6.441406 7.484375 -6.734375 C 7.203125 -7.035156 6.867188 -7.269531 6.484375 -7.4375 C 6.109375 -7.613281 5.707031 -7.703125 5.28125 -7.703125 C 4.84375 -7.703125 4.4375 -7.617188 4.0625 -7.453125 C 3.6875 -7.285156 3.351562 -7.050781 3.0625 -6.75 C 2.78125 -6.457031 2.5625 -6.113281 2.40625 -5.71875 C 2.25 -5.320312 2.171875 -4.890625 2.171875 -4.421875 C 2.171875 -3.960938 2.25 -3.53125 2.40625 -3.125 C 2.5625 -2.726562 2.773438 -2.378906 3.046875 -2.078125 C 3.328125 -1.785156 3.65625 -1.554688 4.03125 -1.390625 C 4.414062 -1.222656 4.832031 -1.140625 5.28125 -1.140625 Z M 5.28125 -1.140625 "/></g></g></g><g fill="#2f6d88" fill-opacity="1"><g transform="translate(352.523256, 98.245905)"><g><path d="M 2.171875 -10.5625 C 1.859375 -10.5625 1.609375 -10.65625 1.421875 -10.84375 C 1.242188 -11.03125 1.15625 -11.253906 1.15625 -11.515625 C 1.15625 -11.773438 1.242188 -12 1.421875 -12.1875 C 1.609375 -12.375 1.859375 -12.46875 2.171875 -12.46875 C 2.492188 -12.46875 2.742188 -12.375 2.921875 -12.1875 C 3.109375 -12 3.203125 -11.773438 3.203125 -11.515625 C 3.203125 -11.253906 3.109375 -11.03125 2.921875 -10.84375 C 2.742188 -10.65625 2.492188 -10.5625 2.171875 -10.5625 Z M 2.921875 0 L 1.4375 0 L 1.4375 -8.84375 L 2.921875 -8.84375 Z M 2.921875 0 "/></g></g></g><g fill="#2f6d88" fill-opacity="1"><g transform="translate(356.872741, 98.245905)"><g><path d="M 5.03125 0.25 C 4.40625 0.25 3.828125 0.128906 3.296875 -0.109375 C 2.773438 -0.347656 2.316406 -0.679688 1.921875 -1.109375 C 1.523438 -1.535156 1.21875 -2.03125 1 -2.59375 C 0.789062 -3.164062 0.6875 -3.773438 0.6875 -4.421875 C 0.6875 -5.066406 0.789062 -5.671875 1 -6.234375 C 1.21875 -6.796875 1.519531 -7.289062 1.90625 -7.71875 C 2.300781 -8.144531 2.765625 -8.476562 3.296875 -8.71875 C 3.828125 -8.96875 4.410156 -9.09375 5.046875 -9.09375 C 5.597656 -9.09375 6.097656 -8.988281 6.546875 -8.78125 C 6.992188 -8.570312 7.375 -8.304688 7.6875 -7.984375 C 8.007812 -7.671875 8.253906 -7.335938 8.421875 -6.984375 L 8.390625 -7.828125 L 8.390625 -12.203125 L 9.875 -12.203125 L 9.875 0 L 8.453125 0 L 8.453125 -1.875 C 8.265625 -1.476562 8.003906 -1.117188 7.671875 -0.796875 C 7.335938 -0.484375 6.945312 -0.226562 6.5 -0.03125 C 6.0625 0.15625 5.570312 0.25 5.03125 0.25 Z M 5.28125 -1.140625 C 5.707031 -1.140625 6.109375 -1.222656 6.484375 -1.390625 C 6.867188 -1.554688 7.203125 -1.785156 7.484375 -2.078125 C 7.773438 -2.378906 8 -2.726562 8.15625 -3.125 C 8.320312 -3.53125 8.40625 -3.960938 8.40625 -4.421875 C 8.40625 -4.878906 8.320312 -5.304688 8.15625 -5.703125 C 8 -6.097656 7.773438 -6.441406 7.484375 -6.734375 C 7.203125 -7.035156 6.867188 -7.269531 6.484375 -7.4375 C 6.109375 -7.613281 5.707031 -7.703125 5.28125 -7.703125 C 4.84375 -7.703125 4.4375 -7.617188 4.0625 -7.453125 C 3.6875 -7.285156 3.351562 -7.050781 3.0625 -6.75 C 2.78125 -6.457031 2.5625 -6.113281 2.40625 -5.71875 C 2.25 -5.320312 2.171875 -4.890625 2.171875 -4.421875 C 2.171875 -3.960938 2.25 -3.53125 2.40625 -3.125 C 2.5625 -2.726562 2.773438 -2.378906 3.046875 -2.078125 C 3.328125 -1.785156 3.65625 -1.554688 4.03125 -1.390625 C 4.414062 -1.222656 4.832031 -1.140625 5.28125 -1.140625 Z M 5.28125 -1.140625 "/></g></g></g><g fill="#2f6d88" fill-opacity="1"><g transform="translate(368.179669, 98.245905)"><g><path d="M 4.953125 0.25 C 4.347656 0.25 3.785156 0.128906 3.265625 -0.109375 C 2.753906 -0.347656 2.300781 -0.679688 1.90625 -1.109375 C 1.519531 -1.535156 1.21875 -2.03125 1 -2.59375 C 0.789062 -3.164062 0.6875 -3.773438 0.6875 -4.421875 C 0.6875 -5.066406 0.789062 -5.671875 1 -6.234375 C 1.21875 -6.796875 1.519531 -7.289062 1.90625 -7.71875 C 2.300781 -8.144531 2.753906 -8.476562 3.265625 -8.71875 C 3.785156 -8.957031 4.347656 -9.078125 4.953125 -9.078125 C 5.484375 -9.078125 5.972656 -8.988281 6.421875 -8.8125 C 6.878906 -8.644531 7.285156 -8.398438 7.640625 -8.078125 C 7.992188 -7.753906 8.265625 -7.375 8.453125 -6.9375 L 8.453125 -8.84375 L 9.890625 -8.84375 L 9.890625 0 L 8.453125 0 L 8.453125 -1.875 C 8.265625 -1.445312 7.992188 -1.070312 7.640625 -0.75 C 7.285156 -0.425781 6.878906 -0.175781 6.421875 0 C 5.972656 0.164062 5.484375 0.25 4.953125 0.25 Z M 5.28125 -1.140625 C 5.71875 -1.140625 6.125 -1.222656 6.5 -1.390625 C 6.882812 -1.554688 7.21875 -1.785156 7.5 -2.078125 C 7.78125 -2.378906 8 -2.726562 8.15625 -3.125 C 8.320312 -3.53125 8.40625 -3.960938 8.40625 -4.421875 C 8.40625 -4.878906 8.320312 -5.304688 8.15625 -5.703125 C 8 -6.097656 7.773438 -6.441406 7.484375 -6.734375 C 7.203125 -7.035156 6.875 -7.269531 6.5 -7.4375 C 6.125 -7.601562 5.722656 -7.6875 5.296875 -7.6875 C 4.859375 -7.6875 4.453125 -7.609375 4.078125 -7.453125 C 3.703125 -7.296875 3.367188 -7.066406 3.078125 -6.765625 C 2.796875 -6.472656 2.570312 -6.128906 2.40625 -5.734375 C 2.25 -5.335938 2.171875 -4.898438 2.171875 -4.421875 C 2.171875 -3.929688 2.25 -3.484375 2.40625 -3.078125 C 2.570312 -2.679688 2.796875 -2.335938 3.078125 -2.046875 C 3.367188 -1.753906 3.703125 -1.53125 4.078125 -1.375 C 4.460938 -1.21875 4.863281 -1.140625 5.28125 -1.140625 Z M 5.28125 -1.140625 "/></g></g></g><g fill="#2f6d88" fill-opacity="1"><g transform="translate(379.495261, 98.245905)"><g><path d="M 6.46875 0 L 4.84375 0 C 4.507812 0 4.175781 -0.0390625 3.84375 -0.125 C 3.519531 -0.21875 3.222656 -0.378906 2.953125 -0.609375 C 2.679688 -0.835938 2.460938 -1.164062 2.296875 -1.59375 C 2.140625 -2.03125 2.0625 -2.59375 2.0625 -3.28125 L 2.0625 -7.53125 L 0.09375 -7.53125 L 0.09375 -8.84375 L 2.0625 -8.84375 L 2.0625 -11.46875 L 3.546875 -11.46875 L 3.546875 -8.84375 L 6.46875 -8.84375 L 6.46875 -7.53125 L 3.546875 -7.53125 L 3.546875 -3.203125 C 3.546875 -2.796875 3.59375 -2.460938 3.6875 -2.203125 C 3.78125 -1.941406 3.898438 -1.742188 4.046875 -1.609375 C 4.203125 -1.472656 4.375 -1.378906 4.5625 -1.328125 C 4.75 -1.285156 4.941406 -1.265625 5.140625 -1.265625 L 6.46875 -1.265625 Z M 6.46875 0 "/></g></g></g><g fill="#2f6d88" fill-opacity="1"><g transform="translate(386.183997, 98.245905)"><g><path d="M 4.953125 0.25 C 4.347656 0.25 3.785156 0.128906 3.265625 -0.109375 C 2.753906 -0.347656 2.300781 -0.679688 1.90625 -1.109375 C 1.519531 -1.535156 1.21875 -2.03125 1 -2.59375 C 0.789062 -3.164062 0.6875 -3.773438 0.6875 -4.421875 C 0.6875 -5.066406 0.789062 -5.671875 1 -6.234375 C 1.21875 -6.796875 1.519531 -7.289062 1.90625 -7.71875 C 2.300781 -8.144531 2.753906 -8.476562 3.265625 -8.71875 C 3.785156 -8.957031 4.347656 -9.078125 4.953125 -9.078125 C 5.484375 -9.078125 5.972656 -8.988281 6.421875 -8.8125 C 6.878906 -8.644531 7.285156 -8.398438 7.640625 -8.078125 C 7.992188 -7.753906 8.265625 -7.375 8.453125 -6.9375 L 8.453125 -8.84375 L 9.890625 -8.84375 L 9.890625 0 L 8.453125 0 L 8.453125 -1.875 C 8.265625 -1.445312 7.992188 -1.070312 7.640625 -0.75 C 7.285156 -0.425781 6.878906 -0.175781 6.421875 0 C 5.972656 0.164062 5.484375 0.25 4.953125 0.25 Z M 5.28125 -1.140625 C 5.71875 -1.140625 6.125 -1.222656 6.5 -1.390625 C 6.882812 -1.554688 7.21875 -1.785156 7.5 -2.078125 C 7.78125 -2.378906 8 -2.726562 8.15625 -3.125 C 8.320312 -3.53125 8.40625 -3.960938 8.40625 -4.421875 C 8.40625 -4.878906 8.320312 -5.304688 8.15625 -5.703125 C 8 -6.097656 7.773438 -6.441406 7.484375 -6.734375 C 7.203125 -7.035156 6.875 -7.269531 6.5 -7.4375 C 6.125 -7.601562 5.722656 -7.6875 5.296875 -7.6875 C 4.859375 -7.6875 4.453125 -7.609375 4.078125 -7.453125 C 3.703125 -7.296875 3.367188 -7.066406 3.078125 -6.765625 C 2.796875 -6.472656 2.570312 -6.128906 2.40625 -5.734375 C 2.25 -5.335938 2.171875 -4.898438 2.171875 -4.421875 C 2.171875 -3.929688 2.25 -3.484375 2.40625 -3.078125 C 2.570312 -2.679688 2.796875 -2.335938 3.078125 -2.046875 C 3.367188 -1.753906 3.703125 -1.53125 4.078125 -1.375 C 4.460938 -1.21875 4.863281 -1.140625 5.28125 -1.140625 Z M 5.28125 -1.140625 "/></g></g></g><g fill="#2f6d88" fill-opacity="1"><g transform="translate(397.499589, 98.245905)"><g><path d="M 2.921875 0 L 1.4375 0 L 1.4375 -8.84375 L 2.875 -8.84375 L 2.875 -6.859375 C 3.09375 -7.472656 3.429688 -7.957031 3.890625 -8.3125 C 4.359375 -8.664062 4.914062 -8.84375 5.5625 -8.84375 L 6.40625 -8.84375 L 6.40625 -7.53125 L 5.640625 -7.53125 C 5.117188 -7.53125 4.648438 -7.394531 4.234375 -7.125 C 3.828125 -6.863281 3.503906 -6.476562 3.265625 -5.96875 C 3.035156 -5.46875 2.921875 -4.863281 2.921875 -4.15625 Z M 2.921875 0 "/></g></g></g><g fill="#2f6d88" fill-opacity="1"><g transform="translate(404.223095, 98.245905)"><g><path d="M 6.625 -4.09375 L 1.015625 -4.09375 L 1.015625 -5.34375 L 6.625 -5.34375 Z M 6.625 -4.09375 "/></g></g></g><g fill="#2f6d88" fill-opacity="1"><g transform="translate(411.873683, 98.245905)"><g><path d="M 4.375 0.25 C 3.757812 0.25 3.21875 0.164062 2.75 0 C 2.289062 -0.164062 1.90625 -0.382812 1.59375 -0.65625 C 1.289062 -0.9375 1.0625 -1.253906 0.90625 -1.609375 C 0.757812 -1.972656 0.6875 -2.34375 0.6875 -2.71875 L 2.125 -2.703125 C 2.125 -2.390625 2.210938 -2.097656 2.390625 -1.828125 C 2.566406 -1.566406 2.820312 -1.359375 3.15625 -1.203125 C 3.5 -1.046875 3.910156 -0.96875 4.390625 -0.96875 C 5.066406 -0.96875 5.570312 -1.097656 5.90625 -1.359375 C 6.25 -1.617188 6.421875 -1.972656 6.421875 -2.421875 C 6.421875 -2.742188 6.332031 -3 6.15625 -3.1875 C 5.976562 -3.375 5.722656 -3.519531 5.390625 -3.625 C 5.054688 -3.726562 4.65625 -3.816406 4.1875 -3.890625 C 3.78125 -3.953125 3.390625 -4.039062 3.015625 -4.15625 C 2.648438 -4.269531 2.320312 -4.425781 2.03125 -4.625 C 1.738281 -4.820312 1.507812 -5.070312 1.34375 -5.375 C 1.175781 -5.675781 1.09375 -6.050781 1.09375 -6.5 C 1.09375 -6.988281 1.207031 -7.425781 1.4375 -7.8125 C 1.675781 -8.195312 2.03125 -8.503906 2.5 -8.734375 C 2.976562 -8.972656 3.566406 -9.09375 4.265625 -9.09375 C 4.941406 -9.09375 5.535156 -8.976562 6.046875 -8.75 C 6.554688 -8.519531 6.953125 -8.207031 7.234375 -7.8125 C 7.515625 -7.414062 7.65625 -6.957031 7.65625 -6.4375 L 6.203125 -6.4375 C 6.171875 -6.863281 5.984375 -7.203125 5.640625 -7.453125 C 5.304688 -7.710938 4.847656 -7.84375 4.265625 -7.84375 C 3.878906 -7.84375 3.5625 -7.78125 3.3125 -7.65625 C 3.070312 -7.539062 2.890625 -7.382812 2.765625 -7.1875 C 2.640625 -6.988281 2.578125 -6.769531 2.578125 -6.53125 C 2.578125 -6.257812 2.640625 -6.03125 2.765625 -5.84375 C 2.890625 -5.664062 3.101562 -5.519531 3.40625 -5.40625 C 3.71875 -5.300781 4.148438 -5.203125 4.703125 -5.109375 C 5.097656 -5.046875 5.488281 -4.960938 5.875 -4.859375 C 6.269531 -4.753906 6.617188 -4.609375 6.921875 -4.421875 C 7.234375 -4.242188 7.476562 -4 7.65625 -3.6875 C 7.84375 -3.375 7.9375 -2.976562 7.9375 -2.5 C 7.9375 -1.894531 7.785156 -1.382812 7.484375 -0.96875 C 7.179688 -0.5625 6.765625 -0.253906 6.234375 -0.046875 C 5.703125 0.148438 5.082031 0.25 4.375 0.25 Z M 4.375 0.25 "/></g></g></g><g fill="#2f6d88" fill-opacity="1"><g transform="translate(420.416695, 98.245905)"><g><path d="M 9.546875 -4.640625 C 9.546875 -4.566406 9.546875 -4.484375 9.546875 -4.390625 C 9.546875 -4.304688 9.539062 -4.1875 9.53125 -4.03125 L 2.1875 -4.03125 C 2.25 -3.4375 2.421875 -2.921875 2.703125 -2.484375 C 2.992188 -2.054688 3.351562 -1.722656 3.78125 -1.484375 C 4.207031 -1.253906 4.660156 -1.140625 5.140625 -1.140625 C 5.742188 -1.140625 6.253906 -1.269531 6.671875 -1.53125 C 7.097656 -1.789062 7.40625 -2.164062 7.59375 -2.65625 L 9.28125 -2.65625 C 9.144531 -2.25 8.953125 -1.867188 8.703125 -1.515625 C 8.453125 -1.171875 8.148438 -0.863281 7.796875 -0.59375 C 7.441406 -0.332031 7.039062 -0.128906 6.59375 0.015625 C 6.15625 0.171875 5.6875 0.25 5.1875 0.25 C 4.539062 0.25 3.941406 0.128906 3.390625 -0.109375 C 2.847656 -0.359375 2.375 -0.695312 1.96875 -1.125 C 1.5625 -1.550781 1.242188 -2.046875 1.015625 -2.609375 C 0.796875 -3.171875 0.6875 -3.773438 0.6875 -4.421875 C 0.6875 -5.066406 0.796875 -5.671875 1.015625 -6.234375 C 1.242188 -6.796875 1.5625 -7.289062 1.96875 -7.71875 C 2.375 -8.144531 2.847656 -8.476562 3.390625 -8.71875 C 3.941406 -8.96875 4.539062 -9.09375 5.1875 -9.09375 C 5.820312 -9.09375 6.40625 -8.972656 6.9375 -8.734375 C 7.46875 -8.492188 7.925781 -8.164062 8.3125 -7.75 C 8.707031 -7.34375 9.007812 -6.867188 9.21875 -6.328125 C 9.4375 -5.796875 9.546875 -5.234375 9.546875 -4.640625 Z M 2.265625 -5.34375 L 8.03125 -5.34375 C 8 -5.65625 7.90625 -5.953125 7.75 -6.234375 C 7.59375 -6.523438 7.382812 -6.773438 7.125 -6.984375 C 6.863281 -7.203125 6.5625 -7.375 6.21875 -7.5 C 5.882812 -7.625 5.53125 -7.6875 5.15625 -7.6875 C 4.71875 -7.6875 4.296875 -7.597656 3.890625 -7.421875 C 3.492188 -7.242188 3.148438 -6.976562 2.859375 -6.625 C 2.578125 -6.28125 2.378906 -5.851562 2.265625 -5.34375 Z M 2.265625 -5.34375 "/></g></g></g></svg>