<svg xmlns="http://www.w3.org/2000/svg" xmlns:xlink="http://www.w3.org/1999/xlink" width="462" zoomAndPan="magnify" viewBox="0 0 346.5 236.249991" height="315" preserveAspectRatio="xMidYMid meet" version="1.0"><defs><filter x="0%" y="0%" width="100%" height="100%" id="a0377f2677"><feColorMatrix values="0 0 0 0 1 0 0 0 0 1 0 0 0 0 1 0 0 0 1 0" color-interpolation-filters="sRGB"/></filter><g/><mask id="ca62db075b"><g filter="url(#a0377f2677)"><rect x="-34.65" width="415.8" fill="#000000" y="-23.624999" height="283.499989" fill-opacity="0.43"/></g></mask><clipPath id="a26c59bbce"><path d="M 0.351562 0.132812 L 203.707031 0.132812 L 203.707031 20.707031 L 0.351562 20.707031 Z M 0.351562 0.132812 " clip-rule="nonzero"/></clipPath><clipPath id="32185a850e"><path d="M 107 0.132812 L 110 0.132812 L 110 17 L 107 17 Z M 107 0.132812 " clip-rule="nonzero"/></clipPath><clipPath id="c86a2a8647"><path d="M 187 0.132812 L 191 0.132812 L 191 17 L 187 17 Z M 187 0.132812 " clip-rule="nonzero"/></clipPath><clipPath id="7720ebd582"><rect x="0" width="204" y="0" height="21"/></clipPath><clipPath id="3d4eb8b94b"><rect x="0" width="204" y="0" height="21"/></clipPath><clipPath id="a106dacede"><path d="M 53 29 L 345.703125 29 L 345.703125 109 L 53 109 Z M 53 29 " clip-rule="nonzero"/></clipPath><clipPath id="9b779b5c5c"><path d="M 0.410156 0.425781 L 70 0.425781 L 70 70 L 0.410156 70 Z M 0.410156 0.425781 " clip-rule="nonzero"/></clipPath><clipPath id="168af1551a"><path d="M 79 0.425781 L 149 0.425781 L 149 70 L 79 70 Z M 79 0.425781 " clip-rule="nonzero"/></clipPath><clipPath id="73e9124225"><path d="M 158 0.425781 L 228 0.425781 L 228 70 L 158 70 Z M 158 0.425781 " clip-rule="nonzero"/></clipPath><clipPath id="9b2ece0f5d"><path d="M 237 79 L 238 79 L 238 79.613281 L 237 79.613281 Z M 237 79 " clip-rule="nonzero"/></clipPath><clipPath id="f934fd62b3"><rect x="0" width="293" y="0" height="80"/></clipPath></defs><g fill="#000000" fill-opacity="1"><g transform="translate(32.145333, 154.558159)"><g><path d="M 20.765625 0 L 17.84375 0 L 15.84375 -4.796875 L 5.140625 -4.796875 L 3.125 0 L 0.203125 0 L 9.171875 -21.171875 L 11.8125 -21.171875 Z M 10.390625 -17.296875 L 6.125 -7.125 L 14.859375 -7.125 L 10.59375 -17.296875 L 10.515625 -17.65625 L 10.484375 -17.65625 Z M 10.390625 -17.296875 "/></g></g></g><g fill="#000000" fill-opacity="1"><g transform="translate(53.120481, 154.558159)"><g/></g></g><g fill="#000000" fill-opacity="1"><g transform="translate(60.999786, 154.558159)"><g><path d="M 5.25 5.421875 L 2.5625 5.421875 L 2.5625 -15.890625 L 5.140625 -15.890625 L 5.140625 -12.484375 C 5.515625 -13.222656 6 -13.878906 6.59375 -14.453125 C 7.195312 -15.035156 7.894531 -15.488281 8.6875 -15.8125 C 9.488281 -16.144531 10.347656 -16.3125 11.265625 -16.3125 C 12.378906 -16.3125 13.410156 -16.097656 14.359375 -15.671875 C 15.316406 -15.242188 16.148438 -14.644531 16.859375 -13.875 C 17.566406 -13.101562 18.113281 -12.210938 18.5 -11.203125 C 18.894531 -10.191406 19.09375 -9.101562 19.09375 -7.9375 C 19.09375 -6.78125 18.894531 -5.691406 18.5 -4.671875 C 18.101562 -3.648438 17.550781 -2.753906 16.84375 -1.984375 C 16.144531 -1.222656 15.320312 -0.625 14.375 -0.1875 C 13.425781 0.238281 12.398438 0.453125 11.296875 0.453125 C 10.421875 0.453125 9.585938 0.300781 8.796875 0 C 8.003906 -0.3125 7.300781 -0.75 6.6875 -1.3125 C 6.070312 -1.882812 5.578125 -2.550781 5.203125 -3.3125 L 5.25 -1.53125 Z M 10.828125 -2.046875 C 11.585938 -2.046875 12.304688 -2.1875 12.984375 -2.46875 C 13.660156 -2.75 14.253906 -3.148438 14.765625 -3.671875 C 15.285156 -4.203125 15.691406 -4.828125 15.984375 -5.546875 C 16.273438 -6.273438 16.421875 -7.070312 16.421875 -7.9375 C 16.421875 -8.800781 16.273438 -9.59375 15.984375 -10.3125 C 15.703125 -11.03125 15.300781 -11.648438 14.78125 -12.171875 C 14.269531 -12.691406 13.675781 -13.097656 13 -13.390625 C 12.320312 -13.679688 11.597656 -13.828125 10.828125 -13.828125 C 10.046875 -13.828125 9.316406 -13.675781 8.640625 -13.375 C 7.960938 -13.070312 7.367188 -12.648438 6.859375 -12.109375 C 6.359375 -11.578125 5.960938 -10.953125 5.671875 -10.234375 C 5.378906 -9.523438 5.234375 -8.757812 5.234375 -7.9375 C 5.234375 -7.101562 5.378906 -6.320312 5.671875 -5.59375 C 5.960938 -4.875 6.363281 -4.25 6.875 -3.71875 C 7.394531 -3.1875 7.992188 -2.773438 8.671875 -2.484375 C 9.347656 -2.191406 10.066406 -2.046875 10.828125 -2.046875 Z M 10.828125 -2.046875 "/></g></g></g><g fill="#000000" fill-opacity="1"><g transform="translate(81.336492, 154.558159)"><g><path d="M 11.65625 -17.890625 L 9.796875 -17.890625 L 12.1875 -22.296875 L 14.234375 -21.59375 Z M 8.90625 0.453125 C 7.8125 0.453125 6.800781 0.238281 5.875 -0.1875 C 4.945312 -0.625 4.132812 -1.222656 3.4375 -1.984375 C 2.738281 -2.753906 2.195312 -3.648438 1.8125 -4.671875 C 1.425781 -5.691406 1.234375 -6.78125 1.234375 -7.9375 C 1.234375 -9.101562 1.425781 -10.191406 1.8125 -11.203125 C 2.195312 -12.210938 2.738281 -13.101562 3.4375 -13.875 C 4.132812 -14.644531 4.945312 -15.242188 5.875 -15.671875 C 6.800781 -16.097656 7.804688 -16.3125 8.890625 -16.3125 C 9.847656 -16.3125 10.734375 -16.15625 11.546875 -15.84375 C 12.367188 -15.539062 13.09375 -15.097656 13.71875 -14.515625 C 14.351562 -13.941406 14.847656 -13.257812 15.203125 -12.46875 L 15.203125 -15.890625 L 17.765625 -15.890625 L 17.765625 0 L 15.203125 0 L 15.203125 -3.375 C 14.847656 -2.601562 14.351562 -1.925781 13.71875 -1.34375 C 13.09375 -0.769531 12.367188 -0.328125 11.546875 -0.015625 C 10.734375 0.296875 9.851562 0.453125 8.90625 0.453125 Z M 9.5 -2.0625 C 10.28125 -2.0625 11.007812 -2.207031 11.6875 -2.5 C 12.363281 -2.789062 12.957031 -3.203125 13.46875 -3.734375 C 13.976562 -4.273438 14.378906 -4.90625 14.671875 -5.625 C 14.960938 -6.34375 15.109375 -7.113281 15.109375 -7.9375 C 15.109375 -8.757812 14.960938 -9.523438 14.671875 -10.234375 C 14.378906 -10.953125 13.972656 -11.578125 13.453125 -12.109375 C 12.941406 -12.640625 12.347656 -13.054688 11.671875 -13.359375 C 11.003906 -13.660156 10.285156 -13.8125 9.515625 -13.8125 C 8.734375 -13.8125 8.003906 -13.664062 7.328125 -13.375 C 6.660156 -13.09375 6.066406 -12.6875 5.546875 -12.15625 C 5.023438 -11.632812 4.617188 -11.015625 4.328125 -10.296875 C 4.035156 -9.585938 3.890625 -8.800781 3.890625 -7.9375 C 3.890625 -7.0625 4.035156 -6.257812 4.328125 -5.53125 C 4.628906 -4.8125 5.035156 -4.191406 5.546875 -3.671875 C 6.066406 -3.148438 6.664062 -2.75 7.34375 -2.46875 C 8.019531 -2.195312 8.738281 -2.0625 9.5 -2.0625 Z M 9.5 -2.0625 "/></g></g></g><g fill="#000000" fill-opacity="1"><g transform="translate(101.673197, 154.558159)"><g><path d="M 9.53125 5.984375 C 8.1875 5.984375 7.039062 5.8125 6.09375 5.46875 C 5.15625 5.132812 4.378906 4.679688 3.765625 4.109375 C 3.160156 3.546875 2.707031 2.914062 2.40625 2.21875 C 2.113281 1.53125 1.945312 0.820312 1.90625 0.09375 L 4.4375 0.09375 C 4.539062 0.726562 4.769531 1.316406 5.125 1.859375 C 5.488281 2.410156 6.023438 2.851562 6.734375 3.1875 C 7.441406 3.519531 8.375 3.6875 9.53125 3.6875 C 10.5625 3.6875 11.4375 3.523438 12.15625 3.203125 C 12.875 2.890625 13.457031 2.460938 13.90625 1.921875 C 14.351562 1.378906 14.679688 0.765625 14.890625 0.078125 C 15.097656 -0.609375 15.203125 -1.320312 15.203125 -2.0625 L 15.203125 -4.015625 C 14.828125 -3.210938 14.328125 -2.535156 13.703125 -1.984375 C 13.078125 -1.429688 12.367188 -1.007812 11.578125 -0.71875 C 10.785156 -0.4375 9.9375 -0.296875 9.03125 -0.296875 C 7.90625 -0.296875 6.867188 -0.5 5.921875 -0.90625 C 4.984375 -1.320312 4.160156 -1.894531 3.453125 -2.625 C 2.742188 -3.351562 2.195312 -4.195312 1.8125 -5.15625 C 1.425781 -6.125 1.234375 -7.148438 1.234375 -8.234375 C 1.234375 -9.328125 1.421875 -10.359375 1.796875 -11.328125 C 2.179688 -12.296875 2.722656 -13.15625 3.421875 -13.90625 C 4.128906 -14.65625 4.953125 -15.242188 5.890625 -15.671875 C 6.828125 -16.097656 7.847656 -16.3125 8.953125 -16.3125 C 9.972656 -16.3125 10.890625 -16.140625 11.703125 -15.796875 C 12.523438 -15.453125 13.234375 -14.988281 13.828125 -14.40625 C 14.429688 -13.820312 14.890625 -13.175781 15.203125 -12.46875 L 15.203125 -15.890625 L 17.765625 -15.890625 L 17.765625 -2.140625 C 17.765625 -1.035156 17.59375 0.00390625 17.25 0.984375 C 16.914062 1.960938 16.410156 2.828125 15.734375 3.578125 C 15.054688 4.328125 14.195312 4.914062 13.15625 5.34375 C 12.125 5.769531 10.914062 5.984375 9.53125 5.984375 Z M 9.5 -2.65625 C 10.28125 -2.65625 11.007812 -2.800781 11.6875 -3.09375 C 12.363281 -3.382812 12.957031 -3.785156 13.46875 -4.296875 C 13.976562 -4.816406 14.378906 -5.410156 14.671875 -6.078125 C 14.960938 -6.753906 15.109375 -7.472656 15.109375 -8.234375 C 15.109375 -8.992188 14.960938 -9.707031 14.671875 -10.375 C 14.390625 -11.050781 13.988281 -11.644531 13.46875 -12.15625 C 12.957031 -12.664062 12.363281 -13.066406 11.6875 -13.359375 C 11.019531 -13.660156 10.296875 -13.8125 9.515625 -13.8125 C 8.734375 -13.8125 8.003906 -13.671875 7.328125 -13.390625 C 6.648438 -13.109375 6.050781 -12.710938 5.53125 -12.203125 C 5.019531 -11.703125 4.617188 -11.113281 4.328125 -10.4375 C 4.035156 -9.769531 3.890625 -9.035156 3.890625 -8.234375 C 3.890625 -7.441406 4.035156 -6.707031 4.328125 -6.03125 C 4.617188 -5.363281 5.019531 -4.773438 5.53125 -4.265625 C 6.039062 -3.753906 6.632812 -3.359375 7.3125 -3.078125 C 7.988281 -2.796875 8.71875 -2.65625 9.5 -2.65625 Z M 9.5 -2.65625 "/></g></g></g><g fill="#000000" fill-opacity="1"><g transform="translate(122.009903, 154.558159)"><g><path d="M 3.890625 -18.984375 C 3.335938 -18.984375 2.898438 -19.148438 2.578125 -19.484375 C 2.253906 -19.816406 2.09375 -20.21875 2.09375 -20.6875 C 2.09375 -21.15625 2.253906 -21.554688 2.578125 -21.890625 C 2.898438 -22.222656 3.34375 -22.390625 3.90625 -22.390625 C 4.476562 -22.390625 4.925781 -22.222656 5.25 -21.890625 C 5.582031 -21.554688 5.75 -21.15625 5.75 -20.6875 C 5.75 -20.21875 5.582031 -19.816406 5.25 -19.484375 C 4.925781 -19.148438 4.472656 -18.984375 3.890625 -18.984375 Z M 5.25 0 L 2.5625 0 L 2.5625 -15.890625 L 5.25 -15.890625 Z M 5.25 0 "/></g></g></g><g fill="#000000" fill-opacity="1"><g transform="translate(129.826922, 154.558159)"><g><path d="M 5.25 0 L 2.5625 0 L 2.5625 -15.890625 L 5.140625 -15.890625 L 5.140625 -12.8125 C 5.441406 -13.5 5.878906 -14.109375 6.453125 -14.640625 C 7.023438 -15.171875 7.703125 -15.582031 8.484375 -15.875 C 9.265625 -16.175781 10.101562 -16.328125 11 -16.328125 C 13.101562 -16.328125 14.695312 -15.675781 15.78125 -14.375 C 16.875 -13.070312 17.421875 -11.148438 17.421875 -8.609375 L 17.421875 0 L 14.75 0 L 14.75 -8.5625 C 14.75 -10.394531 14.351562 -11.726562 13.5625 -12.5625 C 12.769531 -13.40625 11.6875 -13.828125 10.3125 -13.828125 C 9.644531 -13.828125 9.003906 -13.703125 8.390625 -13.453125 C 7.785156 -13.203125 7.25 -12.835938 6.78125 -12.359375 C 6.3125 -11.878906 5.9375 -11.300781 5.65625 -10.625 C 5.382812 -9.957031 5.25 -9.195312 5.25 -8.34375 Z M 5.25 0 "/></g></g></g><g fill="#000000" fill-opacity="1"><g transform="translate(149.634187, 154.558159)"><g><path d="M 8.90625 0.453125 C 7.8125 0.453125 6.800781 0.238281 5.875 -0.1875 C 4.945312 -0.625 4.132812 -1.222656 3.4375 -1.984375 C 2.738281 -2.753906 2.195312 -3.648438 1.8125 -4.671875 C 1.425781 -5.691406 1.234375 -6.78125 1.234375 -7.9375 C 1.234375 -9.101562 1.425781 -10.191406 1.8125 -11.203125 C 2.195312 -12.210938 2.738281 -13.101562 3.4375 -13.875 C 4.132812 -14.644531 4.945312 -15.242188 5.875 -15.671875 C 6.800781 -16.097656 7.804688 -16.3125 8.890625 -16.3125 C 9.847656 -16.3125 10.734375 -16.15625 11.546875 -15.84375 C 12.367188 -15.539062 13.09375 -15.097656 13.71875 -14.515625 C 14.351562 -13.941406 14.847656 -13.257812 15.203125 -12.46875 L 15.203125 -15.890625 L 17.765625 -15.890625 L 17.765625 0 L 15.203125 0 L 15.203125 -3.375 C 14.847656 -2.601562 14.351562 -1.925781 13.71875 -1.34375 C 13.09375 -0.769531 12.367188 -0.328125 11.546875 -0.015625 C 10.734375 0.296875 9.851562 0.453125 8.90625 0.453125 Z M 9.5 -2.0625 C 10.28125 -2.0625 11.007812 -2.207031 11.6875 -2.5 C 12.363281 -2.789062 12.957031 -3.203125 13.46875 -3.734375 C 13.976562 -4.273438 14.378906 -4.90625 14.671875 -5.625 C 14.960938 -6.34375 15.109375 -7.113281 15.109375 -7.9375 C 15.109375 -8.757812 14.960938 -9.523438 14.671875 -10.234375 C 14.378906 -10.953125 13.972656 -11.578125 13.453125 -12.109375 C 12.941406 -12.640625 12.347656 -13.054688 11.671875 -13.359375 C 11.003906 -13.660156 10.285156 -13.8125 9.515625 -13.8125 C 8.734375 -13.8125 8.003906 -13.664062 7.328125 -13.375 C 6.660156 -13.09375 6.066406 -12.6875 5.546875 -12.15625 C 5.023438 -11.632812 4.617188 -11.015625 4.328125 -10.296875 C 4.035156 -9.585938 3.890625 -8.800781 3.890625 -7.9375 C 3.890625 -7.0625 4.035156 -6.257812 4.328125 -5.53125 C 4.628906 -4.8125 5.035156 -4.191406 5.546875 -3.671875 C 6.066406 -3.148438 6.664062 -2.75 7.34375 -2.46875 C 8.019531 -2.195312 8.738281 -2.0625 9.5 -2.0625 Z M 9.5 -2.0625 "/></g></g></g><g fill="#000000" fill-opacity="1"><g transform="translate(169.970893, 154.558159)"><g/></g></g><g fill="#000000" fill-opacity="1"><g transform="translate(177.850198, 154.558159)"><g><path d="M 17.75 5.421875 L 15.0625 5.421875 L 15.0625 -1.859375 L 15.109375 -3.3125 C 14.796875 -2.625 14.347656 -1.992188 13.765625 -1.421875 C 13.179688 -0.847656 12.488281 -0.390625 11.6875 -0.046875 C 10.894531 0.285156 10.015625 0.453125 9.046875 0.453125 C 7.921875 0.453125 6.882812 0.238281 5.9375 -0.1875 C 4.988281 -0.625 4.160156 -1.222656 3.453125 -1.984375 C 2.742188 -2.753906 2.195312 -3.648438 1.8125 -4.671875 C 1.425781 -5.691406 1.234375 -6.78125 1.234375 -7.9375 C 1.234375 -9.101562 1.421875 -10.191406 1.796875 -11.203125 C 2.179688 -12.210938 2.722656 -13.101562 3.421875 -13.875 C 4.128906 -14.644531 4.957031 -15.242188 5.90625 -15.671875 C 6.863281 -16.109375 7.914062 -16.328125 9.0625 -16.328125 C 10.0625 -16.328125 10.957031 -16.144531 11.75 -15.78125 C 12.550781 -15.414062 13.242188 -14.9375 13.828125 -14.34375 C 14.410156 -13.757812 14.863281 -13.140625 15.1875 -12.484375 L 15.1875 -15.890625 L 17.75 -15.890625 Z M 9.484375 -2.046875 C 10.265625 -2.046875 10.992188 -2.191406 11.671875 -2.484375 C 12.347656 -2.785156 12.941406 -3.203125 13.453125 -3.734375 C 13.972656 -4.273438 14.378906 -4.90625 14.671875 -5.625 C 14.960938 -6.34375 15.109375 -7.113281 15.109375 -7.9375 C 15.109375 -8.769531 14.960938 -9.539062 14.671875 -10.25 C 14.378906 -10.96875 13.972656 -11.59375 13.453125 -12.125 C 12.941406 -12.65625 12.347656 -13.070312 11.671875 -13.375 C 10.992188 -13.675781 10.265625 -13.828125 9.484375 -13.828125 C 8.703125 -13.828125 7.972656 -13.675781 7.296875 -13.375 C 6.617188 -13.082031 6.023438 -12.671875 5.515625 -12.140625 C 5.003906 -11.617188 4.601562 -11 4.3125 -10.28125 C 4.03125 -9.5625 3.890625 -8.78125 3.890625 -7.9375 C 3.890625 -7.113281 4.03125 -6.34375 4.3125 -5.625 C 4.59375 -4.90625 4.984375 -4.273438 5.484375 -3.734375 C 5.992188 -3.203125 6.585938 -2.785156 7.265625 -2.484375 C 7.941406 -2.191406 8.679688 -2.046875 9.484375 -2.046875 Z M 9.484375 -2.046875 "/></g></g></g><g fill="#000000" fill-opacity="1"><g transform="translate(198.171332, 154.558159)"><g><path d="M 9.390625 0.453125 C 8.328125 0.453125 7.351562 0.300781 6.46875 0 C 5.59375 -0.300781 4.828125 -0.765625 4.171875 -1.390625 C 3.523438 -2.023438 3.023438 -2.835938 2.671875 -3.828125 C 2.316406 -4.828125 2.140625 -6.015625 2.140625 -7.390625 L 2.140625 -15.890625 L 4.796875 -15.890625 L 4.796875 -7.46875 C 4.796875 -5.6875 5.191406 -4.34375 5.984375 -3.4375 C 6.773438 -2.53125 7.898438 -2.078125 9.359375 -2.078125 C 10.816406 -2.078125 11.941406 -2.53125 12.734375 -3.4375 C 13.523438 -4.34375 13.921875 -5.6875 13.921875 -7.46875 L 13.921875 -15.890625 L 16.59375 -15.890625 L 16.59375 -7.390625 C 16.59375 -6.015625 16.414062 -4.828125 16.0625 -3.828125 C 15.707031 -2.835938 15.203125 -2.023438 14.546875 -1.390625 C 13.898438 -0.765625 13.140625 -0.300781 12.265625 0 C 11.390625 0.300781 10.429688 0.453125 9.390625 0.453125 Z M 9.390625 0.453125 "/></g></g></g><g fill="#000000" fill-opacity="1"><g transform="translate(216.904147, 154.558159)"><g><path d="M 17.15625 -8.328125 C 17.15625 -8.191406 17.148438 -8.046875 17.140625 -7.890625 C 17.140625 -7.742188 17.128906 -7.523438 17.109375 -7.234375 L 3.9375 -7.234375 C 4.050781 -6.179688 4.363281 -5.265625 4.875 -4.484375 C 5.382812 -3.703125 6.019531 -3.101562 6.78125 -2.6875 C 7.550781 -2.269531 8.375 -2.0625 9.25 -2.0625 C 10.320312 -2.0625 11.234375 -2.289062 11.984375 -2.75 C 12.742188 -3.207031 13.300781 -3.882812 13.65625 -4.78125 L 16.65625 -4.78125 C 16.425781 -4.050781 16.085938 -3.367188 15.640625 -2.734375 C 15.191406 -2.109375 14.644531 -1.554688 14 -1.078125 C 13.363281 -0.609375 12.648438 -0.238281 11.859375 0.03125 C 11.066406 0.300781 10.21875 0.4375 9.3125 0.4375 C 8.15625 0.4375 7.085938 0.222656 6.109375 -0.203125 C 5.128906 -0.640625 4.269531 -1.238281 3.53125 -2 C 2.800781 -2.769531 2.234375 -3.660156 1.828125 -4.671875 C 1.429688 -5.691406 1.234375 -6.78125 1.234375 -7.9375 C 1.234375 -9.101562 1.429688 -10.191406 1.828125 -11.203125 C 2.234375 -12.210938 2.800781 -13.101562 3.53125 -13.875 C 4.269531 -14.644531 5.128906 -15.242188 6.109375 -15.671875 C 7.085938 -16.109375 8.15625 -16.328125 9.3125 -16.328125 C 10.457031 -16.328125 11.507812 -16.113281 12.46875 -15.6875 C 13.425781 -15.269531 14.253906 -14.6875 14.953125 -13.9375 C 15.648438 -13.1875 16.191406 -12.332031 16.578125 -11.375 C 16.960938 -10.414062 17.15625 -9.398438 17.15625 -8.328125 Z M 4.0625 -9.609375 L 14.421875 -9.609375 C 14.378906 -10.171875 14.210938 -10.703125 13.921875 -11.203125 C 13.640625 -11.710938 13.265625 -12.160156 12.796875 -12.546875 C 12.328125 -12.941406 11.789062 -13.25 11.1875 -13.46875 C 10.582031 -13.695312 9.941406 -13.8125 9.265625 -13.8125 C 8.472656 -13.8125 7.71875 -13.648438 7 -13.328125 C 6.289062 -13.003906 5.675781 -12.53125 5.15625 -11.90625 C 4.632812 -11.289062 4.269531 -10.523438 4.0625 -9.609375 Z M 4.0625 -9.609375 "/></g></g></g><g fill="#000000" fill-opacity="1"><g transform="translate(235.045236, 154.558159)"><g/></g></g><g fill="#000000" fill-opacity="1"><g transform="translate(242.924541, 154.558159)"><g><path d="M 9.1875 0 L 6.65625 0 L 0.203125 -15.890625 L 3.046875 -15.890625 L 7.53125 -4.671875 L 7.921875 -3.25 L 8.296875 -4.671875 L 12.78125 -15.890625 L 15.65625 -15.890625 Z M 9.1875 0 "/></g></g></g><g fill="#000000" fill-opacity="1"><g transform="translate(258.247097, 154.558159)"><g><path d="M 9.484375 0.453125 C 8.304688 0.453125 7.21875 0.238281 6.21875 -0.1875 C 5.21875 -0.625 4.34375 -1.222656 3.59375 -1.984375 C 2.84375 -2.753906 2.257812 -3.648438 1.84375 -4.671875 C 1.4375 -5.691406 1.234375 -6.78125 1.234375 -7.9375 C 1.234375 -9.101562 1.4375 -10.191406 1.84375 -11.203125 C 2.257812 -12.210938 2.835938 -13.101562 3.578125 -13.875 C 4.328125 -14.644531 5.203125 -15.242188 6.203125 -15.671875 C 7.203125 -16.109375 8.296875 -16.328125 9.484375 -16.328125 C 10.671875 -16.328125 11.765625 -16.113281 12.765625 -15.6875 C 13.773438 -15.257812 14.648438 -14.660156 15.390625 -13.890625 C 16.140625 -13.117188 16.722656 -12.222656 17.140625 -11.203125 C 17.554688 -10.191406 17.765625 -9.101562 17.765625 -7.9375 C 17.765625 -6.78125 17.554688 -5.691406 17.140625 -4.671875 C 16.722656 -3.648438 16.140625 -2.753906 15.390625 -1.984375 C 14.648438 -1.222656 13.773438 -0.625 12.765625 -0.1875 C 11.765625 0.238281 10.671875 0.453125 9.484375 0.453125 Z M 9.515625 -2.078125 C 10.304688 -2.078125 11.035156 -2.21875 11.703125 -2.5 C 12.378906 -2.789062 12.972656 -3.203125 13.484375 -3.734375 C 13.992188 -4.265625 14.390625 -4.890625 14.671875 -5.609375 C 14.953125 -6.328125 15.09375 -7.101562 15.09375 -7.9375 C 15.09375 -8.78125 14.953125 -9.554688 14.671875 -10.265625 C 14.390625 -10.984375 13.992188 -11.601562 13.484375 -12.125 C 12.972656 -12.65625 12.378906 -13.066406 11.703125 -13.359375 C 11.035156 -13.660156 10.304688 -13.8125 9.515625 -13.8125 C 8.722656 -13.8125 7.988281 -13.660156 7.3125 -13.359375 C 6.632812 -13.066406 6.039062 -12.65625 5.53125 -12.125 C 5.019531 -11.601562 4.617188 -10.984375 4.328125 -10.265625 C 4.046875 -9.554688 3.90625 -8.78125 3.90625 -7.9375 C 3.90625 -7.101562 4.046875 -6.328125 4.328125 -5.609375 C 4.617188 -4.890625 5.019531 -4.265625 5.53125 -3.734375 C 6.039062 -3.203125 6.632812 -2.789062 7.3125 -2.5 C 7.988281 -2.21875 8.722656 -2.078125 9.515625 -2.078125 Z M 9.515625 -2.078125 "/></g></g></g><g fill="#000000" fill-opacity="1"><g transform="translate(277.244632, 154.558159)"><g><path d="M 9.34375 0.453125 C 8.1875 0.453125 7.117188 0.234375 6.140625 -0.203125 C 5.160156 -0.640625 4.300781 -1.238281 3.5625 -2 C 2.820312 -2.769531 2.25 -3.660156 1.84375 -4.671875 C 1.4375 -5.691406 1.234375 -6.78125 1.234375 -7.9375 C 1.234375 -9.101562 1.4375 -10.191406 1.84375 -11.203125 C 2.25 -12.210938 2.820312 -13.101562 3.5625 -13.875 C 4.300781 -14.644531 5.160156 -15.242188 6.140625 -15.671875 C 7.117188 -16.109375 8.1875 -16.328125 9.34375 -16.328125 C 10.613281 -16.328125 11.757812 -16.082031 12.78125 -15.59375 C 13.8125 -15.113281 14.6875 -14.445312 15.40625 -13.59375 C 16.125 -12.75 16.640625 -11.78125 16.953125 -10.6875 L 14.203125 -10.6875 C 13.785156 -11.707031 13.144531 -12.484375 12.28125 -13.015625 C 11.414062 -13.546875 10.441406 -13.8125 9.359375 -13.8125 C 8.660156 -13.8125 7.988281 -13.675781 7.34375 -13.40625 C 6.695312 -13.132812 6.113281 -12.742188 5.59375 -12.234375 C 5.070312 -11.722656 4.660156 -11.101562 4.359375 -10.375 C 4.054688 -9.65625 3.90625 -8.84375 3.90625 -7.9375 C 3.90625 -7.03125 4.054688 -6.210938 4.359375 -5.484375 C 4.671875 -4.753906 5.085938 -4.132812 5.609375 -3.625 C 6.128906 -3.113281 6.710938 -2.722656 7.359375 -2.453125 C 8.003906 -2.191406 8.671875 -2.0625 9.359375 -2.0625 C 10.429688 -2.0625 11.398438 -2.332031 12.265625 -2.875 C 13.140625 -3.414062 13.785156 -4.234375 14.203125 -5.328125 L 16.9375 -5.328125 C 16.632812 -4.179688 16.125 -3.175781 15.40625 -2.3125 C 14.695312 -1.445312 13.820312 -0.769531 12.78125 -0.28125 C 11.75 0.207031 10.601562 0.453125 9.34375 0.453125 Z M 9.34375 0.453125 "/></g></g></g><g fill="#000000" fill-opacity="1"><g transform="translate(295.198848, 154.558159)"><g><path d="M 11.4375 -17.84375 L 9.109375 -20.203125 L 6.8125 -17.84375 L 4.5625 -17.859375 L 8.21875 -21.6875 L 10 -21.6875 L 13.6875 -17.859375 Z M 17.15625 -8.328125 C 17.15625 -8.191406 17.148438 -8.046875 17.140625 -7.890625 C 17.140625 -7.742188 17.128906 -7.523438 17.109375 -7.234375 L 3.9375 -7.234375 C 4.050781 -6.179688 4.363281 -5.265625 4.875 -4.484375 C 5.382812 -3.703125 6.019531 -3.101562 6.78125 -2.6875 C 7.550781 -2.269531 8.375 -2.0625 9.25 -2.0625 C 10.320312 -2.0625 11.234375 -2.289062 11.984375 -2.75 C 12.742188 -3.207031 13.300781 -3.882812 13.65625 -4.78125 L 16.65625 -4.78125 C 16.425781 -4.050781 16.085938 -3.367188 15.640625 -2.734375 C 15.191406 -2.109375 14.644531 -1.554688 14 -1.078125 C 13.363281 -0.609375 12.648438 -0.238281 11.859375 0.03125 C 11.066406 0.300781 10.21875 0.4375 9.3125 0.4375 C 8.15625 0.4375 7.085938 0.222656 6.109375 -0.203125 C 5.128906 -0.640625 4.269531 -1.238281 3.53125 -2 C 2.800781 -2.769531 2.234375 -3.660156 1.828125 -4.671875 C 1.429688 -5.691406 1.234375 -6.78125 1.234375 -7.9375 C 1.234375 -9.101562 1.429688 -10.191406 1.828125 -11.203125 C 2.234375 -12.210938 2.800781 -13.101562 3.53125 -13.875 C 4.269531 -14.644531 5.128906 -15.242188 6.109375 -15.671875 C 7.085938 -16.109375 8.15625 -16.328125 9.3125 -16.328125 C 10.457031 -16.328125 11.507812 -16.113281 12.46875 -15.6875 C 13.425781 -15.269531 14.253906 -14.6875 14.953125 -13.9375 C 15.648438 -13.1875 16.191406 -12.332031 16.578125 -11.375 C 16.960938 -10.414062 17.15625 -9.398438 17.15625 -8.328125 Z M 4.0625 -9.609375 L 14.421875 -9.609375 C 14.378906 -10.171875 14.210938 -10.703125 13.921875 -11.203125 C 13.640625 -11.710938 13.265625 -12.160156 12.796875 -12.546875 C 12.328125 -12.941406 11.789062 -13.25 11.1875 -13.46875 C 10.582031 -13.695312 9.941406 -13.8125 9.265625 -13.8125 C 8.472656 -13.8125 7.71875 -13.648438 7 -13.328125 C 6.289062 -13.003906 5.675781 -12.53125 5.15625 -11.90625 C 4.632812 -11.289062 4.269531 -10.523438 4.0625 -9.609375 Z M 4.0625 -9.609375 "/></g></g></g><g fill="#000000" fill-opacity="1"><g transform="translate(32.425693, 180.725087)"><g><path d="M 5.25 5.421875 L 2.5625 5.421875 L 2.5625 -15.890625 L 5.140625 -15.890625 L 5.140625 -12.484375 C 5.515625 -13.222656 6 -13.878906 6.59375 -14.453125 C 7.195312 -15.035156 7.894531 -15.488281 8.6875 -15.8125 C 9.488281 -16.144531 10.347656 -16.3125 11.265625 -16.3125 C 12.378906 -16.3125 13.410156 -16.097656 14.359375 -15.671875 C 15.316406 -15.242188 16.148438 -14.644531 16.859375 -13.875 C 17.566406 -13.101562 18.113281 -12.210938 18.5 -11.203125 C 18.894531 -10.191406 19.09375 -9.101562 19.09375 -7.9375 C 19.09375 -6.78125 18.894531 -5.691406 18.5 -4.671875 C 18.101562 -3.648438 17.550781 -2.753906 16.84375 -1.984375 C 16.144531 -1.222656 15.320312 -0.625 14.375 -0.1875 C 13.425781 0.238281 12.398438 0.453125 11.296875 0.453125 C 10.421875 0.453125 9.585938 0.300781 8.796875 0 C 8.003906 -0.3125 7.300781 -0.75 6.6875 -1.3125 C 6.070312 -1.882812 5.578125 -2.550781 5.203125 -3.3125 L 5.25 -1.53125 Z M 10.828125 -2.046875 C 11.585938 -2.046875 12.304688 -2.1875 12.984375 -2.46875 C 13.660156 -2.75 14.253906 -3.148438 14.765625 -3.671875 C 15.285156 -4.203125 15.691406 -4.828125 15.984375 -5.546875 C 16.273438 -6.273438 16.421875 -7.070312 16.421875 -7.9375 C 16.421875 -8.800781 16.273438 -9.59375 15.984375 -10.3125 C 15.703125 -11.03125 15.300781 -11.648438 14.78125 -12.171875 C 14.269531 -12.691406 13.675781 -13.097656 13 -13.390625 C 12.320312 -13.679688 11.597656 -13.828125 10.828125 -13.828125 C 10.046875 -13.828125 9.316406 -13.675781 8.640625 -13.375 C 7.960938 -13.070312 7.367188 -12.648438 6.859375 -12.109375 C 6.359375 -11.578125 5.960938 -10.953125 5.671875 -10.234375 C 5.378906 -9.523438 5.234375 -8.757812 5.234375 -7.9375 C 5.234375 -7.101562 5.378906 -6.320312 5.671875 -5.59375 C 5.960938 -4.875 6.363281 -4.25 6.875 -3.71875 C 7.394531 -3.1875 7.992188 -2.773438 8.671875 -2.484375 C 9.347656 -2.191406 10.066406 -2.046875 10.828125 -2.046875 Z M 10.828125 -2.046875 "/></g></g></g><g fill="#000000" fill-opacity="1"><g transform="translate(52.762399, 180.725087)"><g><path d="M 5.265625 0 L 2.5625 0 L 2.5625 -15.890625 L 5.15625 -15.890625 L 5.15625 -12.328125 C 5.550781 -13.429688 6.164062 -14.300781 7 -14.9375 C 7.832031 -15.570312 8.828125 -15.890625 9.984375 -15.890625 L 11.515625 -15.890625 L 11.515625 -13.53125 L 10.125 -13.53125 C 9.195312 -13.53125 8.363281 -13.289062 7.625 -12.8125 C 6.894531 -12.332031 6.316406 -11.640625 5.890625 -10.734375 C 5.472656 -9.835938 5.265625 -8.75 5.265625 -7.46875 Z M 5.265625 0 "/></g></g></g><g fill="#000000" fill-opacity="1"><g transform="translate(64.082993, 180.725087)"><g><path d="M 9.484375 0.453125 C 8.304688 0.453125 7.21875 0.238281 6.21875 -0.1875 C 5.21875 -0.625 4.34375 -1.222656 3.59375 -1.984375 C 2.84375 -2.753906 2.257812 -3.648438 1.84375 -4.671875 C 1.4375 -5.691406 1.234375 -6.78125 1.234375 -7.9375 C 1.234375 -9.101562 1.4375 -10.191406 1.84375 -11.203125 C 2.257812 -12.210938 2.835938 -13.101562 3.578125 -13.875 C 4.328125 -14.644531 5.203125 -15.242188 6.203125 -15.671875 C 7.203125 -16.109375 8.296875 -16.328125 9.484375 -16.328125 C 10.671875 -16.328125 11.765625 -16.113281 12.765625 -15.6875 C 13.773438 -15.257812 14.648438 -14.660156 15.390625 -13.890625 C 16.140625 -13.117188 16.722656 -12.222656 17.140625 -11.203125 C 17.554688 -10.191406 17.765625 -9.101562 17.765625 -7.9375 C 17.765625 -6.78125 17.554688 -5.691406 17.140625 -4.671875 C 16.722656 -3.648438 16.140625 -2.753906 15.390625 -1.984375 C 14.648438 -1.222656 13.773438 -0.625 12.765625 -0.1875 C 11.765625 0.238281 10.671875 0.453125 9.484375 0.453125 Z M 9.515625 -2.078125 C 10.304688 -2.078125 11.035156 -2.21875 11.703125 -2.5 C 12.378906 -2.789062 12.972656 -3.203125 13.484375 -3.734375 C 13.992188 -4.265625 14.390625 -4.890625 14.671875 -5.609375 C 14.953125 -6.328125 15.09375 -7.101562 15.09375 -7.9375 C 15.09375 -8.78125 14.953125 -9.554688 14.671875 -10.265625 C 14.390625 -10.984375 13.992188 -11.601562 13.484375 -12.125 C 12.972656 -12.65625 12.378906 -13.066406 11.703125 -13.359375 C 11.035156 -13.660156 10.304688 -13.8125 9.515625 -13.8125 C 8.722656 -13.8125 7.988281 -13.660156 7.3125 -13.359375 C 6.632812 -13.066406 6.039062 -12.65625 5.53125 -12.125 C 5.019531 -11.601562 4.617188 -10.984375 4.328125 -10.265625 C 4.046875 -9.554688 3.90625 -8.78125 3.90625 -7.9375 C 3.90625 -7.101562 4.046875 -6.328125 4.328125 -5.609375 C 4.617188 -4.890625 5.019531 -4.265625 5.53125 -3.734375 C 6.039062 -3.203125 6.632812 -2.789062 7.3125 -2.5 C 7.988281 -2.21875 8.722656 -2.078125 9.515625 -2.078125 Z M 9.515625 -2.078125 "/></g></g></g><g fill="#000000" fill-opacity="1"><g transform="translate(83.080527, 180.725087)"><g><path d="M 9.34375 0.453125 C 8.1875 0.453125 7.117188 0.234375 6.140625 -0.203125 C 5.160156 -0.640625 4.300781 -1.238281 3.5625 -2 C 2.820312 -2.769531 2.25 -3.660156 1.84375 -4.671875 C 1.4375 -5.691406 1.234375 -6.78125 1.234375 -7.9375 C 1.234375 -9.101562 1.4375 -10.191406 1.84375 -11.203125 C 2.25 -12.210938 2.820312 -13.101562 3.5625 -13.875 C 4.300781 -14.644531 5.160156 -15.242188 6.140625 -15.671875 C 7.117188 -16.109375 8.1875 -16.328125 9.34375 -16.328125 C 10.613281 -16.328125 11.757812 -16.082031 12.78125 -15.59375 C 13.8125 -15.113281 14.6875 -14.445312 15.40625 -13.59375 C 16.125 -12.75 16.640625 -11.78125 16.953125 -10.6875 L 14.203125 -10.6875 C 13.785156 -11.707031 13.144531 -12.484375 12.28125 -13.015625 C 11.414062 -13.546875 10.441406 -13.8125 9.359375 -13.8125 C 8.660156 -13.8125 7.988281 -13.675781 7.34375 -13.40625 C 6.695312 -13.132812 6.113281 -12.742188 5.59375 -12.234375 C 5.070312 -11.722656 4.660156 -11.101562 4.359375 -10.375 C 4.054688 -9.65625 3.90625 -8.84375 3.90625 -7.9375 C 3.90625 -7.03125 4.054688 -6.210938 4.359375 -5.484375 C 4.671875 -4.753906 5.085938 -4.132812 5.609375 -3.625 C 6.128906 -3.113281 6.710938 -2.722656 7.359375 -2.453125 C 8.003906 -2.191406 8.671875 -2.0625 9.359375 -2.0625 C 10.429688 -2.0625 11.398438 -2.332031 12.265625 -2.875 C 13.140625 -3.414062 13.785156 -4.234375 14.203125 -5.328125 L 16.9375 -5.328125 C 16.632812 -4.179688 16.125 -3.175781 15.40625 -2.3125 C 14.695312 -1.445312 13.820312 -0.769531 12.78125 -0.28125 C 11.75 0.207031 10.601562 0.453125 9.34375 0.453125 Z M 9.34375 0.453125 "/></g></g></g><g fill="#000000" fill-opacity="1"><g transform="translate(101.034755, 180.725087)"><g><path d="M 9.390625 0.453125 C 8.328125 0.453125 7.351562 0.300781 6.46875 0 C 5.59375 -0.300781 4.828125 -0.765625 4.171875 -1.390625 C 3.523438 -2.023438 3.023438 -2.835938 2.671875 -3.828125 C 2.316406 -4.828125 2.140625 -6.015625 2.140625 -7.390625 L 2.140625 -15.890625 L 4.796875 -15.890625 L 4.796875 -7.46875 C 4.796875 -5.6875 5.191406 -4.34375 5.984375 -3.4375 C 6.773438 -2.53125 7.898438 -2.078125 9.359375 -2.078125 C 10.816406 -2.078125 11.941406 -2.53125 12.734375 -3.4375 C 13.523438 -4.34375 13.921875 -5.6875 13.921875 -7.46875 L 13.921875 -15.890625 L 16.59375 -15.890625 L 16.59375 -7.390625 C 16.59375 -6.015625 16.414062 -4.828125 16.0625 -3.828125 C 15.707031 -2.835938 15.203125 -2.023438 14.546875 -1.390625 C 13.898438 -0.765625 13.140625 -0.300781 12.265625 0 C 11.390625 0.300781 10.429688 0.453125 9.390625 0.453125 Z M 9.390625 0.453125 "/></g></g></g><g fill="#000000" fill-opacity="1"><g transform="translate(119.76757, 180.725087)"><g><path d="M 5.265625 0 L 2.5625 0 L 2.5625 -15.890625 L 5.15625 -15.890625 L 5.15625 -12.328125 C 5.550781 -13.429688 6.164062 -14.300781 7 -14.9375 C 7.832031 -15.570312 8.828125 -15.890625 9.984375 -15.890625 L 11.515625 -15.890625 L 11.515625 -13.53125 L 10.125 -13.53125 C 9.195312 -13.53125 8.363281 -13.289062 7.625 -12.8125 C 6.894531 -12.332031 6.316406 -11.640625 5.890625 -10.734375 C 5.472656 -9.835938 5.265625 -8.75 5.265625 -7.46875 Z M 5.265625 0 "/></g></g></g><g fill="#000000" fill-opacity="1"><g transform="translate(131.088164, 180.725087)"><g><path d="M 8.90625 0.453125 C 7.8125 0.453125 6.800781 0.238281 5.875 -0.1875 C 4.945312 -0.625 4.132812 -1.222656 3.4375 -1.984375 C 2.738281 -2.753906 2.195312 -3.648438 1.8125 -4.671875 C 1.425781 -5.691406 1.234375 -6.78125 1.234375 -7.9375 C 1.234375 -9.101562 1.425781 -10.191406 1.8125 -11.203125 C 2.195312 -12.210938 2.738281 -13.101562 3.4375 -13.875 C 4.132812 -14.644531 4.945312 -15.242188 5.875 -15.671875 C 6.800781 -16.097656 7.804688 -16.3125 8.890625 -16.3125 C 9.847656 -16.3125 10.734375 -16.15625 11.546875 -15.84375 C 12.367188 -15.539062 13.09375 -15.097656 13.71875 -14.515625 C 14.351562 -13.941406 14.847656 -13.257812 15.203125 -12.46875 L 15.203125 -15.890625 L 17.765625 -15.890625 L 17.765625 0 L 15.203125 0 L 15.203125 -3.375 C 14.847656 -2.601562 14.351562 -1.925781 13.71875 -1.34375 C 13.09375 -0.769531 12.367188 -0.328125 11.546875 -0.015625 C 10.734375 0.296875 9.851562 0.453125 8.90625 0.453125 Z M 9.5 -2.0625 C 10.28125 -2.0625 11.007812 -2.207031 11.6875 -2.5 C 12.363281 -2.789062 12.957031 -3.203125 13.46875 -3.734375 C 13.976562 -4.273438 14.378906 -4.90625 14.671875 -5.625 C 14.960938 -6.34375 15.109375 -7.113281 15.109375 -7.9375 C 15.109375 -8.757812 14.960938 -9.523438 14.671875 -10.234375 C 14.378906 -10.953125 13.972656 -11.578125 13.453125 -12.109375 C 12.941406 -12.640625 12.347656 -13.054688 11.671875 -13.359375 C 11.003906 -13.660156 10.285156 -13.8125 9.515625 -13.8125 C 8.734375 -13.8125 8.003906 -13.664062 7.328125 -13.375 C 6.660156 -13.09375 6.066406 -12.6875 5.546875 -12.15625 C 5.023438 -11.632812 4.617188 -11.015625 4.328125 -10.296875 C 4.035156 -9.585938 3.890625 -8.800781 3.890625 -7.9375 C 3.890625 -7.0625 4.035156 -6.257812 4.328125 -5.53125 C 4.628906 -4.8125 5.035156 -4.191406 5.546875 -3.671875 C 6.066406 -3.148438 6.664062 -2.75 7.34375 -2.46875 C 8.019531 -2.195312 8.738281 -2.0625 9.5 -2.0625 Z M 9.5 -2.0625 "/></g></g></g><g fill="#000000" fill-opacity="1"><g transform="translate(151.42487, 180.725087)"><g/></g></g><g fill="#000000" fill-opacity="1"><g transform="translate(159.304175, 180.725087)"><g><path d="M 5.25 0 L 2.5625 0 L 2.5625 -15.890625 L 5.140625 -15.890625 L 5.140625 -12.8125 C 5.441406 -13.5 5.878906 -14.109375 6.453125 -14.640625 C 7.023438 -15.171875 7.703125 -15.582031 8.484375 -15.875 C 9.265625 -16.175781 10.101562 -16.328125 11 -16.328125 C 13.101562 -16.328125 14.695312 -15.675781 15.78125 -14.375 C 16.875 -13.070312 17.421875 -11.148438 17.421875 -8.609375 L 17.421875 0 L 14.75 0 L 14.75 -8.5625 C 14.75 -10.394531 14.351562 -11.726562 13.5625 -12.5625 C 12.769531 -13.40625 11.6875 -13.828125 10.3125 -13.828125 C 9.644531 -13.828125 9.003906 -13.703125 8.390625 -13.453125 C 7.785156 -13.203125 7.25 -12.835938 6.78125 -12.359375 C 6.3125 -11.878906 5.9375 -11.300781 5.65625 -10.625 C 5.382812 -9.957031 5.25 -9.195312 5.25 -8.34375 Z M 5.25 0 "/></g></g></g><g fill="#000000" fill-opacity="1"><g transform="translate(179.111441, 180.725087)"><g><path d="M 13.78125 -21.203125 L 14.78125 -20.421875 C 14.070312 -18.773438 13.125 -17.953125 11.9375 -17.953125 C 11.570312 -17.953125 11.226562 -18.003906 10.90625 -18.109375 C 10.582031 -18.222656 10.273438 -18.351562 9.984375 -18.5 C 9.703125 -18.65625 9.429688 -18.785156 9.171875 -18.890625 C 8.921875 -19.003906 8.679688 -19.0625 8.453125 -19.0625 C 8.222656 -19.0625 7.992188 -18.992188 7.765625 -18.859375 C 7.546875 -18.722656 7.332031 -18.453125 7.125 -18.046875 L 6.15625 -18.84375 C 6.457031 -19.550781 6.847656 -20.066406 7.328125 -20.390625 C 7.816406 -20.722656 8.390625 -20.820312 9.046875 -20.6875 C 9.441406 -20.625 9.804688 -20.515625 10.140625 -20.359375 C 10.472656 -20.203125 10.785156 -20.050781 11.078125 -19.90625 C 11.378906 -19.769531 11.675781 -19.703125 11.96875 -19.703125 C 12.269531 -19.703125 12.570312 -19.8125 12.875 -20.03125 C 13.1875 -20.25 13.488281 -20.640625 13.78125 -21.203125 Z M 8.90625 0.453125 C 7.8125 0.453125 6.800781 0.238281 5.875 -0.1875 C 4.945312 -0.625 4.132812 -1.222656 3.4375 -1.984375 C 2.738281 -2.753906 2.195312 -3.648438 1.8125 -4.671875 C 1.425781 -5.691406 1.234375 -6.78125 1.234375 -7.9375 C 1.234375 -9.101562 1.425781 -10.191406 1.8125 -11.203125 C 2.195312 -12.210938 2.738281 -13.101562 3.4375 -13.875 C 4.132812 -14.644531 4.945312 -15.242188 5.875 -15.671875 C 6.800781 -16.097656 7.804688 -16.3125 8.890625 -16.3125 C 9.847656 -16.3125 10.734375 -16.15625 11.546875 -15.84375 C 12.367188 -15.539062 13.09375 -15.097656 13.71875 -14.515625 C 14.351562 -13.941406 14.847656 -13.257812 15.203125 -12.46875 L 15.203125 -15.890625 L 17.765625 -15.890625 L 17.765625 0 L 15.203125 0 L 15.203125 -3.375 C 14.847656 -2.601562 14.351562 -1.925781 13.71875 -1.34375 C 13.09375 -0.769531 12.367188 -0.328125 11.546875 -0.015625 C 10.734375 0.296875 9.851562 0.453125 8.90625 0.453125 Z M 9.5 -2.0625 C 10.28125 -2.0625 11.007812 -2.207031 11.6875 -2.5 C 12.363281 -2.789062 12.957031 -3.203125 13.46875 -3.734375 C 13.976562 -4.273438 14.378906 -4.90625 14.671875 -5.625 C 14.960938 -6.34375 15.109375 -7.113281 15.109375 -7.9375 C 15.109375 -8.757812 14.960938 -9.523438 14.671875 -10.234375 C 14.378906 -10.953125 13.972656 -11.578125 13.453125 -12.109375 C 12.941406 -12.640625 12.347656 -13.054688 11.671875 -13.359375 C 11.003906 -13.660156 10.285156 -13.8125 9.515625 -13.8125 C 8.734375 -13.8125 8.003906 -13.664062 7.328125 -13.375 C 6.660156 -13.09375 6.066406 -12.6875 5.546875 -12.15625 C 5.023438 -11.632812 4.617188 -11.015625 4.328125 -10.296875 C 4.035156 -9.585938 3.890625 -8.800781 3.890625 -7.9375 C 3.890625 -7.0625 4.035156 -6.257812 4.328125 -5.53125 C 4.628906 -4.8125 5.035156 -4.191406 5.546875 -3.671875 C 6.066406 -3.148438 6.664062 -2.75 7.34375 -2.46875 C 8.019531 -2.195312 8.738281 -2.0625 9.5 -2.0625 Z M 9.5 -2.0625 "/></g></g></g><g fill="#000000" fill-opacity="1"><g transform="translate(199.448146, 180.725087)"><g><path d="M 9.484375 0.453125 C 8.304688 0.453125 7.21875 0.238281 6.21875 -0.1875 C 5.21875 -0.625 4.34375 -1.222656 3.59375 -1.984375 C 2.84375 -2.753906 2.257812 -3.648438 1.84375 -4.671875 C 1.4375 -5.691406 1.234375 -6.78125 1.234375 -7.9375 C 1.234375 -9.101562 1.4375 -10.191406 1.84375 -11.203125 C 2.257812 -12.210938 2.835938 -13.101562 3.578125 -13.875 C 4.328125 -14.644531 5.203125 -15.242188 6.203125 -15.671875 C 7.203125 -16.109375 8.296875 -16.328125 9.484375 -16.328125 C 10.671875 -16.328125 11.765625 -16.113281 12.765625 -15.6875 C 13.773438 -15.257812 14.648438 -14.660156 15.390625 -13.890625 C 16.140625 -13.117188 16.722656 -12.222656 17.140625 -11.203125 C 17.554688 -10.191406 17.765625 -9.101562 17.765625 -7.9375 C 17.765625 -6.78125 17.554688 -5.691406 17.140625 -4.671875 C 16.722656 -3.648438 16.140625 -2.753906 15.390625 -1.984375 C 14.648438 -1.222656 13.773438 -0.625 12.765625 -0.1875 C 11.765625 0.238281 10.671875 0.453125 9.484375 0.453125 Z M 9.515625 -2.078125 C 10.304688 -2.078125 11.035156 -2.21875 11.703125 -2.5 C 12.378906 -2.789062 12.972656 -3.203125 13.484375 -3.734375 C 13.992188 -4.265625 14.390625 -4.890625 14.671875 -5.609375 C 14.953125 -6.328125 15.09375 -7.101562 15.09375 -7.9375 C 15.09375 -8.78125 14.953125 -9.554688 14.671875 -10.265625 C 14.390625 -10.984375 13.992188 -11.601562 13.484375 -12.125 C 12.972656 -12.65625 12.378906 -13.066406 11.703125 -13.359375 C 11.035156 -13.660156 10.304688 -13.8125 9.515625 -13.8125 C 8.722656 -13.8125 7.988281 -13.660156 7.3125 -13.359375 C 6.632812 -13.066406 6.039062 -12.65625 5.53125 -12.125 C 5.019531 -11.601562 4.617188 -10.984375 4.328125 -10.265625 C 4.046875 -9.554688 3.90625 -8.78125 3.90625 -7.9375 C 3.90625 -7.101562 4.046875 -6.328125 4.328125 -5.609375 C 4.617188 -4.890625 5.019531 -4.265625 5.53125 -3.734375 C 6.039062 -3.203125 6.632812 -2.789062 7.3125 -2.5 C 7.988281 -2.21875 8.722656 -2.078125 9.515625 -2.078125 Z M 9.515625 -2.078125 "/></g></g></g><g fill="#000000" fill-opacity="1"><g transform="translate(218.445681, 180.725087)"><g/></g></g><g fill="#000000" fill-opacity="1"><g transform="translate(226.324986, 180.725087)"><g><path d="M 17.15625 -8.328125 C 17.15625 -8.191406 17.148438 -8.046875 17.140625 -7.890625 C 17.140625 -7.742188 17.128906 -7.523438 17.109375 -7.234375 L 3.9375 -7.234375 C 4.050781 -6.179688 4.363281 -5.265625 4.875 -4.484375 C 5.382812 -3.703125 6.019531 -3.101562 6.78125 -2.6875 C 7.550781 -2.269531 8.375 -2.0625 9.25 -2.0625 C 10.320312 -2.0625 11.234375 -2.289062 11.984375 -2.75 C 12.742188 -3.207031 13.300781 -3.882812 13.65625 -4.78125 L 16.65625 -4.78125 C 16.425781 -4.050781 16.085938 -3.367188 15.640625 -2.734375 C 15.191406 -2.109375 14.644531 -1.554688 14 -1.078125 C 13.363281 -0.609375 12.648438 -0.238281 11.859375 0.03125 C 11.066406 0.300781 10.21875 0.4375 9.3125 0.4375 C 8.15625 0.4375 7.085938 0.222656 6.109375 -0.203125 C 5.128906 -0.640625 4.269531 -1.238281 3.53125 -2 C 2.800781 -2.769531 2.234375 -3.660156 1.828125 -4.671875 C 1.429688 -5.691406 1.234375 -6.78125 1.234375 -7.9375 C 1.234375 -9.101562 1.429688 -10.191406 1.828125 -11.203125 C 2.234375 -12.210938 2.800781 -13.101562 3.53125 -13.875 C 4.269531 -14.644531 5.128906 -15.242188 6.109375 -15.671875 C 7.085938 -16.109375 8.15625 -16.328125 9.3125 -16.328125 C 10.457031 -16.328125 11.507812 -16.113281 12.46875 -15.6875 C 13.425781 -15.269531 14.253906 -14.6875 14.953125 -13.9375 C 15.648438 -13.1875 16.191406 -12.332031 16.578125 -11.375 C 16.960938 -10.414062 17.15625 -9.398438 17.15625 -8.328125 Z M 4.0625 -9.609375 L 14.421875 -9.609375 C 14.378906 -10.171875 14.210938 -10.703125 13.921875 -11.203125 C 13.640625 -11.710938 13.265625 -12.160156 12.796875 -12.546875 C 12.328125 -12.941406 11.789062 -13.25 11.1875 -13.46875 C 10.582031 -13.695312 9.941406 -13.8125 9.265625 -13.8125 C 8.472656 -13.8125 7.71875 -13.648438 7 -13.328125 C 6.289062 -13.003906 5.675781 -12.53125 5.15625 -11.90625 C 4.632812 -11.289062 4.269531 -10.523438 4.0625 -9.609375 Z M 4.0625 -9.609375 "/></g></g></g><g fill="#000000" fill-opacity="1"><g transform="translate(243.749695, 180.725087)"><g><path d="M 3.75 0 L 0.609375 0 L 6.125 -8.09375 L 0.75 -15.890625 L 3.921875 -15.890625 L 7.96875 -9.90625 L 7.984375 -9.90625 L 12.046875 -15.890625 L 15.21875 -15.890625 L 9.84375 -8.09375 L 15.375 0 L 12.140625 0 L 7.953125 -6.203125 Z M 3.75 0 "/></g></g></g><g fill="#000000" fill-opacity="1"><g transform="translate(259.726333, 180.725087)"><g><path d="M 3.890625 -18.984375 C 3.335938 -18.984375 2.898438 -19.148438 2.578125 -19.484375 C 2.253906 -19.816406 2.09375 -20.21875 2.09375 -20.6875 C 2.09375 -21.15625 2.253906 -21.554688 2.578125 -21.890625 C 2.898438 -22.222656 3.34375 -22.390625 3.90625 -22.390625 C 4.476562 -22.390625 4.925781 -22.222656 5.25 -21.890625 C 5.582031 -21.554688 5.75 -21.15625 5.75 -20.6875 C 5.75 -20.21875 5.582031 -19.816406 5.25 -19.484375 C 4.925781 -19.148438 4.472656 -18.984375 3.890625 -18.984375 Z M 5.25 0 L 2.5625 0 L 2.5625 -15.890625 L 5.25 -15.890625 Z M 5.25 0 "/></g></g></g><g fill="#000000" fill-opacity="1"><g transform="translate(267.543329, 180.725087)"><g><path d="M 7.859375 0.453125 C 6.753906 0.453125 5.785156 0.300781 4.953125 0 C 4.117188 -0.289062 3.425781 -0.6875 2.875 -1.1875 C 2.332031 -1.695312 1.921875 -2.269531 1.640625 -2.90625 C 1.367188 -3.539062 1.234375 -4.195312 1.234375 -4.875 L 3.8125 -4.859375 C 3.820312 -4.285156 3.984375 -3.757812 4.296875 -3.28125 C 4.617188 -2.800781 5.082031 -2.421875 5.6875 -2.140625 C 6.289062 -1.867188 7.023438 -1.734375 7.890625 -1.734375 C 9.097656 -1.734375 10.003906 -1.96875 10.609375 -2.4375 C 11.222656 -2.90625 11.53125 -3.539062 11.53125 -4.34375 C 11.53125 -4.9375 11.367188 -5.398438 11.046875 -5.734375 C 10.734375 -6.078125 10.273438 -6.335938 9.671875 -6.515625 C 9.078125 -6.703125 8.363281 -6.859375 7.53125 -6.984375 C 6.800781 -7.097656 6.097656 -7.253906 5.421875 -7.453125 C 4.753906 -7.660156 4.160156 -7.941406 3.640625 -8.296875 C 3.117188 -8.648438 2.710938 -9.101562 2.421875 -9.65625 C 2.128906 -10.207031 1.984375 -10.878906 1.984375 -11.671875 C 1.984375 -12.546875 2.191406 -13.332031 2.609375 -14.03125 C 3.023438 -14.738281 3.65625 -15.296875 4.5 -15.703125 C 5.351562 -16.117188 6.40625 -16.328125 7.65625 -16.328125 C 8.882812 -16.328125 9.953125 -16.125 10.859375 -15.71875 C 11.773438 -15.3125 12.488281 -14.75 13 -14.03125 C 13.507812 -13.3125 13.765625 -12.488281 13.765625 -11.5625 L 11.140625 -11.5625 C 11.097656 -12.320312 10.769531 -12.929688 10.15625 -13.390625 C 9.550781 -13.859375 8.71875 -14.09375 7.65625 -14.09375 C 6.976562 -14.09375 6.414062 -13.984375 5.96875 -13.765625 C 5.519531 -13.554688 5.179688 -13.269531 4.953125 -12.90625 C 4.734375 -12.550781 4.625 -12.160156 4.625 -11.734375 C 4.625 -11.242188 4.734375 -10.835938 4.953125 -10.515625 C 5.179688 -10.191406 5.570312 -9.925781 6.125 -9.71875 C 6.675781 -9.519531 7.445312 -9.335938 8.4375 -9.171875 C 9.164062 -9.054688 9.875 -8.90625 10.5625 -8.71875 C 11.257812 -8.539062 11.882812 -8.285156 12.4375 -7.953125 C 13 -7.617188 13.441406 -7.171875 13.765625 -6.609375 C 14.097656 -6.054688 14.265625 -5.347656 14.265625 -4.484375 C 14.265625 -3.398438 13.992188 -2.488281 13.453125 -1.75 C 12.910156 -1.019531 12.160156 -0.46875 11.203125 -0.09375 C 10.242188 0.269531 9.128906 0.453125 7.859375 0.453125 Z M 7.859375 0.453125 "/></g></g></g><g fill="#000000" fill-opacity="1"><g transform="translate(282.897097, 180.725087)"><g><path d="M 11.625 0 L 8.703125 0 C 8.097656 0 7.5 -0.078125 6.90625 -0.234375 C 6.320312 -0.390625 5.785156 -0.675781 5.296875 -1.09375 C 4.816406 -1.507812 4.429688 -2.101562 4.140625 -2.875 C 3.847656 -3.644531 3.703125 -4.648438 3.703125 -5.890625 L 3.703125 -13.53125 L 0.171875 -13.53125 L 0.171875 -15.890625 L 3.703125 -15.890625 L 3.703125 -20.59375 L 6.390625 -20.609375 L 6.390625 -15.890625 L 11.625 -15.890625 L 11.625 -13.53125 L 6.390625 -13.53125 L 6.390625 -5.765625 C 6.390625 -5.023438 6.46875 -4.421875 6.625 -3.953125 C 6.78125 -3.492188 6.992188 -3.140625 7.265625 -2.890625 C 7.546875 -2.648438 7.851562 -2.488281 8.1875 -2.40625 C 8.53125 -2.320312 8.878906 -2.28125 9.234375 -2.28125 L 11.625 -2.28125 Z M 11.625 0 "/></g></g></g><g fill="#000000" fill-opacity="1"><g transform="translate(294.918442, 180.725087)"><g><path d="M 17.15625 -8.328125 C 17.15625 -8.191406 17.148438 -8.046875 17.140625 -7.890625 C 17.140625 -7.742188 17.128906 -7.523438 17.109375 -7.234375 L 3.9375 -7.234375 C 4.050781 -6.179688 4.363281 -5.265625 4.875 -4.484375 C 5.382812 -3.703125 6.019531 -3.101562 6.78125 -2.6875 C 7.550781 -2.269531 8.375 -2.0625 9.25 -2.0625 C 10.320312 -2.0625 11.234375 -2.289062 11.984375 -2.75 C 12.742188 -3.207031 13.300781 -3.882812 13.65625 -4.78125 L 16.65625 -4.78125 C 16.425781 -4.050781 16.085938 -3.367188 15.640625 -2.734375 C 15.191406 -2.109375 14.644531 -1.554688 14 -1.078125 C 13.363281 -0.609375 12.648438 -0.238281 11.859375 0.03125 C 11.066406 0.300781 10.21875 0.4375 9.3125 0.4375 C 8.15625 0.4375 7.085938 0.222656 6.109375 -0.203125 C 5.128906 -0.640625 4.269531 -1.238281 3.53125 -2 C 2.800781 -2.769531 2.234375 -3.660156 1.828125 -4.671875 C 1.429688 -5.691406 1.234375 -6.78125 1.234375 -7.9375 C 1.234375 -9.101562 1.429688 -10.191406 1.828125 -11.203125 C 2.234375 -12.210938 2.800781 -13.101562 3.53125 -13.875 C 4.269531 -14.644531 5.128906 -15.242188 6.109375 -15.671875 C 7.085938 -16.109375 8.15625 -16.328125 9.3125 -16.328125 C 10.457031 -16.328125 11.507812 -16.113281 12.46875 -15.6875 C 13.425781 -15.269531 14.253906 -14.6875 14.953125 -13.9375 C 15.648438 -13.1875 16.191406 -12.332031 16.578125 -11.375 C 16.960938 -10.414062 17.15625 -9.398438 17.15625 -8.328125 Z M 4.0625 -9.609375 L 14.421875 -9.609375 C 14.378906 -10.171875 14.210938 -10.703125 13.921875 -11.203125 C 13.640625 -11.710938 13.265625 -12.160156 12.796875 -12.546875 C 12.328125 -12.941406 11.789062 -13.25 11.1875 -13.46875 C 10.582031 -13.695312 9.941406 -13.8125 9.265625 -13.8125 C 8.472656 -13.8125 7.71875 -13.648438 7 -13.328125 C 6.289062 -13.003906 5.675781 -12.53125 5.15625 -11.90625 C 4.632812 -11.289062 4.269531 -10.523438 4.0625 -9.609375 Z M 4.0625 -9.609375 "/></g></g></g><g mask="url(#ca62db075b)"><g transform="matrix(1, 0, 0, 1, 71, 197)"><g clip-path="url(#3d4eb8b94b)"><g clip-path="url(#a26c59bbce)"><g transform="matrix(1, 0, 0, 1, -0.000000000000014211, -0.000000000000056843)"><g clip-path="url(#7720ebd582)"><g fill="#000000" fill-opacity="1"><g transform="translate(0.717558, 16.393305)"><g><path d="M 6.8125 0.328125 C 5.96875 0.328125 5.1875 0.171875 4.46875 -0.140625 C 3.75 -0.453125 3.117188 -0.882812 2.578125 -1.4375 C 2.046875 -1.988281 1.628906 -2.628906 1.328125 -3.359375 C 1.035156 -4.085938 0.890625 -4.867188 0.890625 -5.703125 C 0.890625 -6.546875 1.035156 -7.328125 1.328125 -8.046875 C 1.628906 -8.773438 2.046875 -9.414062 2.578125 -9.96875 C 3.109375 -10.519531 3.734375 -10.953125 4.453125 -11.265625 C 5.179688 -11.578125 5.96875 -11.734375 6.8125 -11.734375 C 7.664062 -11.734375 8.453125 -11.578125 9.171875 -11.265625 C 9.898438 -10.960938 10.53125 -10.535156 11.0625 -9.984375 C 11.601562 -9.429688 12.019531 -8.789062 12.3125 -8.0625 C 12.613281 -7.332031 12.765625 -6.546875 12.765625 -5.703125 C 12.765625 -4.867188 12.613281 -4.085938 12.3125 -3.359375 C 12.019531 -2.628906 11.601562 -1.988281 11.0625 -1.4375 C 10.53125 -0.882812 9.898438 -0.453125 9.171875 -0.140625 C 8.453125 0.171875 7.664062 0.328125 6.8125 0.328125 Z M 6.84375 -1.484375 C 7.40625 -1.484375 7.925781 -1.585938 8.40625 -1.796875 C 8.894531 -2.003906 9.320312 -2.296875 9.6875 -2.671875 C 10.050781 -3.054688 10.332031 -3.503906 10.53125 -4.015625 C 10.738281 -4.535156 10.84375 -5.097656 10.84375 -5.703125 C 10.84375 -6.304688 10.738281 -6.863281 10.53125 -7.375 C 10.332031 -7.882812 10.050781 -8.332031 9.6875 -8.71875 C 9.320312 -9.101562 8.894531 -9.398438 8.40625 -9.609375 C 7.925781 -9.816406 7.40625 -9.921875 6.84375 -9.921875 C 6.269531 -9.921875 5.738281 -9.816406 5.25 -9.609375 C 4.757812 -9.398438 4.332031 -9.101562 3.96875 -8.71875 C 3.601562 -8.332031 3.316406 -7.882812 3.109375 -7.375 C 2.910156 -6.863281 2.8125 -6.304688 2.8125 -5.703125 C 2.8125 -5.097656 2.910156 -4.535156 3.109375 -4.015625 C 3.316406 -3.503906 3.601562 -3.054688 3.96875 -2.671875 C 4.332031 -2.296875 4.757812 -2.003906 5.25 -1.796875 C 5.738281 -1.585938 6.269531 -1.484375 6.84375 -1.484375 Z M 6.84375 -1.484375 "/></g></g></g><g fill="#000000" fill-opacity="1"><g transform="translate(14.370789, 16.393305)"><g><path d="M 6.75 0.328125 C 5.988281 0.328125 5.289062 0.21875 4.65625 0 C 4.019531 -0.21875 3.46875 -0.550781 3 -1 C 2.539062 -1.457031 2.179688 -2.039062 1.921875 -2.75 C 1.660156 -3.46875 1.53125 -4.320312 1.53125 -5.3125 L 1.53125 -11.421875 L 3.453125 -11.421875 L 3.453125 -5.375 C 3.453125 -4.09375 3.734375 -3.125 4.296875 -2.46875 C 4.867188 -1.8125 5.679688 -1.484375 6.734375 -1.484375 C 7.785156 -1.484375 8.59375 -1.8125 9.15625 -2.46875 C 9.71875 -3.125 10 -4.09375 10 -5.375 L 10 -11.421875 L 11.9375 -11.421875 L 11.9375 -5.3125 C 11.9375 -4.320312 11.804688 -3.46875 11.546875 -2.75 C 11.285156 -2.039062 10.921875 -1.457031 10.453125 -1 C 9.992188 -0.550781 9.445312 -0.21875 8.8125 0 C 8.1875 0.21875 7.5 0.328125 6.75 0.328125 Z M 6.75 0.328125 "/></g></g></g><g fill="#000000" fill-opacity="1"><g transform="translate(27.833771, 16.393305)"><g/></g></g><g fill="#000000" fill-opacity="1"><g transform="translate(33.496505, 16.393305)"><g><path d="M 3.765625 0 L 1.84375 0 L 1.84375 -11.421875 L 3.6875 -11.421875 L 3.6875 -9.21875 C 3.90625 -9.707031 4.222656 -10.140625 4.640625 -10.515625 C 5.054688 -10.898438 5.539062 -11.195312 6.09375 -11.40625 C 6.65625 -11.625 7.257812 -11.734375 7.90625 -11.734375 C 9.414062 -11.734375 10.5625 -11.265625 11.34375 -10.328125 C 12.132812 -9.398438 12.53125 -8.019531 12.53125 -6.1875 L 12.53125 0 L 10.59375 0 L 10.59375 -6.15625 C 10.59375 -7.46875 10.304688 -8.425781 9.734375 -9.03125 C 9.171875 -9.632812 8.394531 -9.9375 7.40625 -9.9375 C 6.925781 -9.9375 6.46875 -9.847656 6.03125 -9.671875 C 5.601562 -9.492188 5.21875 -9.234375 4.875 -8.890625 C 4.53125 -8.546875 4.257812 -8.128906 4.0625 -7.640625 C 3.863281 -7.160156 3.765625 -6.613281 3.765625 -6 Z M 3.765625 0 "/></g></g></g><g fill="#000000" fill-opacity="1"><g transform="translate(47.731677, 16.393305)"><g><path d="M 9.90625 -15.25 L 10.625 -14.671875 C 10.113281 -13.492188 9.429688 -12.90625 8.578125 -12.90625 C 8.316406 -12.90625 8.066406 -12.941406 7.828125 -13.015625 C 7.597656 -13.097656 7.378906 -13.191406 7.171875 -13.296875 C 6.972656 -13.410156 6.78125 -13.503906 6.59375 -13.578125 C 6.414062 -13.660156 6.242188 -13.703125 6.078125 -13.703125 C 5.910156 -13.703125 5.742188 -13.648438 5.578125 -13.546875 C 5.421875 -13.453125 5.269531 -13.257812 5.125 -12.96875 L 4.421875 -13.546875 C 4.640625 -14.046875 4.921875 -14.414062 5.265625 -14.65625 C 5.617188 -14.894531 6.03125 -14.96875 6.5 -14.875 C 6.78125 -14.832031 7.039062 -14.75 7.28125 -14.625 C 7.519531 -14.507812 7.75 -14.398438 7.96875 -14.296875 C 8.1875 -14.203125 8.398438 -14.15625 8.609375 -14.15625 C 8.828125 -14.15625 9.046875 -14.234375 9.265625 -14.390625 C 9.484375 -14.546875 9.695312 -14.832031 9.90625 -15.25 Z M 6.40625 0.328125 C 5.625 0.328125 4.894531 0.171875 4.21875 -0.140625 C 3.550781 -0.453125 2.96875 -0.882812 2.46875 -1.4375 C 1.96875 -1.988281 1.578125 -2.628906 1.296875 -3.359375 C 1.023438 -4.085938 0.890625 -4.867188 0.890625 -5.703125 C 0.890625 -6.546875 1.023438 -7.328125 1.296875 -8.046875 C 1.578125 -8.773438 1.96875 -9.414062 2.46875 -9.96875 C 2.96875 -10.519531 3.550781 -10.953125 4.21875 -11.265625 C 4.894531 -11.578125 5.617188 -11.734375 6.390625 -11.734375 C 7.078125 -11.734375 7.710938 -11.617188 8.296875 -11.390625 C 8.890625 -11.171875 9.410156 -10.851562 9.859375 -10.4375 C 10.316406 -10.019531 10.671875 -9.53125 10.921875 -8.96875 L 10.921875 -11.421875 L 12.765625 -11.421875 L 12.765625 0 L 10.921875 0 L 10.921875 -2.421875 C 10.671875 -1.867188 10.316406 -1.382812 9.859375 -0.96875 C 9.410156 -0.550781 8.890625 -0.226562 8.296875 0 C 7.710938 0.21875 7.082031 0.328125 6.40625 0.328125 Z M 6.828125 -1.484375 C 7.390625 -1.484375 7.914062 -1.585938 8.40625 -1.796875 C 8.894531 -2.003906 9.320312 -2.300781 9.6875 -2.6875 C 10.050781 -3.070312 10.335938 -3.519531 10.546875 -4.03125 C 10.753906 -4.550781 10.859375 -5.109375 10.859375 -5.703125 C 10.859375 -6.296875 10.753906 -6.847656 10.546875 -7.359375 C 10.335938 -7.867188 10.046875 -8.316406 9.671875 -8.703125 C 9.304688 -9.085938 8.878906 -9.382812 8.390625 -9.59375 C 7.910156 -9.8125 7.394531 -9.921875 6.84375 -9.921875 C 6.28125 -9.921875 5.753906 -9.816406 5.265625 -9.609375 C 4.785156 -9.410156 4.359375 -9.117188 3.984375 -8.734375 C 3.609375 -8.359375 3.316406 -7.914062 3.109375 -7.40625 C 2.898438 -6.894531 2.796875 -6.328125 2.796875 -5.703125 C 2.796875 -5.066406 2.898438 -4.488281 3.109375 -3.96875 C 3.328125 -3.457031 3.617188 -3.015625 3.984375 -2.640625 C 4.359375 -2.265625 4.789062 -1.976562 5.28125 -1.78125 C 5.769531 -1.582031 6.285156 -1.484375 6.828125 -1.484375 Z M 6.828125 -1.484375 "/></g></g></g><g fill="#000000" fill-opacity="1"><g transform="translate(62.34735, 16.393305)"><g><path d="M 6.8125 0.328125 C 5.96875 0.328125 5.1875 0.171875 4.46875 -0.140625 C 3.75 -0.453125 3.117188 -0.882812 2.578125 -1.4375 C 2.046875 -1.988281 1.628906 -2.628906 1.328125 -3.359375 C 1.035156 -4.085938 0.890625 -4.867188 0.890625 -5.703125 C 0.890625 -6.546875 1.035156 -7.328125 1.328125 -8.046875 C 1.628906 -8.773438 2.046875 -9.414062 2.578125 -9.96875 C 3.109375 -10.519531 3.734375 -10.953125 4.453125 -11.265625 C 5.179688 -11.578125 5.96875 -11.734375 6.8125 -11.734375 C 7.664062 -11.734375 8.453125 -11.578125 9.171875 -11.265625 C 9.898438 -10.960938 10.53125 -10.535156 11.0625 -9.984375 C 11.601562 -9.429688 12.019531 -8.789062 12.3125 -8.0625 C 12.613281 -7.332031 12.765625 -6.546875 12.765625 -5.703125 C 12.765625 -4.867188 12.613281 -4.085938 12.3125 -3.359375 C 12.019531 -2.628906 11.601562 -1.988281 11.0625 -1.4375 C 10.53125 -0.882812 9.898438 -0.453125 9.171875 -0.140625 C 8.453125 0.171875 7.664062 0.328125 6.8125 0.328125 Z M 6.84375 -1.484375 C 7.40625 -1.484375 7.925781 -1.585938 8.40625 -1.796875 C 8.894531 -2.003906 9.320312 -2.296875 9.6875 -2.671875 C 10.050781 -3.054688 10.332031 -3.503906 10.53125 -4.015625 C 10.738281 -4.535156 10.84375 -5.097656 10.84375 -5.703125 C 10.84375 -6.304688 10.738281 -6.863281 10.53125 -7.375 C 10.332031 -7.882812 10.050781 -8.332031 9.6875 -8.71875 C 9.320312 -9.101562 8.894531 -9.398438 8.40625 -9.609375 C 7.925781 -9.816406 7.40625 -9.921875 6.84375 -9.921875 C 6.269531 -9.921875 5.738281 -9.816406 5.25 -9.609375 C 4.757812 -9.398438 4.332031 -9.101562 3.96875 -8.71875 C 3.601562 -8.332031 3.316406 -7.882812 3.109375 -7.375 C 2.910156 -6.863281 2.8125 -6.304688 2.8125 -5.703125 C 2.8125 -5.097656 2.910156 -4.535156 3.109375 -4.015625 C 3.316406 -3.503906 3.601562 -3.054688 3.96875 -2.671875 C 4.332031 -2.296875 4.757812 -2.003906 5.25 -1.796875 C 5.738281 -1.585938 6.269531 -1.484375 6.84375 -1.484375 Z M 6.84375 -1.484375 "/></g></g></g><g fill="#000000" fill-opacity="1"><g transform="translate(81.663315, 16.393305)"><g><path d="M 12.328125 -5.984375 C 12.328125 -5.890625 12.328125 -5.785156 12.328125 -5.671875 C 12.328125 -5.566406 12.316406 -5.410156 12.296875 -5.203125 L 2.828125 -5.203125 C 2.910156 -4.441406 3.132812 -3.78125 3.5 -3.21875 C 3.863281 -2.664062 4.320312 -2.238281 4.875 -1.9375 C 5.425781 -1.632812 6.015625 -1.484375 6.640625 -1.484375 C 7.410156 -1.484375 8.066406 -1.644531 8.609375 -1.96875 C 9.160156 -2.300781 9.5625 -2.789062 9.8125 -3.4375 L 11.96875 -3.4375 C 11.8125 -2.914062 11.566406 -2.425781 11.234375 -1.96875 C 10.910156 -1.507812 10.519531 -1.109375 10.0625 -0.765625 C 9.601562 -0.429688 9.085938 -0.171875 8.515625 0.015625 C 7.953125 0.210938 7.34375 0.3125 6.6875 0.3125 C 5.863281 0.3125 5.097656 0.160156 4.390625 -0.140625 C 3.679688 -0.453125 3.0625 -0.882812 2.53125 -1.4375 C 2.007812 -1.988281 1.601562 -2.628906 1.3125 -3.359375 C 1.03125 -4.085938 0.890625 -4.867188 0.890625 -5.703125 C 0.890625 -6.546875 1.03125 -7.328125 1.3125 -8.046875 C 1.601562 -8.773438 2.007812 -9.414062 2.53125 -9.96875 C 3.0625 -10.519531 3.679688 -10.953125 4.390625 -11.265625 C 5.097656 -11.578125 5.863281 -11.734375 6.6875 -11.734375 C 7.507812 -11.734375 8.265625 -11.582031 8.953125 -11.28125 C 9.648438 -10.976562 10.25 -10.554688 10.75 -10.015625 C 11.25 -9.484375 11.632812 -8.867188 11.90625 -8.171875 C 12.1875 -7.484375 12.328125 -6.753906 12.328125 -5.984375 Z M 2.921875 -6.90625 L 10.359375 -6.90625 C 10.328125 -7.3125 10.207031 -7.695312 10 -8.0625 C 9.800781 -8.425781 9.535156 -8.75 9.203125 -9.03125 C 8.867188 -9.3125 8.484375 -9.53125 8.046875 -9.6875 C 7.609375 -9.84375 7.144531 -9.921875 6.65625 -9.921875 C 6.09375 -9.921875 5.550781 -9.804688 5.03125 -9.578125 C 4.519531 -9.347656 4.078125 -9.007812 3.703125 -8.5625 C 3.328125 -8.113281 3.066406 -7.5625 2.921875 -6.90625 Z M 2.921875 -6.90625 "/></g></g></g><g fill="#000000" fill-opacity="1"><g transform="translate(94.186189, 16.393305)"><g><path d="M 2.703125 0 L 0.4375 0 L 4.40625 -5.8125 L 0.53125 -11.421875 L 2.828125 -11.421875 L 5.734375 -7.125 L 8.65625 -11.421875 L 10.9375 -11.421875 L 7.078125 -5.8125 L 11.046875 0 L 8.734375 0 L 5.71875 -4.453125 Z M 2.703125 0 "/></g></g></g><g clip-path="url(#32185a850e)"><g fill="#000000" fill-opacity="1"><g transform="translate(105.668333, 16.393305)"><g><path d="M 2.796875 -13.640625 C 2.398438 -13.640625 2.082031 -13.757812 1.84375 -14 C 1.613281 -14.238281 1.5 -14.53125 1.5 -14.875 C 1.5 -15.207031 1.613281 -15.492188 1.84375 -15.734375 C 2.082031 -15.972656 2.40625 -16.09375 2.8125 -16.09375 C 3.21875 -16.09375 3.535156 -15.972656 3.765625 -15.734375 C 4.003906 -15.492188 4.125 -15.207031 4.125 -14.875 C 4.125 -14.53125 4.003906 -14.238281 3.765625 -14 C 3.535156 -13.757812 3.210938 -13.640625 2.796875 -13.640625 Z M 3.765625 0 L 1.84375 0 L 1.84375 -11.421875 L 3.765625 -11.421875 Z M 3.765625 0 "/></g></g></g></g><g fill="#000000" fill-opacity="1"><g transform="translate(111.286302, 16.393305)"><g><path d="M 5.65625 0.328125 C 4.851562 0.328125 4.148438 0.21875 3.546875 0 C 2.953125 -0.207031 2.457031 -0.492188 2.0625 -0.859375 C 1.675781 -1.222656 1.382812 -1.632812 1.1875 -2.09375 C 0.988281 -2.550781 0.890625 -3.019531 0.890625 -3.5 L 2.734375 -3.484375 C 2.742188 -3.078125 2.863281 -2.703125 3.09375 -2.359375 C 3.320312 -2.015625 3.648438 -1.742188 4.078125 -1.546875 C 4.515625 -1.347656 5.046875 -1.25 5.671875 -1.25 C 6.535156 -1.25 7.1875 -1.414062 7.625 -1.75 C 8.070312 -2.09375 8.296875 -2.550781 8.296875 -3.125 C 8.296875 -3.550781 8.175781 -3.882812 7.9375 -4.125 C 7.707031 -4.363281 7.378906 -4.546875 6.953125 -4.671875 C 6.523438 -4.804688 6.015625 -4.925781 5.421875 -5.03125 C 4.890625 -5.113281 4.378906 -5.222656 3.890625 -5.359375 C 3.410156 -5.503906 2.984375 -5.703125 2.609375 -5.953125 C 2.242188 -6.210938 1.953125 -6.539062 1.734375 -6.9375 C 1.523438 -7.332031 1.421875 -7.816406 1.421875 -8.390625 C 1.421875 -9.015625 1.570312 -9.578125 1.875 -10.078125 C 2.175781 -10.585938 2.628906 -10.988281 3.234375 -11.28125 C 3.847656 -11.582031 4.601562 -11.734375 5.5 -11.734375 C 6.382812 -11.734375 7.15625 -11.585938 7.8125 -11.296875 C 8.46875 -11.003906 8.976562 -10.597656 9.34375 -10.078125 C 9.707031 -9.566406 9.890625 -8.976562 9.890625 -8.3125 L 8 -8.3125 C 7.96875 -8.863281 7.734375 -9.300781 7.296875 -9.625 C 6.859375 -9.957031 6.257812 -10.125 5.5 -10.125 C 5.007812 -10.125 4.601562 -10.046875 4.28125 -9.890625 C 3.96875 -9.742188 3.726562 -9.539062 3.5625 -9.28125 C 3.40625 -9.019531 3.328125 -8.738281 3.328125 -8.4375 C 3.328125 -8.082031 3.40625 -7.785156 3.5625 -7.546875 C 3.726562 -7.316406 4.007812 -7.128906 4.40625 -6.984375 C 4.800781 -6.835938 5.351562 -6.707031 6.0625 -6.59375 C 6.582031 -6.507812 7.09375 -6.398438 7.59375 -6.265625 C 8.09375 -6.140625 8.539062 -5.957031 8.9375 -5.71875 C 9.34375 -5.476562 9.660156 -5.15625 9.890625 -4.75 C 10.128906 -4.351562 10.25 -3.84375 10.25 -3.21875 C 10.25 -2.445312 10.054688 -1.796875 9.671875 -1.265625 C 9.285156 -0.734375 8.742188 -0.332031 8.046875 -0.0625 C 7.359375 0.195312 6.5625 0.328125 5.65625 0.328125 Z M 5.65625 0.328125 "/></g></g></g><g fill="#000000" fill-opacity="1"><g transform="translate(122.320799, 16.393305)"><g><path d="M 8.359375 0 L 6.25 0 C 5.820312 0 5.394531 -0.0507812 4.96875 -0.15625 C 4.539062 -0.269531 4.15625 -0.476562 3.8125 -0.78125 C 3.46875 -1.082031 3.1875 -1.507812 2.96875 -2.0625 C 2.757812 -2.625 2.65625 -3.347656 2.65625 -4.234375 L 2.65625 -9.71875 L 0.125 -9.71875 L 0.125 -11.421875 L 2.65625 -11.421875 L 2.65625 -14.8125 L 4.59375 -14.8125 L 4.59375 -11.421875 L 8.359375 -11.421875 L 8.359375 -9.71875 L 4.59375 -9.71875 L 4.59375 -4.140625 C 4.59375 -3.609375 4.648438 -3.175781 4.765625 -2.84375 C 4.878906 -2.507812 5.035156 -2.253906 5.234375 -2.078125 C 5.429688 -1.910156 5.648438 -1.796875 5.890625 -1.734375 C 6.128906 -1.671875 6.378906 -1.640625 6.640625 -1.640625 L 8.359375 -1.640625 Z M 8.359375 0 "/></g></g></g><g fill="#000000" fill-opacity="1"><g transform="translate(130.960353, 16.393305)"><g><path d="M 12.328125 -5.984375 C 12.328125 -5.890625 12.328125 -5.785156 12.328125 -5.671875 C 12.328125 -5.566406 12.316406 -5.410156 12.296875 -5.203125 L 2.828125 -5.203125 C 2.910156 -4.441406 3.132812 -3.78125 3.5 -3.21875 C 3.863281 -2.664062 4.320312 -2.238281 4.875 -1.9375 C 5.425781 -1.632812 6.015625 -1.484375 6.640625 -1.484375 C 7.410156 -1.484375 8.066406 -1.644531 8.609375 -1.96875 C 9.160156 -2.300781 9.5625 -2.789062 9.8125 -3.4375 L 11.96875 -3.4375 C 11.8125 -2.914062 11.566406 -2.425781 11.234375 -1.96875 C 10.910156 -1.507812 10.519531 -1.109375 10.0625 -0.765625 C 9.601562 -0.429688 9.085938 -0.171875 8.515625 0.015625 C 7.953125 0.210938 7.34375 0.3125 6.6875 0.3125 C 5.863281 0.3125 5.097656 0.160156 4.390625 -0.140625 C 3.679688 -0.453125 3.0625 -0.882812 2.53125 -1.4375 C 2.007812 -1.988281 1.601562 -2.628906 1.3125 -3.359375 C 1.03125 -4.085938 0.890625 -4.867188 0.890625 -5.703125 C 0.890625 -6.546875 1.03125 -7.328125 1.3125 -8.046875 C 1.601562 -8.773438 2.007812 -9.414062 2.53125 -9.96875 C 3.0625 -10.519531 3.679688 -10.953125 4.390625 -11.265625 C 5.097656 -11.578125 5.863281 -11.734375 6.6875 -11.734375 C 7.507812 -11.734375 8.265625 -11.582031 8.953125 -11.28125 C 9.648438 -10.976562 10.25 -10.554688 10.75 -10.015625 C 11.25 -9.484375 11.632812 -8.867188 11.90625 -8.171875 C 12.1875 -7.484375 12.328125 -6.753906 12.328125 -5.984375 Z M 2.921875 -6.90625 L 10.359375 -6.90625 C 10.328125 -7.3125 10.207031 -7.695312 10 -8.0625 C 9.800781 -8.425781 9.535156 -8.75 9.203125 -9.03125 C 8.867188 -9.3125 8.484375 -9.53125 8.046875 -9.6875 C 7.609375 -9.84375 7.144531 -9.921875 6.65625 -9.921875 C 6.09375 -9.921875 5.550781 -9.804688 5.03125 -9.578125 C 4.519531 -9.347656 4.078125 -9.007812 3.703125 -8.5625 C 3.328125 -8.113281 3.066406 -7.5625 2.921875 -6.90625 Z M 2.921875 -6.90625 "/></g></g></g><g fill="#000000" fill-opacity="1"><g transform="translate(149.660812, 16.393305)"><g><path d="M 15.796875 -11.734375 C 17.210938 -11.734375 18.285156 -11.265625 19.015625 -10.328125 C 19.753906 -9.398438 20.125 -8.019531 20.125 -6.1875 L 20.125 0 L 18.203125 0 L 18.203125 -6.15625 C 18.203125 -7.46875 17.941406 -8.425781 17.421875 -9.03125 C 16.898438 -9.632812 16.179688 -9.9375 15.265625 -9.9375 C 14.828125 -9.9375 14.410156 -9.84375 14.015625 -9.65625 C 13.617188 -9.46875 13.265625 -9.195312 12.953125 -8.84375 C 12.640625 -8.488281 12.390625 -8.070312 12.203125 -7.59375 C 12.023438 -7.113281 11.9375 -6.582031 11.9375 -6 L 11.9375 0 L 10.03125 0 L 10.03125 -6.15625 C 10.03125 -7.46875 9.769531 -8.425781 9.25 -9.03125 C 8.726562 -9.632812 8.007812 -9.9375 7.09375 -9.9375 C 6.664062 -9.9375 6.25 -9.84375 5.84375 -9.65625 C 5.4375 -9.46875 5.078125 -9.195312 4.765625 -8.84375 C 4.453125 -8.488281 4.203125 -8.070312 4.015625 -7.59375 C 3.835938 -7.113281 3.75 -6.582031 3.75 -6 L 3.75 0 L 1.84375 0 L 1.84375 -11.421875 L 3.65625 -11.421875 L 3.6875 -9.21875 C 3.875 -9.6875 4.160156 -10.109375 4.546875 -10.484375 C 4.929688 -10.867188 5.382812 -11.171875 5.90625 -11.390625 C 6.425781 -11.617188 6.992188 -11.734375 7.609375 -11.734375 C 9.671875 -11.734375 11 -10.757812 11.59375 -8.8125 C 12.03125 -9.789062 12.617188 -10.519531 13.359375 -11 C 14.097656 -11.488281 14.910156 -11.734375 15.796875 -11.734375 Z M 15.796875 -11.734375 "/></g></g></g><g fill="#000000" fill-opacity="1"><g transform="translate(171.494783, 16.393305)"><g><path d="M 6.40625 0.328125 C 5.625 0.328125 4.894531 0.171875 4.21875 -0.140625 C 3.550781 -0.453125 2.96875 -0.882812 2.46875 -1.4375 C 1.96875 -1.988281 1.578125 -2.628906 1.296875 -3.359375 C 1.023438 -4.085938 0.890625 -4.867188 0.890625 -5.703125 C 0.890625 -6.546875 1.023438 -7.328125 1.296875 -8.046875 C 1.578125 -8.773438 1.96875 -9.414062 2.46875 -9.96875 C 2.96875 -10.519531 3.550781 -10.953125 4.21875 -11.265625 C 4.894531 -11.578125 5.617188 -11.734375 6.390625 -11.734375 C 7.078125 -11.734375 7.710938 -11.617188 8.296875 -11.390625 C 8.890625 -11.171875 9.410156 -10.851562 9.859375 -10.4375 C 10.316406 -10.019531 10.671875 -9.53125 10.921875 -8.96875 L 10.921875 -11.421875 L 12.765625 -11.421875 L 12.765625 0 L 10.921875 0 L 10.921875 -2.421875 C 10.671875 -1.867188 10.316406 -1.382812 9.859375 -0.96875 C 9.410156 -0.550781 8.890625 -0.226562 8.296875 0 C 7.710938 0.21875 7.082031 0.328125 6.40625 0.328125 Z M 6.828125 -1.484375 C 7.390625 -1.484375 7.914062 -1.585938 8.40625 -1.796875 C 8.894531 -2.003906 9.320312 -2.300781 9.6875 -2.6875 C 10.050781 -3.070312 10.335938 -3.519531 10.546875 -4.03125 C 10.753906 -4.550781 10.859375 -5.109375 10.859375 -5.703125 C 10.859375 -6.296875 10.753906 -6.847656 10.546875 -7.359375 C 10.335938 -7.867188 10.046875 -8.316406 9.671875 -8.703125 C 9.304688 -9.085938 8.878906 -9.382812 8.390625 -9.59375 C 7.910156 -9.8125 7.394531 -9.921875 6.84375 -9.921875 C 6.28125 -9.921875 5.753906 -9.816406 5.265625 -9.609375 C 4.785156 -9.410156 4.359375 -9.117188 3.984375 -8.734375 C 3.609375 -8.359375 3.316406 -7.914062 3.109375 -7.40625 C 2.898438 -6.894531 2.796875 -6.328125 2.796875 -5.703125 C 2.796875 -5.066406 2.898438 -4.488281 3.109375 -3.96875 C 3.328125 -3.457031 3.617188 -3.015625 3.984375 -2.640625 C 4.359375 -2.265625 4.789062 -1.976562 5.28125 -1.78125 C 5.769531 -1.582031 6.285156 -1.484375 6.828125 -1.484375 Z M 6.828125 -1.484375 "/></g></g></g><g clip-path="url(#c86a2a8647)"><g fill="#000000" fill-opacity="1"><g transform="translate(186.110456, 16.393305)"><g><path d="M 2.796875 -13.640625 C 2.398438 -13.640625 2.082031 -13.757812 1.84375 -14 C 1.613281 -14.238281 1.5 -14.53125 1.5 -14.875 C 1.5 -15.207031 1.613281 -15.492188 1.84375 -15.734375 C 2.082031 -15.972656 2.40625 -16.09375 2.8125 -16.09375 C 3.21875 -16.09375 3.535156 -15.972656 3.765625 -15.734375 C 4.003906 -15.492188 4.125 -15.207031 4.125 -14.875 C 4.125 -14.53125 4.003906 -14.238281 3.765625 -14 C 3.535156 -13.757812 3.210938 -13.640625 2.796875 -13.640625 Z M 3.765625 0 L 1.84375 0 L 1.84375 -11.421875 L 3.765625 -11.421875 Z M 3.765625 0 "/></g></g></g></g><g fill="#000000" fill-opacity="1"><g transform="translate(191.728425, 16.393305)"><g><path d="M 5.65625 0.328125 C 4.851562 0.328125 4.148438 0.21875 3.546875 0 C 2.953125 -0.207031 2.457031 -0.492188 2.0625 -0.859375 C 1.675781 -1.222656 1.382812 -1.632812 1.1875 -2.09375 C 0.988281 -2.550781 0.890625 -3.019531 0.890625 -3.5 L 2.734375 -3.484375 C 2.742188 -3.078125 2.863281 -2.703125 3.09375 -2.359375 C 3.320312 -2.015625 3.648438 -1.742188 4.078125 -1.546875 C 4.515625 -1.347656 5.046875 -1.25 5.671875 -1.25 C 6.535156 -1.25 7.1875 -1.414062 7.625 -1.75 C 8.070312 -2.09375 8.296875 -2.550781 8.296875 -3.125 C 8.296875 -3.550781 8.175781 -3.882812 7.9375 -4.125 C 7.707031 -4.363281 7.378906 -4.546875 6.953125 -4.671875 C 6.523438 -4.804688 6.015625 -4.925781 5.421875 -5.03125 C 4.890625 -5.113281 4.378906 -5.222656 3.890625 -5.359375 C 3.410156 -5.503906 2.984375 -5.703125 2.609375 -5.953125 C 2.242188 -6.210938 1.953125 -6.539062 1.734375 -6.9375 C 1.523438 -7.332031 1.421875 -7.816406 1.421875 -8.390625 C 1.421875 -9.015625 1.570312 -9.578125 1.875 -10.078125 C 2.175781 -10.585938 2.628906 -10.988281 3.234375 -11.28125 C 3.847656 -11.582031 4.601562 -11.734375 5.5 -11.734375 C 6.382812 -11.734375 7.15625 -11.585938 7.8125 -11.296875 C 8.46875 -11.003906 8.976562 -10.597656 9.34375 -10.078125 C 9.707031 -9.566406 9.890625 -8.976562 9.890625 -8.3125 L 8 -8.3125 C 7.96875 -8.863281 7.734375 -9.300781 7.296875 -9.625 C 6.859375 -9.957031 6.257812 -10.125 5.5 -10.125 C 5.007812 -10.125 4.601562 -10.046875 4.28125 -9.890625 C 3.96875 -9.742188 3.726562 -9.539062 3.5625 -9.28125 C 3.40625 -9.019531 3.328125 -8.738281 3.328125 -8.4375 C 3.328125 -8.082031 3.40625 -7.785156 3.5625 -7.546875 C 3.726562 -7.316406 4.007812 -7.128906 4.40625 -6.984375 C 4.800781 -6.835938 5.351562 -6.707031 6.0625 -6.59375 C 6.582031 -6.507812 7.09375 -6.398438 7.59375 -6.265625 C 8.09375 -6.140625 8.539062 -5.957031 8.9375 -5.71875 C 9.34375 -5.476562 9.660156 -5.15625 9.890625 -4.75 C 10.128906 -4.351562 10.25 -3.84375 10.25 -3.21875 C 10.25 -2.445312 10.054688 -1.796875 9.671875 -1.265625 C 9.285156 -0.734375 8.742188 -0.332031 8.046875 -0.0625 C 7.359375 0.195312 6.5625 0.328125 5.65625 0.328125 Z M 5.65625 0.328125 "/></g></g></g></g></g></g></g></g></g><g clip-path="url(#a106dacede)"><g transform="matrix(1, 0, 0, 1, 53, 29)"><g clip-path="url(#f934fd62b3)"><g clip-path="url(#9b779b5c5c)"><g fill="#1a607b" fill-opacity="1"><g transform="translate(0.420503, 79.599762)"><g><path d="M 39.515625 -9.875 L 39.515625 -29.625 L 0 -29.625 L 0 -49.390625 L 9.875 -49.390625 L 9.875 -59.265625 L 19.75 -59.265625 L 19.75 -69.140625 L 29.625 -69.140625 L 29.625 -79.015625 L 59.265625 -79.015625 L 59.265625 -39.515625 L 69.140625 -39.515625 L 69.140625 -29.625 L 59.265625 -29.625 L 59.265625 -9.875 Z M 19.75 -39.515625 L 39.515625 -39.515625 L 39.515625 -59.265625 L 29.625 -59.265625 L 29.625 -49.390625 L 19.75 -49.390625 Z M 19.75 -39.515625 "/></g></g></g></g><g clip-path="url(#168af1551a)"><g fill="#1a607b" fill-opacity="1"><g transform="translate(79.43103, 79.599762)"><g><path d="M 19.75 -9.875 L 19.75 -19.75 L 9.875 -19.75 L 9.875 -29.625 L 0 -29.625 L 0 -59.265625 L 9.875 -59.265625 L 9.875 -69.140625 L 19.75 -69.140625 L 19.75 -79.015625 L 49.390625 -79.015625 L 49.390625 -69.140625 L 59.265625 -69.140625 L 59.265625 -59.265625 L 69.140625 -59.265625 L 69.140625 -29.625 L 59.265625 -29.625 L 59.265625 -19.75 L 49.390625 -19.75 L 49.390625 -9.875 Z M 29.625 -19.75 L 49.390625 -19.75 L 49.390625 -59.265625 L 39.515625 -59.265625 L 39.515625 -69.140625 L 19.75 -69.140625 L 19.75 -29.625 L 29.625 -29.625 Z M 29.625 -19.75 "/></g></g></g></g><g clip-path="url(#73e9124225)"><g fill="#1a607b" fill-opacity="1"><g transform="translate(158.441557, 79.599762)"><g><path d="M 39.515625 -9.875 L 39.515625 -29.625 L 0 -29.625 L 0 -49.390625 L 9.875 -49.390625 L 9.875 -59.265625 L 19.75 -59.265625 L 19.75 -69.140625 L 29.625 -69.140625 L 29.625 -79.015625 L 59.265625 -79.015625 L 59.265625 -39.515625 L 69.140625 -39.515625 L 69.140625 -29.625 L 59.265625 -29.625 L 59.265625 -9.875 Z M 19.75 -39.515625 L 39.515625 -39.515625 L 39.515625 -59.265625 L 29.625 -59.265625 L 29.625 -49.390625 L 19.75 -49.390625 Z M 19.75 -39.515625 "/></g></g></g></g><g clip-path="url(#9b2ece0f5d)"><g fill="#1a607b" fill-opacity="1"><g transform="translate(237.528791, 79.599762)"><g/></g></g></g></g></g></g></svg>