<svg xmlns="http://www.w3.org/2000/svg" xmlns:xlink="http://www.w3.org/1999/xlink" width="254" zoomAndPan="magnify" viewBox="0 0 190.5 103.5" height="138" preserveAspectRatio="xMidYMid meet" version="1.0"><defs><g/><clipPath id="ab44138723"><rect x="0" width="158" y="0" height="59"/></clipPath></defs><g transform="matrix(1, 0, 0, 1, 16, 21)"><g clip-path="url(#ab44138723)"><g fill="#000000" fill-opacity="1"><g transform="translate(1.021296, 46.054951)"><g><path d="M 19.34375 -29.296875 C 21.570312 -29.296875 23.488281 -28.796875 25.09375 -27.796875 C 26.707031 -26.796875 27.945312 -25.375 28.8125 -23.53125 C 29.675781 -21.695312 30.109375 -19.507812 30.109375 -16.96875 L 30.109375 -0.84375 C 30.109375 -0.257812 29.804688 0.03125 29.203125 0.03125 L 23.84375 0.03125 C 23.25 0.03125 22.953125 -0.257812 22.953125 -0.84375 L 22.953125 -16.546875 C 22.953125 -18.390625 22.472656 -19.890625 21.515625 -21.046875 C 20.554688 -22.203125 19.109375 -22.78125 17.171875 -22.78125 C 15.910156 -22.78125 14.804688 -22.488281 13.859375 -21.90625 C 12.921875 -21.320312 12.191406 -20.550781 11.671875 -19.59375 C 11.160156 -18.632812 10.90625 -17.582031 10.90625 -16.4375 L 10.90625 -0.8125 C 10.90625 -0.25 10.613281 0.03125 10.03125 0.03125 L 4.59375 0.03125 C 4.03125 0.03125 3.75 -0.25 3.75 -0.8125 L 3.75 -42.03125 C 3.75 -42.59375 4.03125 -42.875 4.59375 -42.875 L 10.03125 -42.875 C 10.613281 -42.875 10.90625 -42.59375 10.90625 -42.03125 L 10.90625 -25.0625 C 11.84375 -26.34375 13.050781 -27.367188 14.53125 -28.140625 C 16.019531 -28.910156 17.625 -29.296875 19.34375 -29.296875 Z M 19.34375 -29.296875 "/></g></g><g transform="translate(34.597705, 46.054951)"><g><path d="M 30.15625 -28.640625 C 30.738281 -28.640625 31.03125 -28.335938 31.03125 -27.734375 L 31.03125 -0.875 C 31.03125 -0.613281 30.953125 -0.394531 30.796875 -0.21875 C 30.640625 -0.0507812 30.421875 0.03125 30.140625 0.03125 L 27 0.03125 C 26.59375 0.03125 26.273438 -0.175781 26.046875 -0.59375 L 24.71875 -4.984375 C 24.125 -3.898438 23.304688 -2.925781 22.265625 -2.0625 C 21.234375 -1.195312 20.078125 -0.519531 18.796875 -0.03125 C 17.523438 0.457031 16.203125 0.703125 14.828125 0.703125 C 12.609375 0.703125 10.644531 0.207031 8.9375 -0.78125 C 7.226562 -1.78125 5.890625 -3.207031 4.921875 -5.0625 C 3.953125 -6.914062 3.46875 -9.097656 3.46875 -11.609375 L 3.46875 -27.71875 C 3.46875 -28.3125 3.769531 -28.609375 4.375 -28.609375 L 9.71875 -28.609375 C 10.320312 -28.609375 10.625 -28.3125 10.625 -27.71875 L 10.625 -12.015625 C 10.625 -10.804688 10.882812 -9.734375 11.40625 -8.796875 C 11.9375 -7.859375 12.679688 -7.125 13.640625 -6.59375 C 14.597656 -6.070312 15.71875 -5.8125 17 -5.8125 C 18.28125 -5.8125 19.4375 -6.101562 20.46875 -6.6875 C 21.5 -7.269531 22.320312 -8.039062 22.9375 -9 C 23.5625 -9.957031 23.875 -11.007812 23.875 -12.15625 L 23.875 -27.734375 C 23.875 -28.335938 24.175781 -28.640625 24.78125 -28.640625 Z M 30.15625 -28.640625 "/></g></g></g><g fill="#2f6d88" fill-opacity="1"><g transform="translate(69.399437, 46.054951)"><g><path d="M 19.9375 -29.3125 C 21.882812 -29.3125 23.691406 -28.941406 25.359375 -28.203125 C 27.023438 -27.460938 28.476562 -26.414062 29.71875 -25.0625 C 30.957031 -23.707031 31.914062 -22.113281 32.59375 -20.28125 C 33.28125 -18.445312 33.625 -16.441406 33.625 -14.265625 C 33.625 -12.140625 33.273438 -10.171875 32.578125 -8.359375 C 31.890625 -6.546875 30.925781 -4.96875 29.6875 -3.625 C 28.445312 -2.28125 26.992188 -1.234375 25.328125 -0.484375 C 23.660156 0.265625 21.851562 0.640625 19.90625 0.640625 C 17.8125 0.640625 15.910156 0.1875 14.203125 -0.71875 C 12.492188 -1.632812 11.066406 -2.90625 9.921875 -4.53125 L 8.734375 -0.59375 C 8.640625 -0.40625 8.515625 -0.253906 8.359375 -0.140625 C 8.203125 -0.0234375 8.007812 0.03125 7.78125 0.03125 L 4.65625 0.03125 C 4.382812 0.03125 4.164062 -0.0507812 4 -0.21875 C 3.832031 -0.394531 3.75 -0.625 3.75 -0.90625 L 3.75 -12.71875 L 3.78125 -12.6875 L 3.78125 -43.46875 C 3.78125 -44.050781 4.078125 -44.34375 4.671875 -44.34375 L 10.09375 -44.34375 C 10.65625 -44.34375 10.9375 -44.050781 10.9375 -43.46875 L 10.875 -25.3125 C 12.007812 -26.59375 13.347656 -27.578125 14.890625 -28.265625 C 16.429688 -28.960938 18.113281 -29.3125 19.9375 -29.3125 Z M 18.578125 -6.375 C 19.648438 -6.375 20.65625 -6.570312 21.59375 -6.96875 C 22.53125 -7.375 23.359375 -7.9375 24.078125 -8.65625 C 24.804688 -9.382812 25.378906 -10.226562 25.796875 -11.1875 C 26.210938 -12.144531 26.421875 -13.179688 26.421875 -14.296875 C 26.421875 -15.421875 26.210938 -16.46875 25.796875 -17.4375 C 25.378906 -18.40625 24.8125 -19.25 24.09375 -19.96875 C 23.382812 -20.695312 22.5625 -21.257812 21.625 -21.65625 C 20.6875 -22.0625 19.679688 -22.265625 18.609375 -22.265625 C 17.515625 -22.265625 16.488281 -22.0625 15.53125 -21.65625 C 14.570312 -21.257812 13.722656 -20.695312 12.984375 -19.96875 C 12.253906 -19.25 11.675781 -18.40625 11.25 -17.4375 C 10.832031 -16.46875 10.625 -15.421875 10.625 -14.296875 C 10.625 -13.179688 10.832031 -12.144531 11.25 -11.1875 C 11.664062 -10.226562 12.238281 -9.382812 12.96875 -8.65625 C 13.695312 -7.9375 14.539062 -7.375 15.5 -6.96875 C 16.457031 -6.570312 17.484375 -6.375 18.578125 -6.375 Z M 18.578125 -6.375 "/></g></g><g transform="translate(105.033846, 46.054951)"><g><path d="M 7.296875 -32.75 C 6.523438 -32.75 5.820312 -32.929688 5.1875 -33.296875 C 4.5625 -33.671875 4.0625 -34.175781 3.6875 -34.8125 C 3.3125 -35.457031 3.125 -36.164062 3.125 -36.9375 C 3.125 -37.695312 3.3125 -38.390625 3.6875 -39.015625 C 4.0625 -39.648438 4.5625 -40.15625 5.1875 -40.53125 C 5.820312 -40.914062 6.523438 -41.109375 7.296875 -41.109375 C 8.085938 -41.109375 8.796875 -40.914062 9.421875 -40.53125 C 10.054688 -40.15625 10.5625 -39.648438 10.9375 -39.015625 C 11.3125 -38.390625 11.5 -37.695312 11.5 -36.9375 C 11.5 -36.164062 11.3125 -35.457031 10.9375 -34.8125 C 10.5625 -34.175781 10.054688 -33.671875 9.421875 -33.296875 C 8.796875 -32.929688 8.085938 -32.75 7.296875 -32.75 Z M 10.03125 -28.640625 C 10.613281 -28.640625 10.90625 -28.347656 10.90625 -27.765625 L 10.90625 -0.8125 C 10.90625 -0.25 10.613281 0.03125 10.03125 0.03125 L 4.59375 0.03125 C 4.03125 0.03125 3.75 -0.25 3.75 -0.8125 L 3.75 -27.765625 C 3.75 -28.347656 4.03125 -28.640625 4.59375 -28.640625 Z M 10.03125 -28.640625 "/></g></g><g transform="translate(119.693571, 46.054951)"><g><path d="M 17.421875 -6.0625 C 17.796875 -6.0625 18.109375 -5.960938 18.359375 -5.765625 C 18.617188 -5.566406 18.75 -5.304688 18.75 -4.984375 L 18.75 -0.484375 C 18.75 -0.140625 18.613281 0.132812 18.34375 0.34375 C 18.082031 0.5625 17.75 0.671875 17.34375 0.671875 C 14.84375 0.671875 12.691406 0.238281 10.890625 -0.625 C 9.097656 -1.5 7.710938 -2.796875 6.734375 -4.515625 C 5.753906 -6.242188 5.265625 -8.375 5.265625 -10.90625 L 5.265625 -22.671875 L 1.96875 -22.671875 C 1.40625 -22.671875 1.125 -22.953125 1.125 -23.515625 L 1.125 -27.734375 C 1.125 -28.316406 1.40625 -28.609375 1.96875 -28.609375 L 5.265625 -28.609375 L 5.265625 -36.453125 C 5.265625 -36.972656 5.507812 -37.300781 6 -37.4375 L 11.390625 -38.625 C 12.066406 -38.738281 12.40625 -38.484375 12.40625 -37.859375 L 12.40625 -28.609375 L 17.734375 -28.609375 C 18.273438 -28.609375 18.546875 -28.328125 18.546875 -27.765625 L 18.546875 -23.515625 C 18.546875 -22.953125 18.273438 -22.671875 17.734375 -22.671875 L 12.4375 -22.671875 L 12.4375 -10.796875 C 12.4375 -9.203125 12.878906 -8.015625 13.765625 -7.234375 C 14.660156 -6.453125 15.878906 -6.0625 17.421875 -6.0625 Z M 17.421875 -6.0625 "/></g></g><g transform="translate(141.203898, 46.054951)"><g><path d="M 7.8125 0.84375 C 6.976562 0.84375 6.222656 0.644531 5.546875 0.25 C 4.867188 -0.144531 4.332031 -0.679688 3.9375 -1.359375 C 3.550781 -2.035156 3.359375 -2.773438 3.359375 -3.578125 C 3.359375 -4.410156 3.550781 -5.160156 3.9375 -5.828125 C 4.332031 -6.492188 4.867188 -7.019531 5.546875 -7.40625 C 6.222656 -7.800781 6.976562 -8 7.8125 -8 C 8.613281 -8 9.34375 -7.800781 10 -7.40625 C 10.664062 -7.019531 11.195312 -6.492188 11.59375 -5.828125 C 12 -5.160156 12.203125 -4.410156 12.203125 -3.578125 C 12.203125 -2.773438 12 -2.035156 11.59375 -1.359375 C 11.195312 -0.679688 10.664062 -0.144531 10 0.25 C 9.34375 0.644531 8.613281 0.84375 7.8125 0.84375 Z M 7.8125 0.84375 "/></g></g></g></g></g></svg>